#N canvas 817 324 313 174 10;
#X obj 12 31 inlet~;
#X obj 12 103 outlet~;
#X obj 134 31 inlet~;
#X obj 134 103 outlet~;
#N canvas 418 166 606 491 delay 0;
#X obj 113 205 t b f;
#X obj 113 272 * 4;
#X obj 125 293 /;
#X obj 125 335 line~;
#X obj 27 173 *~;
#X obj 182 127 line~;
#X obj 113 251 v \$1-quarter;
#X obj 27 398 delay~;
#X obj 327 173 *~;
#X obj 327 398 delay~;
#X obj 195 293 / 100;
#X msg 195 314 \$1 20;
#X obj 195 335 line~;
#X msg 125 314 \$1 250;
#X obj 123 231 r \$1-quarter;
#X msg 182 106 \$1 20;
#X obj 182 85 r \$1-\$2-delSend-s;
#X obj 113 184 r \$1-\$2-delTime-s;
#X obj 195 272 r \$1-\$2-delFbk-s;
#X obj 27 137 inlet~;
#X obj 342 137 inlet~;
#X obj 27 429 outlet~;
#X obj 327 429 outlet~;
#X obj 439 257 r \$1-\$2-delTgl-s;
#X obj 439 278 switch~;
#X text 439 237 GUI: delay toggle;
#X text 195 252 GUI: delay feedback;
#X text 113 164 GUI: delay time;
#X text 182 65 GUI: delay send;
#X connect 0 0 6 0;
#X connect 0 1 2 1;
#X connect 1 0 2 0;
#X connect 2 0 13 0;
#X connect 3 0 7 1;
#X connect 3 0 9 1;
#X connect 4 0 7 0;
#X connect 5 0 4 1;
#X connect 5 0 8 0;
#X connect 6 0 1 0;
#X connect 7 0 21 0;
#X connect 8 0 9 0;
#X connect 9 0 22 0;
#X connect 10 0 11 0;
#X connect 11 0 12 0;
#X connect 12 0 7 2;
#X connect 12 0 9 2;
#X connect 13 0 3 0;
#X connect 14 0 1 0;
#X connect 15 0 5 0;
#X connect 16 0 15 0;
#X connect 17 0 0 0;
#X connect 18 0 10 0;
#X connect 19 0 4 0;
#X connect 20 0 8 1;
#X connect 23 0 24 0;
#X restore 52 67 pd delay;
#X text 12 11 Inlet 1: Left;
#X text 12 123 Outlet 1: Left;
#X text 134 123 Outlet 2: Right;
#X text 132 11 Inlet 2: Right;
#X connect 0 0 4 0;
#X connect 0 0 1 0;
#X connect 2 0 4 1;
#X connect 2 0 3 0;
#X connect 4 0 1 0;
#X connect 4 1 3 0;
