#N canvas 817 324 440 267 10;
#X obj 12 71 inlet~;
#X obj 12 183 outlet~;
#X obj 134 71 inlet~;
#X obj 134 183 outlet~;
#N canvas 418 166 532 566 delay 1;
#X obj 118 184 t b f;
#X obj 118 251 * 4;
#X obj 130 272 /;
#X obj 130 314 line~;
#X obj 75 117 *~;
#X obj 216 101 line~;
#X obj 118 230 v \$1-quarter;
#X obj 114 347 delay~;
#X obj 200 272 / 100;
#X msg 200 293 \$1 20;
#X obj 200 314 line~;
#X msg 130 293 \$1 250;
#X obj 128 210 r \$1-quarter;
#X msg 216 80 \$1 20;
#X obj 118 163 r \$1-\$2-delTime-s;
#X obj 200 251 r \$1-\$2-delFbk-s;
#X obj 12 86 inlet~;
#X obj 114 449 outlet~;
#X obj 216 38 / 100;
#X obj 216 59 pow 2;
#X text 200 231 GUI: Delay Feedback;
#X text 118 143 GUI: Delay Time;
#X obj 216 17 r \$1-\$2-delLevel-s;
#X text 217 -2 GUI: Delay Level;
#X connect 0 0 6 0;
#X connect 0 1 2 1;
#X connect 1 0 2 0;
#X connect 2 0 11 0;
#X connect 3 0 7 1;
#X connect 4 0 7 0;
#X connect 5 0 4 1;
#X connect 6 0 1 0;
#X connect 7 0 17 0;
#X connect 8 0 9 0;
#X connect 9 0 10 0;
#X connect 10 0 7 2;
#X connect 11 0 3 0;
#X connect 12 0 1 0;
#X connect 13 0 5 0;
#X connect 14 0 0 0;
#X connect 15 0 8 0;
#X connect 16 0 4 0;
#X connect 18 0 19 0;
#X connect 19 0 13 0;
#X connect 22 0 18 0;
#X restore 62 147 pd delay;
#X text 12 51 Inlet 1: Left;
#X text 12 203 Outlet 1: Left;
#X text 134 203 Outlet 2: Right;
#X text 132 51 Inlet 2: Right;
#X obj 231 32 r \$1-\$2-delTgl-s;
#X text 231 12 GUI: Delay Toggle;
#X obj 231 53 * 0.5;
#X obj 231 95 line~;
#X obj 62 121 *~;
#X msg 231 74 \$1 1;
#X connect 0 0 1 0;
#X connect 0 0 13 0;
#X connect 2 0 3 0;
#X connect 2 0 13 0;
#X connect 4 0 1 0;
#X connect 4 0 3 0;
#X connect 9 0 11 0;
#X connect 11 0 14 0;
#X connect 12 0 13 1;
#X connect 13 0 4 0;
#X connect 14 0 12 0;
