#N canvas 1046 124 506 236 10;
#X obj 12 31 inlet~;
#X obj 242 176 outlet~;
#X obj 242 31 inlet~;
#X obj 242 52 delread4~ \$0-delay;
#X obj 370 120 inlet~;
#X obj 12 173 delwrite~ \$0-delay 8000;
#X obj 122 93 lop~ 6000;
#X obj 122 114 hip~ 50;
#X text 12 11 Inlet 1: Input;
#X text 242 11 Inlet 2: Delay Time;
#X text 370 100 Inlet 3: Feedback;
#X obj 122 136 else/drive~;
#X text 242 196 Outlet 1: Wet Delay;
#X connect 0 0 5 0;
#X connect 2 0 3 0;
#X connect 3 0 1 0;
#X connect 3 0 6 0;
#X connect 4 0 11 1;
#X connect 6 0 7 0;
#X connect 7 0 11 0;
#X connect 11 0 5 0;
