#N canvas 817 324 1 1 10;
#X obj 12 181 inlet~;
#X obj 12 293 outlet~;
#X obj 164 181 inlet~;
#X obj 164 293 outlet~;
#X text 12 161 Inlet 1: Left;
#X text 12 313 Outlet 1: Left;
#X text 164 313 Outlet 2: Right;
#X text 162 161 Inlet 2: Right;
#X obj 275 193 line~;
#X msg 275 172 \$1 100;
#X obj 275 67 r \$1-\$2-drive-s;
#X text 275 47 GUI: Drive;
#X obj 12 248 else/drive~ -mode 1;
#X obj 164 248 else/drive~ -mode 1;
#X obj 275 88 / 100;
#X obj 275 109 * 24;
#X obj 275 130 + 100;
#X obj 275 151 dbtorms;
#X connect 0 0 12 0;
#X connect 2 0 13 0;
#X connect 8 0 13 1;
#X connect 8 0 12 1;
#X connect 9 0 8 0;
#X connect 10 0 14 0;
#X connect 12 0 1 0;
#X connect 13 0 3 0;
#X connect 14 0 15 0;
#X connect 15 0 16 0;
#X connect 16 0 17 0;
#X connect 17 0 9 0;
