#N canvas 653 306 1117 526 10;
#X obj 12 32 inlet;
#X obj 12 53 unpack f f;
#X obj 333 358 outlet~;
#X obj 12 185 phasor~;
#X obj 12 316 cos~;
#X obj 132 226 *~;
#X obj 177 137 / 100;
#X obj 177 158 * 16;
#X obj 177 179 + 1.5;
#X obj 177 200 i;
#X obj 132 247 cos~;
#X obj 132 289 *~;
#X obj 69 79 s \$0-velocity;
#X obj 348 12 r \$0-velocity;
#X obj 333 332 *~;
#X obj 177 116 r \$2-synth-cutoff-s;
#X obj 557 30 r \$2-synth-attack-s;
#X obj 557 51 / 100;
#X obj 557 135 pow;
#X obj 557 93 + 1;
#X obj 700 74 / 100;
#X msg 700 137 10 \$1;
#X obj 700 158 pow;
#X obj 700 116 + 1;
#X obj 700 95 * 2;
#X obj 700 178 * 2;
#X obj 700 53 r \$2-synth-decay-s;
#X obj 231 188 / 100;
#X obj 231 209 pow 2;
#X msg 231 231 \$1 20;
#X obj 231 252 line~;
#X obj 231 273 *~;
#X obj 231 167 r \$2-synth-env-s;
#X obj 348 194 pack f f f;
#X obj 348 33 select 0;
#X obj 348 59 / 127;
#X obj 348 80 * 0.8;
#X obj 348 101 + 0.2;
#X msg 348 215 \$1 \$2 \, 0 \$3 \$2;
#X obj 348 236 vline~;
#X obj 348 257 *~;
#X msg 557 114 2 \$1;
#X obj 557 72 * 11;
#X obj 584 231 r \$0-velocity;
#X obj 584 252 > 0;
#X obj 584 273 sel 1 0;
#X msg 514 340 1;
#X msg 564 320 stop;
#X obj 603 346 delay;
#X obj 553 393 switch~;
#X msg 603 367 0;
#X obj 700 235 +;
#X obj 700 209 t b f;
#X msg 177 221 1 \$1;
#X obj 177 242 /;
#X obj 132 268 *~;
#X obj 12 74 sig~;
#X obj 12 155 mtof~;
#X obj 69 125 inlet~;
#X obj 537 299 t b b;
#X obj 461 32 / 100;
#X obj 461 53 * 0.8;
#X msg 461 74 1 \$1;
#X obj 461 95 -;
#X obj 461 11 r \$2-synth-vel-s;
#X connect 0 0 1 0;
#X connect 1 0 56 0;
#X connect 1 1 12 0;
#X connect 3 0 4 0;
#X connect 3 0 5 0;
#X connect 4 0 14 0;
#X connect 5 0 10 0;
#X connect 6 0 7 0;
#X connect 7 0 8 0;
#X connect 8 0 9 0;
#X connect 9 0 5 1;
#X connect 9 0 53 0;
#X connect 10 0 55 0;
#X connect 11 0 4 0;
#X connect 13 0 34 0;
#X connect 14 0 2 0;
#X connect 15 0 6 0;
#X connect 16 0 17 0;
#X connect 17 0 42 0;
#X connect 18 0 33 1;
#X connect 18 0 51 0;
#X connect 19 0 41 0;
#X connect 20 0 24 0;
#X connect 21 0 22 0;
#X connect 22 0 25 0;
#X connect 23 0 21 0;
#X connect 24 0 23 0;
#X connect 25 0 33 2;
#X connect 25 0 52 0;
#X connect 26 0 20 0;
#X connect 27 0 28 0;
#X connect 28 0 29 0;
#X connect 29 0 30 0;
#X connect 30 0 31 0;
#X connect 31 0 11 1;
#X connect 32 0 27 0;
#X connect 33 0 38 0;
#X connect 34 1 35 0;
#X connect 35 0 36 0;
#X connect 36 0 37 0;
#X connect 37 0 33 0;
#X connect 38 0 39 0;
#X connect 39 0 40 0;
#X connect 39 0 40 1;
#X connect 40 0 31 1;
#X connect 40 0 14 1;
#X connect 41 0 18 0;
#X connect 42 0 19 0;
#X connect 43 0 44 0;
#X connect 44 0 45 0;
#X connect 45 0 59 0;
#X connect 45 1 48 0;
#X connect 46 0 49 0;
#X connect 47 0 48 0;
#X connect 48 0 50 0;
#X connect 50 0 49 0;
#X connect 51 0 48 1;
#X connect 52 0 51 0;
#X connect 52 1 51 1;
#X connect 53 0 54 0;
#X connect 54 0 55 1;
#X connect 55 0 11 0;
#X connect 56 0 57 0;
#X connect 57 0 3 0;
#X connect 58 0 57 0;
#X connect 59 0 46 0;
#X connect 59 1 47 0;
#X connect 60 0 61 0;
#X connect 61 0 62 0;
#X connect 61 0 36 1;
#X connect 62 0 63 0;
#X connect 63 0 37 1;
#X connect 64 0 60 0;
