#N canvas 817 324 550 394 10;
#X obj 12 12 inlet;
#X obj 12 33 unpack f f;
#X obj 12 74 mtof;
#X obj 12 95 else/bl.saw~;
#X obj 164 59 > 0;
#X obj 149 227 *~;
#X obj 149 258 outlet~;
#X obj 76 128 *~ 60;
#X obj 76 149 +~ 60;
#X obj 76 170 mtof~;
#X obj 12 196 else/lowpass~ 2000 1.4;
#X obj 164 80 else/adsr~ 1 250 0.1 1000;
#X connect 0 0 1 0;
#X connect 1 0 2 0;
#X connect 1 1 4 0;
#X connect 2 0 3 0;
#X connect 3 0 10 0;
#X connect 4 0 11 0;
#X connect 5 0 6 0;
#X connect 7 0 8 0;
#X connect 8 0 9 0;
#X connect 9 0 10 1;
#X connect 10 0 5 0;
#X connect 11 0 5 1;
#X connect 11 0 7 0;
