#N canvas 817 324 440 267 10;
#X obj 12 111 inlet~;
#X obj 12 223 outlet~;
#X obj 134 111 inlet~;
#X obj 134 223 outlet~;
#X text 12 91 Inlet 1: Left;
#X text 12 243 Outlet 1: Left;
#X text 134 243 Outlet 2: Right;
#X text 132 91 Inlet 2: Right;
#X obj 231 135 line~;
#X obj 62 161 *~;
#X obj 231 30 r \$1-\$2-rev-s;
#X text 231 10 GUI: Delay Send;
#X obj 231 51 / 100;
#X obj 231 72 pow 2;
#X msg 231 114 \$1 100;
#X obj 231 93 * 0.5;
#X obj 62 186 throw~ \$1-reverb;
#X connect 0 0 1 0;
#X connect 0 0 9 0;
#X connect 2 0 3 0;
#X connect 2 0 9 0;
#X connect 8 0 9 1;
#X connect 9 0 16 0;
#X connect 10 0 12 0;
#X connect 12 0 13 0;
#X connect 13 0 15 0;
#X connect 14 0 8 0;
#X connect 15 0 14 0;
