#N canvas 787 407 445 311 10;
#X declare -path else;
#X obj 12 31 inlet~;
#X obj 92 249 outlet~;
#X obj 192 249 outlet~;
#X obj 112 31 inlet~;
#X obj 12 182 *~;
#X obj 112 182 *~;
#X obj 192 172 *~;
#X text 12 11 Inlet 1: Left;
#X text 112 11 Inlet 2: Right;
#X text 92 269 Outlet 1: Left;
#X text 192 269 Outlet 2: Right;
#N canvas 152 188 337 171 reverse 0;
#X obj 62 51 r \$1-quarter;
#X obj 22 22 inlet~;
#X obj 22 129 outlet~;
#X obj 154 90 switch~;
#X text 154 49 GUI: Reverse Toggle;
#X obj 154 69 r \$1-\$2-reverseTgl-s;
#X obj 107 4 r \$1-beat;
#N canvas 555 221 644 473 rdelay~ 0;
#X obj 128 193 * 2;
#X msg 128 246 size \$1;
#X obj 199 186 /;
#X msg 199 157 1000 \$1;
#X obj 61 337 outlet~;
#X obj 199 259 *~ 2000;
#X obj 199 215 phasor~ 1;
#X text 339 185 Part of ELSE \; https://github.com/porres/pd-else;
#X text 341 166 Alexandre Torres Porres (2020);
#X obj 61 300 else/ffdelay~ 2000;
#X obj 396 91 declare -path else;
#X obj 284 171 inlet;
#X msg 284 195 0;
#X obj 61 45 inlet~;
#X obj 128 71 inlet, f 6;
#X connect 0 0 1 0;
#X connect 0 0 5 1;
#X connect 1 0 9 0;
#X connect 2 0 6 0;
#X connect 3 0 2 0;
#X connect 5 0 9 1;
#X connect 6 0 5 0;
#X connect 9 0 4 0;
#X connect 11 0 12 0;
#X connect 12 0 6 1;
#X connect 13 0 9 0;
#X connect 14 0 0 0;
#X connect 14 0 3 0;
#X restore 22 98 pd rdelay~;
#X connect 0 0 7 1;
#X connect 1 0 7 0;
#X connect 5 0 3 0;
#X connect 6 0 7 2;
#X connect 7 0 2 0;
#X restore 192 116 pd reverse;
#X text 277 68 GUI: Reverse Toggle;
#X obj 277 88 r \$1-\$2-reverseTgl-s;
#X msg 277 109 \$1 1;
#X obj 277 130 line~;
#X obj 127 114 loadbang;
#X msg 127 135 1;
#X obj 127 156 -~;
#X obj 192 90 *~ 0.5;
#X connect 0 0 4 0;
#X connect 0 0 19 0;
#X connect 3 0 5 0;
#X connect 3 0 19 0;
#X connect 4 0 1 0;
#X connect 5 0 2 0;
#X connect 6 0 1 0;
#X connect 6 0 2 0;
#X connect 11 0 6 0;
#X connect 13 0 14 0;
#X connect 14 0 15 0;
#X connect 15 0 18 1;
#X connect 15 0 6 1;
#X connect 16 0 17 0;
#X connect 17 0 18 0;
#X connect 18 0 5 1;
#X connect 18 0 4 1;
#X connect 19 0 11 0;
