#N canvas 753 74 1093 690 10;
#X obj 515 467 phasor~;
#X obj 515 488 *~ 4000;
#X obj 515 304 vline~;
#X msg 590 342 0;
#X obj 515 68 random 100;
#X obj 515 89 / 100;
#X obj 515 110 sqrt;
#X obj 515 257 pack f f;
#X msg 515 283 \$1 \$2 \, 0 \$2 \$2;
#X obj 515 131 * 0.75;
#X obj 515 152 + 0.1;
#X obj 515 178 t f b b;
#X obj 515 325 lop~ 50;
#X obj 590 306 delay 400;
#X obj 646 194 random 5;
#X obj 646 215 + 2;
#X obj 560 210 v \$1-quarter;
#X obj 12 315 inlet~;
#X obj 660 392 t f;
#X msg 660 342 1;
#X obj 590 363 t f f;
#X msg 660 413 \$1 1;
#X obj 660 434 line~;
#X obj 12 476 *~;
#X obj 257 408 loadbang;
#X msg 257 429 1;
#X obj 257 450 -~;
#X obj 645 530 *~;
#X obj 12 587 +~;
#X obj 12 608 outlet~;
#X obj 560 231 /;
#X text 12 628 (O1) Output;
#X obj 32 341 delwrite~ \$0-scratch-l 4000;
#X obj 515 509 delread4~ \$0-scratch-l;
#X obj 242 587 +~;
#X obj 242 608 outlet~;
#X text 242 628 (O1) Output;
#X text 12 295 (I1) Left;
#X obj 242 315 inlet~;
#X text 242 295 (I2) Right;
#X obj 242 476 *~;
#X obj 262 341 delwrite~ \$0-scratch-r 4000;
#X obj 725 509 delread4~ \$0-scratch-r;
#X obj 725 530 *~;
#X obj 515 47 r \$1-\$2-scratch-s;
#X obj 660 280 r \$1-\$2-scratch-s;
#X text 660 260 GUI: Scratch;
#X text 515 27 GUI: Scratch;
#X connect 0 0 1 0;
#X connect 1 0 33 0;
#X connect 1 0 42 0;
#X connect 2 0 12 0;
#X connect 3 0 20 0;
#X connect 4 0 5 0;
#X connect 5 0 6 0;
#X connect 6 0 9 0;
#X connect 7 0 8 0;
#X connect 8 0 2 0;
#X connect 9 0 10 0;
#X connect 10 0 11 0;
#X connect 11 0 7 0;
#X connect 11 1 16 0;
#X connect 11 2 14 0;
#X connect 12 0 0 0;
#X connect 13 0 3 0;
#X connect 14 0 15 0;
#X connect 15 0 30 1;
#X connect 16 0 30 0;
#X connect 17 0 23 0;
#X connect 17 0 32 0;
#X connect 18 0 21 0;
#X connect 19 0 18 0;
#X connect 20 0 0 1;
#X connect 20 1 18 0;
#X connect 21 0 22 0;
#X connect 22 0 26 1;
#X connect 22 0 27 1;
#X connect 22 0 43 1;
#X connect 23 0 28 0;
#X connect 24 0 25 0;
#X connect 25 0 26 0;
#X connect 26 0 23 1;
#X connect 26 0 40 1;
#X connect 27 0 28 1;
#X connect 28 0 29 0;
#X connect 30 0 7 1;
#X connect 33 0 27 0;
#X connect 34 0 35 0;
#X connect 38 0 40 0;
#X connect 38 0 41 0;
#X connect 40 0 34 0;
#X connect 42 0 43 0;
#X connect 43 0 34 1;
#X connect 44 0 4 0;
#X connect 45 0 13 0;
#X connect 45 0 19 0;
