#N canvas 804 181 904 473 10;
#X obj 140 31 inlet;
#X text 140 11 (I2) Gate;
#X obj 242 31 inlet;
#X text 12 11 (I1) Input;
#X text 242 11 (I3) Length;
#X obj 12 357 *~;
#X obj 12 31 inlet~;
#X obj 222 367 *~;
#X msg 95 234 \$1 1;
#X obj 95 255 line~;
#X obj 27 250 sig~ 1;
#X obj 27 271 -~;
#X obj 242 57 t f f;
#X obj 12 399 outlet~;
#X text 12 419 (O1) Output;
#X obj 239 114 metro;
#X obj 246 320 *~;
#X msg 239 88 1;
#X obj 36 142 delwrite~ \$0-buffer 2000;
#X obj 239 185 f;
#X obj 279 185 + 1;
#X msg 209 159 0;
#X obj 239 232 delread4~ \$0-buffer;
#X obj 239 206 sig~;
#X obj 239 135 delay 0;
#X obj 377 163 f;
#X obj 418 253 delay;
#X obj 377 294 line~;
#X obj 377 205 t b f b;
#X msg 422 232 stop;
#X obj 377 184 - 8;
#X msg 377 226 1 4;
#X msg 418 274 0 4;
#X obj 190 57 sel 1;
#X connect 0 0 8 0;
#X connect 0 0 33 0;
#X connect 2 0 12 0;
#X connect 5 0 13 0;
#X connect 6 0 5 0;
#X connect 6 0 18 0;
#X connect 7 0 13 0;
#X connect 8 0 9 0;
#X connect 9 0 11 1;
#X connect 9 0 7 0;
#X connect 10 0 11 0;
#X connect 11 0 5 1;
#X connect 12 1 15 1;
#X connect 12 1 20 1;
#X connect 12 1 25 1;
#X connect 15 0 24 0;
#X connect 16 0 7 1;
#X connect 17 0 15 0;
#X connect 19 0 20 0;
#X connect 19 0 23 0;
#X connect 20 0 19 1;
#X connect 21 0 19 0;
#X connect 22 0 16 0;
#X connect 23 0 22 0;
#X connect 24 0 19 0;
#X connect 24 0 25 0;
#X connect 25 0 30 0;
#X connect 26 0 32 0;
#X connect 27 0 16 1;
#X connect 28 0 31 0;
#X connect 28 1 26 0;
#X connect 28 2 29 0;
#X connect 29 0 26 0;
#X connect 30 0 28 0;
#X connect 31 0 27 0;
#X connect 32 0 27 0;
#X connect 33 0 17 0;
#X connect 33 0 21 0;
