#N canvas 651 182 1151 518 10;
#X obj 626 185 t b b;
#X msg 626 227 1;
#X msg 653 227 0;
#X obj 626 248 t f;
#X obj 1037 281 t b f;
#X obj 1037 323 /;
#X obj 729 33 random 100;
#X obj 729 75 sel 1;
#X obj 729 96 t b b;
#X obj 917 213 *;
#X obj 766 116 t b b;
#X obj 932 132 random 2;
#X obj 932 153 + 2;
#X obj 303 259 inlet~;
#X obj 12 447 outlet~;
#X obj 653 206 pipe;
#X msg 766 166 2 \$1;
#X obj 766 187 pow;
#X obj 917 234 max 2;
#X obj 766 145 random 3;
#X msg 122 267 \$1 1;
#X obj 122 288 line~;
#X obj 12 313 sig~ 1;
#X obj 12 334 -~;
#X obj 12 360 *~;
#X obj 589 365 *~;
#X obj 12 421 +~;
#X text 122 226 // ON/OFF;
#X obj 729 54 < 25;
#X obj 604 339 stutter~;
#X obj 803 38 r \$1-s-\$2-prob;
#X obj 1037 302 v \$1-quarter;
#X obj 674 185 r \$1-quarter;
#X obj 729 12 r \$1-beat;
#X obj 122 246 r \$1-s-\$2-stutter;
#X obj 811 106 r \$1-s-\$2-sran;
#X obj 977 211 t f f;
#X obj 917 255 spigot;
#X obj 977 190 r \$1-s-\$2-sfix;
#X obj 1010 238 sel 0;
#X obj 503 259 inlet~;
#X obj 212 447 outlet~;
#X obj 212 360 *~;
#X obj 212 421 +~;
#X obj 779 375 *~;
#X obj 794 349 stutter~;
#X text 12 467 (O1) Left;
#X text 303 239 (I1) Left;
#X text 503 239 (I2) Right;
#X text 212 467 (O2) Right;
#X obj 977 234 == 0;
#X connect 0 0 1 0;
#X connect 0 1 15 0;
#X connect 1 0 3 0;
#X connect 2 0 3 0;
#X connect 3 0 45 1;
#X connect 3 0 29 1;
#X connect 4 0 31 0;
#X connect 4 1 5 1;
#X connect 5 0 45 2;
#X connect 5 0 29 2;
#X connect 6 0 28 0;
#X connect 7 0 8 0;
#X connect 8 0 0 0;
#X connect 8 1 10 0;
#X connect 9 0 18 0;
#X connect 10 0 19 0;
#X connect 10 1 11 0;
#X connect 11 0 12 0;
#X connect 12 0 9 1;
#X connect 13 0 24 1;
#X connect 13 0 29 0;
#X connect 15 0 2 0;
#X connect 16 0 17 0;
#X connect 17 0 9 0;
#X connect 18 0 37 0;
#X connect 19 0 16 0;
#X connect 20 0 21 0;
#X connect 21 0 23 1;
#X connect 21 0 25 0;
#X connect 21 0 44 0;
#X connect 22 0 23 0;
#X connect 23 0 24 0;
#X connect 23 0 42 0;
#X connect 24 0 26 0;
#X connect 25 0 26 1;
#X connect 26 0 14 0;
#X connect 28 0 7 0;
#X connect 29 0 25 1;
#X connect 30 0 28 1;
#X connect 31 0 5 0;
#X connect 32 0 15 1;
#X connect 33 0 6 0;
#X connect 34 0 20 0;
#X connect 35 0 19 1;
#X connect 36 0 50 0;
#X connect 36 1 39 0;
#X connect 37 0 4 0;
#X connect 38 0 36 0;
#X connect 39 1 4 0;
#X connect 40 0 42 1;
#X connect 40 0 45 0;
#X connect 42 0 43 0;
#X connect 43 0 41 0;
#X connect 44 0 43 1;
#X connect 45 0 44 1;
#X connect 50 0 37 1;
