#N canvas 986 402 510 430 10;
#X obj 22 44 inlet~;
#X obj 122 242 outlet~;
#X obj 22 195 *~;
#X obj 302 185 *~;
#X obj 132 44 inlet~;
#X obj 232 242 outlet~;
#X obj 132 195 *~;
#X text 22 24 Inlet 1: Left;
#X text 132 24 Inlet 2: Right;
#X text 122 262 Outlet 1: Left;
#X text 232 262 Outlet 2: Right;
#X obj 317 101 r \$1-\$2-stuTgl-s;
#X text 317 81 GUI: Stutter Toggle;
#N canvas 1056 238 706 586 stutter 0;
#X obj 528 382 t b f;
#X obj 528 424 /;
#X obj 220 95 random 100;
#X obj 220 147 sel 1;
#X obj 220 168 t b b;
#X obj 528 348 *;
#X obj 377 251 t b b;
#X obj 543 267 random 2;
#X msg 377 301 2 \$1;
#X obj 377 322 pow;
#X obj 377 280 random 3;
#X obj 220 126 < 25;
#X obj 95 450 stutter~;
#X obj 528 403 v \$1-quarter;
#X obj 95 476 outlet~;
#X obj 55 395 inlet~;
#X obj 277 215 select 0 1;
#X obj 422 181 r \$1-\$2-stuRate-s;
#X obj 277 194 value \$1-\$2-stuRnd-s;
#X obj 422 202 log 2;
#X obj 422 223 + 0.5;
#X obj 422 244 i;
#X obj 277 366 value \$1-\$2-stuRate-s;
#X obj 294 100 r \$1-\$2-stuProb-s;
#X text 294 80 GUI: Stutter Probability;
#X text 422 161 GUI: Stutter Rate;
#X text 277 174 GUI: Stutter Random;
#X text 277 384 GUI: Stutter Rate;
#X obj 295 479 r \$1-\$2-stuTgl-s;
#X text 295 459 GUI: Stutter Toggle;
#X obj 295 500 switch~;
#X obj 543 288 * 0.5;
#X obj 543 309 + 1;
#X obj 303 11 r \$1-stuDiv-s;
#X text 304 -9 GUI: Stutter div;
#X obj 220 6 r \$1-clock;
#X obj 220 27 div 1;
#X obj 220 48 change -1;
#X obj 220 69 t b;
#X connect 0 0 13 0;
#X connect 0 1 1 1;
#X connect 1 0 12 2;
#X connect 2 0 11 0;
#X connect 3 0 4 0;
#X connect 4 1 18 0;
#X connect 5 0 0 0;
#X connect 6 0 10 0;
#X connect 6 1 7 0;
#X connect 7 0 31 0;
#X connect 8 0 9 0;
#X connect 9 0 5 0;
#X connect 10 0 8 0;
#X connect 11 0 3 0;
#X connect 11 0 12 1;
#X connect 12 0 14 0;
#X connect 13 0 1 0;
#X connect 15 0 12 0;
#X connect 16 0 22 0;
#X connect 16 1 6 0;
#X connect 17 0 19 0;
#X connect 18 0 16 0;
#X connect 19 0 20 0;
#X connect 20 0 21 0;
#X connect 21 0 10 1;
#X connect 22 0 0 0;
#X connect 23 0 11 1;
#X connect 28 0 30 0;
#X connect 31 0 32 0;
#X connect 32 0 5 1;
#X connect 33 0 36 1;
#X connect 35 0 36 0;
#X connect 36 0 37 0;
#X connect 37 0 38 0;
#X connect 38 0 2 0;
#X restore 222 119 pd stutter;
#X msg 317 122 \$1 1;
#X obj 317 143 line~;
#X obj 147 127 loadbang;
#X msg 147 148 1;
#X obj 147 169 -~;
#X obj 222 93 *~ 0.7;
#X connect 0 0 2 0;
#X connect 0 0 19 0;
#X connect 2 0 1 0;
#X connect 3 0 5 0;
#X connect 3 0 1 0;
#X connect 4 0 6 0;
#X connect 4 0 19 0;
#X connect 6 0 5 0;
#X connect 11 0 14 0;
#X connect 13 0 3 0;
#X connect 14 0 15 0;
#X connect 15 0 18 1;
#X connect 15 0 3 1;
#X connect 16 0 17 0;
#X connect 17 0 18 0;
#X connect 18 0 6 1;
#X connect 18 0 2 1;
#X connect 19 0 13 0;
