#N canvas 783 316 964 543 10;
#X obj 22 161 inlet;
#X obj 22 182 unpack f f;
#X obj 473 494 outlet~;
#X obj 167 186 / 100;
#X obj 79 208 s \$0-velocity;
#X obj 488 71 r \$0-velocity;
#X obj 473 468 *~;
#X obj 167 165 r \$2-synth-cutoff-s;
#X obj 687 32 r \$2-synth-attack-s;
#X obj 687 53 / 100;
#X obj 687 137 pow;
#X obj 687 95 + 1;
#X obj 814 76 / 100;
#X msg 814 139 10 \$1;
#X obj 814 160 pow;
#X obj 814 118 + 1;
#X obj 814 97 * 2;
#X obj 814 180 * 2;
#X obj 814 55 r \$2-synth-decay-s;
#X obj 295 190 / 100;
#X msg 295 233 \$1 20;
#X obj 295 254 line~;
#X obj 295 169 r \$2-synth-env-s;
#X obj 488 196 pack f f f;
#X obj 488 92 select 0;
#X obj 488 118 / 127;
#X obj 488 139 * 0.8;
#X obj 488 160 + 0.2;
#X msg 488 217 \$1 \$2 \, 0 \$3 \$2;
#X obj 488 238 vline~;
#X obj 488 259 *~;
#X msg 687 116 2 \$1;
#X obj 687 74 * 11;
#X obj 814 237 +;
#X obj 814 211 t b f;
#X msg 167 249 \$1 20;
#X obj 167 270 line~;
#X obj 167 291 +~;
#X obj 167 312 mtof~;
#X obj 167 333 clip~ 20 20000;
#X obj 166 442 else/lowpass~ 1000 1.4;
#X obj 22 334 else/bl.saw~;
#X obj 295 332 / 100;
#X obj 295 311 r \$2-synth-res-s;
#X obj 295 374 + 0.4;
#X msg 295 395 \$1 20;
#X obj 295 416 line~;
#X obj 295 353 * 4;
#X obj 295 275 *~;
#X obj 580 81 / 100;
#X obj 580 102 * 0.8;
#X msg 580 123 1 \$1;
#X obj 580 144 -;
#X obj 295 211 * 120;
#X obj 167 228 + 40;
#X obj 167 207 * 90;
#X obj 22 203 sig~;
#X obj 22 273 mtof~;
#X obj 89 242 inlet~;
#X obj 628 253 r \$0-velocity;
#X obj 628 274 > 0;
#X obj 628 295 sel 1 0;
#X msg 558 362 1;
#X msg 608 342 stop;
#X obj 647 368 delay;
#X obj 597 415 switch~;
#X msg 647 389 0;
#X obj 581 321 t b b;
#X obj 580 60 r \$2-synth-vel-s;
#X connect 0 0 1 0;
#X connect 1 0 56 0;
#X connect 1 1 4 0;
#X connect 3 0 55 0;
#X connect 5 0 24 0;
#X connect 6 0 2 0;
#X connect 7 0 3 0;
#X connect 8 0 9 0;
#X connect 9 0 32 0;
#X connect 10 0 23 1;
#X connect 10 0 33 0;
#X connect 11 0 31 0;
#X connect 12 0 16 0;
#X connect 13 0 14 0;
#X connect 14 0 17 0;
#X connect 15 0 13 0;
#X connect 16 0 15 0;
#X connect 17 0 23 2;
#X connect 17 0 34 0;
#X connect 18 0 12 0;
#X connect 19 0 53 0;
#X connect 20 0 21 0;
#X connect 21 0 48 0;
#X connect 22 0 19 0;
#X connect 23 0 28 0;
#X connect 24 1 25 0;
#X connect 25 0 26 0;
#X connect 26 0 27 0;
#X connect 27 0 23 0;
#X connect 28 0 29 0;
#X connect 29 0 30 0;
#X connect 29 0 30 1;
#X connect 30 0 6 1;
#X connect 30 0 48 1;
#X connect 31 0 10 0;
#X connect 32 0 11 0;
#X connect 33 0 64 1;
#X connect 34 0 33 0;
#X connect 34 1 33 1;
#X connect 35 0 36 0;
#X connect 36 0 37 0;
#X connect 37 0 38 0;
#X connect 38 0 39 0;
#X connect 39 0 40 1;
#X connect 40 0 6 0;
#X connect 41 0 40 0;
#X connect 42 0 47 0;
#X connect 43 0 42 0;
#X connect 44 0 45 0;
#X connect 45 0 46 0;
#X connect 46 0 40 2;
#X connect 47 0 44 0;
#X connect 48 0 37 1;
#X connect 49 0 50 0;
#X connect 50 0 51 0;
#X connect 50 0 26 1;
#X connect 51 0 52 0;
#X connect 52 0 27 1;
#X connect 53 0 20 0;
#X connect 54 0 35 0;
#X connect 55 0 54 0;
#X connect 56 0 57 0;
#X connect 57 0 41 0;
#X connect 58 0 57 0;
#X connect 59 0 60 0;
#X connect 60 0 61 0;
#X connect 61 0 67 0;
#X connect 61 1 64 0;
#X connect 62 0 65 0;
#X connect 63 0 64 0;
#X connect 64 0 66 0;
#X connect 66 0 65 0;
#X connect 67 0 62 0;
#X connect 67 1 63 0;
#X connect 68 0 49 0;
