#N canvas 122 146 1143 826 10;
#N canvas 211 220 703 742 clock 0;
#X obj 72 12 notein;
#X obj 72 36 pack f f;
#X obj 103 107 + 50;
#X msg 103 282 60000 \$1;
#X obj 103 306 /;
#X obj 122 439 / 4;
#X obj 72 60 route 50 52;
#X obj 103 327 t f f f;
#X obj 12 538 i;
#X obj 42 538 + 1;
#X obj 85 486 delay;
#X obj 12 460 t b b;
#X obj 135 486 delay;
#X obj 185 486 delay;
#X obj 173 460 t f f f;
#X obj 12 512 t b;
#X obj 12 711 s \$0-clock;
#X obj 12 105 t b b;
#X obj 42 426 s \$0-beat;
#X obj 142 369 v \$0-quarter;
#X obj 142 348 s \$0-quarter;
#X obj 12 84 sel 100 0;
#X obj 103 86 change -1;
#X text 239 430 https://github.com/mixxxdj/mixxx/wiki/MIDI%20clock%20output;
#X text 239 410 Documentation:;
#X text 152 60 <- 50 = beat \, BPM = BPM;
#X obj 103 128 t f f;
#X obj 130 153 s \$0-bpm-r;
#X obj 103 261 +;
#X obj 130 214 / 100;
#X obj 130 235 t b f;
#X text 130 173 GUI: Decimals;
#X obj 130 193 r \$0-decimals-s;
#X obj 12 374 pipe 72;
#X obj 12 559 % 65536;
#X obj 42 400 b;
#X obj 12 580 t f f;
#X obj 88 596 % 2;
#X obj 88 617 select 0 1;
#X msg 88 638 0;
#X obj 126 643 v \$0-quarter;
#X obj 12 692 pipe;
#X obj 126 663 / 8;
#X obj 242 636 r \$0-swing-s;
#X obj 126 684 * 0;
#X obj 242 657 / 100;
#X obj 20 348 r \$0-clockDelay-s;
#X connect 0 0 1 0;
#X connect 0 1 1 1;
#X connect 1 0 6 0;
#X connect 2 0 26 0;
#X connect 3 0 4 0;
#X connect 4 0 7 0;
#X connect 5 0 14 0;
#X connect 6 0 21 0;
#X connect 6 1 22 0;
#X connect 7 1 5 0;
#X connect 7 2 20 0;
#X connect 8 0 34 0;
#X connect 9 0 8 1;
#X connect 10 0 12 0;
#X connect 10 0 15 0;
#X connect 11 0 15 0;
#X connect 11 1 10 0;
#X connect 12 0 13 0;
#X connect 12 0 15 0;
#X connect 13 0 15 0;
#X connect 14 0 10 1;
#X connect 14 1 12 1;
#X connect 14 2 13 1;
#X connect 15 0 8 0;
#X connect 17 0 33 0;
#X connect 21 0 17 0;
#X connect 22 0 2 0;
#X connect 26 0 28 0;
#X connect 26 1 27 0;
#X connect 28 0 3 0;
#X connect 29 0 30 0;
#X connect 30 0 28 0;
#X connect 30 1 28 1;
#X connect 32 0 29 0;
#X connect 33 0 11 0;
#X connect 33 0 35 0;
#X connect 34 0 9 0;
#X connect 34 0 36 0;
#X connect 35 0 18 0;
#X connect 36 0 41 0;
#X connect 36 1 37 0;
#X connect 37 0 38 0;
#X connect 38 0 39 0;
#X connect 38 1 40 0;
#X connect 39 0 41 1;
#X connect 40 0 42 0;
#X connect 41 0 16 0;
#X connect 42 0 44 0;
#X connect 43 0 45 0;
#X connect 44 0 41 1;
#X connect 45 0 44 1;
#X connect 46 0 33 1;
#X restore 921 146 pd clock;
#X obj 81 166 tgl 19 1 \$0-low-stuTgl-s \$0-low-stuTgl-r empty 17 7 0 10 #7f007f #fcfcfc #000000 0 1;
#X obj 81 306 tgl 19 1 \$0-low-delTgl-s \$0-low-delTgl-r empty 17 7 0 10 #7f007f #fcfcfc #000000 0 1;
#N canvas 131 165 450 300 cpu 0;
#X obj 99 150 cputime;
#X obj 99 30 loadbang;
#X obj 99 94 metro 1000;
#X obj 99 122 t b b;
#X obj 99 210 * 0.1;
#X obj 99 179 int;
#X text 76 279 CPU load in percent;
#X text 122 60 <= on/off;
#X obj 99 61 tgl 15 0 empty empty empty 17 7 0 10 #fcfcfc #000000 #000000 0 1;
#X obj 99 231 s \$0-cpu;
#X connect 0 0 5 0;
#X connect 1 0 8 0;
#X connect 2 0 3 0;
#X connect 3 0 0 0;
#X connect 3 1 0 1;
#X connect 4 0 9 0;
#X connect 5 0 4 0;
#X connect 8 0 2 0;
#X restore 921 207 pd cpu;
#X obj 81 386 nbx 3 19 1 128 0 1 \$0-low-delTime-s \$0-low-delTime-r time 0 -8 0 12 #7f007f #fcfcfc #000000 12 256;
#X obj 81 206 nbx 3 19 0 100 0 1 \$0-low-stuProb-s \$0-low-stuProb-r prob 0 -8 0 12 #7f007f #fcfcfc #000000 100 256;
#X obj 272 543 tgl 19 1 \$0-bd-tgl-s \$0-bd-tgl-r bd 0 -8 0 12 #7f0000 #ffffff #000000 0 1;
#X obj 101 106 nbx 3 20 100 880 0 1 \$0-lowMid-freq-s \$0-lowMid-freq-r L/M 0 -8 0 12 #7f007f #fcfcfc #000000 100 256;
#X obj 161 106 nbx 4 20 880 8000 0 1 \$0-midHigh-freq-s \$0-midHigh-freq-r M/H 0 -8 0 12 #007f00 #fcfcfc #000000 3000 256;
#X obj 81 588 vsl 19 101 0 100 0 1 \$0-low-vol-s \$0-low-vol-r vol 0 -9 0 12 #7f007f #fcfcfc #000000 5118 1;
#X obj 81 536 bng 19 250 50 0 \$0-low-scratch-s \$0-low-scratch-r empty 17 7 0 10 #7f007f #fcfcfc #000000;
#X obj 41 536 bng 20 250 50 0 \$0-scratch-s \$0-scratch-r empty 17 7 0 10 #000000 #ff0400 #000000;
#X obj 85 733 tgl 20 1 \$0-s-freeze \$0-r-freeze empty 17 7 0 10 #dce4fc #000000 #000000 0 1;
#X text 37 735 FREEZE;
#N canvas 354 598 469 357 scales 0;
#X obj 252 299 text define -k \$0-notes;
#A set C \; Db \; D \; Eb \; E \; F \; Gb \; G \; Ab \; A \; Bb \; B \;;
#X obj 232 52 text get \$0-notes;
#X obj 12 184 array set \$0-scale;
#X obj 32 205 array define -k \$0-scale 7;
#A 0 0 2 3 5 7 8 10;
#X msg 112 148 0 2 4 5 7 9 11;
#X msg 12 148 0 2 3 5 7 8 10;
#X obj 232 217 pack s s;
#X obj 250 119 t b f;
#X obj 277 139 select 0 1;
#X obj 12 102 sel 0 1;
#X msg 277 165 m;
#X obj 277 191 symbol;
#X msg 305 165  ;
#X text 22 128 minor;
#X text 112 128 mayor;
#X text 12 61 GUI: Scale;
#X obj 12 81 r \$0-scale-s;
#X obj 232 31 r \$0-key-s;
#X obj 250 98 r \$0-scale-s;
#X text 250 78 GUI: Scale;
#X text 232 11 GUI: Key;
#X msg 232 243 label Key: \$1\$2;
#X obj 232 269 s \$0-key-r;
#X connect 1 0 6 0;
#X connect 4 0 2 0;
#X connect 5 0 2 0;
#X connect 6 0 21 0;
#X connect 7 0 6 0;
#X connect 7 1 8 0;
#X connect 8 0 10 0;
#X connect 8 1 12 0;
#X connect 9 0 5 0;
#X connect 9 1 4 0;
#X connect 10 0 11 0;
#X connect 11 0 6 1;
#X connect 12 0 11 0;
#X connect 16 0 9 0;
#X connect 17 0 1 0;
#X connect 18 0 7 0;
#X connect 21 0 22 0;
#X restore 921 166 pd scales;
#X obj 384 25 tgl 20 1 \$0-scale-s \$0-scale-r Scale 0 -8 0 12 #000000 #ffffff #000000 0 1;
#X obj 324 25 nbx 4 20 0 12 0 1 \$0-key-s \$0-key-r Key: Dbm 0 -8 0 12 #000000 #ffffff #000000 1 256;
#X obj 81 456 tgl 19 1 \$0-low-reverseTgl-s \$0-low-reverseTgl-r empty 17 7 0 10 #7f007f #fcfcfc #000000 0 1;
#X obj 81 246 nbx 3 19 1 64 0 1 \$0-low-stuRate-s \$0-low-stuRate-r rate 0 -8 0 12 #7f007f #fcfcfc #000000 4 256;
#N canvas 411 357 1069 356 mixxx 0;
#X obj 12 277 *~;
#X obj 12 303 throw~ \$0-left;
#X obj 143 277 *~;
#X obj 143 303 throw~ \$0-right;
#N canvas 299 349 603 411 crossover-st~ 0;
#X obj 12 153 else/crossover~ 300;
#X obj 133 179 else/crossover~ 3000;
#X msg 183 56 \$1 100;
#X obj 183 77 line~;
#X msg 430 52 \$1 100;
#X obj 430 73 line~;
#X obj 322 153 else/crossover~ 300;
#X obj 443 179 else/crossover~ 3000;
#X obj 12 87 inlet~;
#X obj 322 87 inlet~;
#X obj 12 340 *~;
#X obj 72 340 *~;
#X obj 133 340 *~;
#X obj 193 340 *~;
#X obj 250 340 *~;
#X obj 310 341 *~;
#X obj 27 252 * 2;
#X obj 27 273 - 1;
#X obj 158 252 * 2;
#X obj 158 273 - 1;
#X obj 285 252 * 2;
#X obj 285 273 - 1;
#X obj 12 361 outlet~;
#X obj 72 361 outlet~;
#X obj 133 361 outlet~;
#X obj 193 361 outlet~;
#X obj 250 361 outlet~;
#X obj 310 362 outlet~;
#X obj 183 35 r \$0-lowMid-freq-s;
#X obj 430 31 r \$0-midHigh-freq-s;
#X text 27 211 GUI: Low Phase;
#X text 158 211 GUI: Mid Phase;
#X text 285 211 GUI: High Phase;
#X text 183 15 GUI: Low Mid Freq;
#X text 430 11 GUI: Mid High Freq;
#X text 12 67 Inlet 1: Left;
#X text 322 67 Inlet 2: Right;
#X obj 27 231 r \$0-low-phaseTgl-s;
#X obj 158 231 r \$0-mid-phaseTgl-s;
#X obj 285 231 r \$0-high-phaseTgl-s;
#X msg 27 294 \$1 20;
#X obj 27 315 line~;
#X msg 158 294 \$1 20;
#X obj 158 315 line~;
#X msg 285 294 \$1 20;
#X obj 285 315 line~;
#X connect 0 0 10 0;
#X connect 0 1 1 0;
#X connect 1 0 12 0;
#X connect 1 1 14 0;
#X connect 2 0 3 0;
#X connect 3 0 0 1;
#X connect 3 0 6 1;
#X connect 4 0 5 0;
#X connect 5 0 1 1;
#X connect 5 0 7 1;
#X connect 6 0 11 1;
#X connect 6 1 7 0;
#X connect 7 0 13 1;
#X connect 7 1 15 1;
#X connect 8 0 0 0;
#X connect 9 0 6 0;
#X connect 10 0 22 0;
#X connect 11 0 23 0;
#X connect 12 0 24 0;
#X connect 13 0 25 0;
#X connect 14 0 26 0;
#X connect 15 0 27 0;
#X connect 16 0 17 0;
#X connect 17 0 40 0;
#X connect 18 0 19 0;
#X connect 19 0 42 0;
#X connect 20 0 21 0;
#X connect 21 0 44 0;
#X connect 28 0 2 0;
#X connect 29 0 4 0;
#X connect 37 0 16 0;
#X connect 38 0 18 0;
#X connect 39 0 20 0;
#X connect 40 0 41 0;
#X connect 41 0 10 1;
#X connect 41 0 11 0;
#X connect 42 0 43 0;
#X connect 43 0 12 1;
#X connect 43 0 13 0;
#X connect 44 0 45 0;
#X connect 45 0 14 1;
#X connect 45 0 15 0;
#X restore 332 50 pd crossover-st~;
#X obj 352 24 adc~ 1 2;
#X obj 322 277 *~;
#X obj 322 303 throw~ \$0-left;
#X obj 453 277 *~;
#X obj 453 303 throw~ \$0-right;
#X obj 632 277 *~;
#X obj 808 138 / 100;
#X obj 808 159 pow 2;
#X msg 808 240 \$1 100;
#X obj 808 261 line~;
#X obj 632 303 throw~ \$0-left;
#X obj 763 277 *~;
#X obj 763 303 throw~ \$0-right;
#X obj 12 188 abs/delay-abs~ \$0 low;
#X obj 12 214 abs/reverse~ \$0 low;
#X obj 12 162 abs/stutter-abs~ \$0 low;
#X obj 12 136 abs/scratch~ \$0 low;
#X obj 808 117 r \$0-high-vol-s;
#X obj 322 136 abs/scratch~ \$0 mid;
#X obj 322 162 abs/stutter-abs~ \$0 mid;
#X obj 322 188 abs/delay-abs~ \$0 mid;
#X obj 322 214 abs/reverse~ \$0 mid;
#X obj 632 136 abs/scratch~ \$0 high;
#X obj 632 162 abs/stutter-abs~ \$0 high;
#X obj 632 188 abs/delay-abs~ \$0 high;
#X obj 632 214 abs/reverse~ \$0 high;
#X obj 808 180 * 2;
#X obj 848 169 / 100;
#X obj 848 190 t b f;
#X obj 848 148 r \$0-mix-vol-s;
#X obj 808 216 *;
#X obj 488 138 / 100;
#X obj 488 159 pow 2;
#X msg 488 240 \$1 100;
#X obj 488 261 line~;
#X obj 488 180 * 2;
#X obj 528 169 / 100;
#X obj 528 190 t b f;
#X obj 528 148 r \$0-mix-vol-s;
#X obj 488 216 *;
#X obj 178 138 / 100;
#X obj 178 159 pow 2;
#X msg 178 240 \$1 100;
#X obj 178 261 line~;
#X obj 178 180 * 2;
#X obj 218 169 / 100;
#X obj 218 190 t b f;
#X obj 218 148 r \$0-mix-vol-s;
#X obj 178 216 *;
#X obj 178 117 r \$0-low-vol-s;
#X obj 488 117 r \$0-mid-vol-s;
#X obj 12 240 abs/reverb-abs~ \$0 low;
#X obj 322 240 abs/reverb-abs~ \$0 mid;
#X obj 632 240 abs/reverb-abs~ \$0 high;
#X obj 322 106 abs/drive-st~ \$0 mid;
#X obj 12 106 abs/drive-st~ \$0 low;
#X obj 632 106 abs/drive-st~ \$0 high;
#X connect 0 0 1 0;
#X connect 2 0 3 0;
#X connect 4 0 60 0;
#X connect 4 1 60 1;
#X connect 4 2 59 0;
#X connect 4 3 59 1;
#X connect 4 4 61 0;
#X connect 4 5 61 1;
#X connect 5 0 4 0;
#X connect 5 1 4 1;
#X connect 6 0 7 0;
#X connect 8 0 9 0;
#X connect 10 0 15 0;
#X connect 11 0 12 0;
#X connect 12 0 31 0;
#X connect 13 0 14 0;
#X connect 14 0 16 1;
#X connect 14 0 10 1;
#X connect 16 0 17 0;
#X connect 18 0 19 0;
#X connect 18 1 19 1;
#X connect 19 0 56 0;
#X connect 19 1 56 1;
#X connect 20 0 18 0;
#X connect 20 1 18 1;
#X connect 21 0 20 0;
#X connect 21 1 20 1;
#X connect 22 0 11 0;
#X connect 23 0 24 0;
#X connect 23 1 24 1;
#X connect 24 0 25 0;
#X connect 24 1 25 1;
#X connect 25 0 26 0;
#X connect 25 1 26 1;
#X connect 26 0 57 0;
#X connect 26 1 57 1;
#X connect 27 0 28 0;
#X connect 27 1 28 1;
#X connect 28 0 29 0;
#X connect 28 1 29 1;
#X connect 29 0 30 0;
#X connect 29 1 30 1;
#X connect 30 0 58 0;
#X connect 30 1 58 1;
#X connect 31 0 35 0;
#X connect 32 0 33 0;
#X connect 33 0 35 0;
#X connect 33 1 35 1;
#X connect 34 0 32 0;
#X connect 35 0 13 0;
#X connect 36 0 37 0;
#X connect 37 0 40 0;
#X connect 38 0 39 0;
#X connect 39 0 8 1;
#X connect 39 0 6 1;
#X connect 40 0 44 0;
#X connect 41 0 42 0;
#X connect 42 0 44 0;
#X connect 42 1 44 1;
#X connect 43 0 41 0;
#X connect 44 0 38 0;
#X connect 45 0 46 0;
#X connect 46 0 49 0;
#X connect 47 0 48 0;
#X connect 48 0 2 1;
#X connect 48 0 0 1;
#X connect 49 0 53 0;
#X connect 50 0 51 0;
#X connect 51 0 53 0;
#X connect 51 1 53 1;
#X connect 52 0 50 0;
#X connect 53 0 47 0;
#X connect 54 0 45 0;
#X connect 55 0 36 0;
#X connect 56 0 0 0;
#X connect 56 1 2 0;
#X connect 57 0 6 0;
#X connect 57 1 8 0;
#X connect 58 0 10 0;
#X connect 58 1 16 0;
#X connect 59 0 23 0;
#X connect 59 1 23 1;
#X connect 60 0 21 0;
#X connect 60 1 21 1;
#X connect 61 0 27 0;
#X connect 61 1 27 1;
#X restore 921 256 pd mixxx;
#N canvas 51 58 1534 936 master-ouput 0;
#X obj 151 363 catch~ \$0-left;
#X obj 222 788 else/drive~;
#X obj 222 809 hip~ 3;
#X obj 222 851 dac~ 1;
#X obj 322 788 else/drive~;
#X obj 322 809 hip~ 3;
#X obj 251 363 catch~ \$0-right;
#X obj 322 851 dac~ 2;
#X obj 578 519 else/plate.rev~;
#X msg 900 455 size \$1;
#X obj 851 532 s \$0-set;
#X obj 667 468 r \$0-set;
#X obj 1117 308 sel 0;
#X obj 1166 361 v \$0-quarter;
#X obj 1164 447 vline~;
#X msg 1088 425 0;
#X obj 1163 468 *~;
#X obj 1165 558 +~ 1;
#X msg 1164 426 0 \, 1 \$1 \, 0 1 \$1;
#X obj 1117 329 t b b;
#X obj 1088 404 delay;
#X obj 1163 489 *~;
#X obj 839 367 loadbang;
#X obj 1089 258 r \$0-s-freeze;
#X obj 1088 446 t f f;
#X obj 1109 473 * 0.9;
#X obj 1109 494 + 0.1;
#X obj 1166 382 * 2;
#X obj 965 265 r \$0-s-rev-size;
#X obj 970 469 loadbang;
#X msg 966 497 wet 1;
#X msg 835 421 damp 0.1;
#X obj 587 411 catch~ \$0-reverb;
#X msg 926 360 1 \$1;
#X obj 926 381 -;
#X obj 926 402 *;
#X obj 963 334 t f f;
#X obj 926 423 +;
#X obj 201 564 *~;
#X obj 301 564 *~;
#X obj 285 402 loadbang;
#X msg 285 423 1;
#X obj 285 444 -~;
#X msg 1109 515 \$1 1;
#X obj 1109 536 line~;
#X obj 646 666 *~;
#X obj 748 666 *~;
#X obj 201 585 +~;
#X obj 301 585 +~;
#X obj 965 286 / 100;
#X obj 443 722 catch~ \$0-mono;
#X obj 204 627 *~;
#X obj 306 632 *~;
#X obj 427 489 r~ \$0-duck;
#X obj 985 414 t b f;
#X obj 392 562 -~;
#X obj 587 432 /~ 1;
#X obj 578 540 *~;
#X obj 668 540 *~;
#X obj 744 403 / 100;
#X obj 744 424 pow 2;
#X msg 744 445 \$1 100;
#X obj 744 466 line~;
#X obj 744 487 lop~ 10;
#X obj 744 382 r \$0-s-rev-vol;
#X obj 392 459 loadbang;
#X msg 392 480 1;
#X obj 222 766 *~ 0.5;
#X obj 322 766 *~ 0.5;
#X obj 515 431 loadbang;
#X msg 515 452 predelay 0;
#X msg 527 795 open ./jam.wav \, start;
#X msg 591 748 stop;
#X obj 527 816 writesf~ 2;
#X obj 322 830 *~ 0.5;
#X obj 222 830 *~ 0.5;
#X connect 0 0 38 0;
#X connect 1 0 2 0;
#X connect 2 0 75 0;
#X connect 4 0 5 0;
#X connect 5 0 74 0;
#X connect 6 0 39 0;
#X connect 8 0 57 0;
#X connect 8 1 58 0;
#X connect 9 0 10 0;
#X connect 11 0 8 0;
#X connect 12 0 19 0;
#X connect 12 1 24 0;
#X connect 12 1 61 0;
#X connect 13 0 27 0;
#X connect 14 0 16 0;
#X connect 14 0 16 1;
#X connect 15 0 24 0;
#X connect 16 0 21 0;
#X connect 16 0 21 1;
#X connect 17 0 46 1;
#X connect 17 0 45 1;
#X connect 18 0 14 0;
#X connect 19 0 20 0;
#X connect 19 1 13 0;
#X connect 20 0 15 0;
#X connect 20 0 59 0;
#X connect 21 0 17 0;
#X connect 22 0 31 0;
#X connect 23 0 12 0;
#X connect 24 0 54 0;
#X connect 24 1 25 0;
#X connect 25 0 26 0;
#X connect 26 0 43 0;
#X connect 27 0 18 0;
#X connect 27 0 20 1;
#X connect 28 0 49 0;
#X connect 29 0 30 0;
#X connect 30 0 10 0;
#X connect 31 0 10 0;
#X connect 32 0 56 0;
#X connect 33 0 34 0;
#X connect 34 0 35 0;
#X connect 35 0 37 0;
#X connect 36 0 33 0;
#X connect 36 1 37 1;
#X connect 37 0 9 0;
#X connect 38 0 47 0;
#X connect 39 0 48 0;
#X connect 40 0 41 0;
#X connect 41 0 42 0;
#X connect 42 0 39 1;
#X connect 42 0 38 1;
#X connect 43 0 44 0;
#X connect 44 0 46 1;
#X connect 44 0 45 1;
#X connect 44 0 42 1;
#X connect 45 0 47 1;
#X connect 46 0 48 1;
#X connect 47 0 51 0;
#X connect 48 0 52 0;
#X connect 49 0 36 0;
#X connect 50 0 68 0;
#X connect 50 0 67 0;
#X connect 51 0 67 0;
#X connect 52 0 68 0;
#X connect 53 0 55 1;
#X connect 54 0 35 0;
#X connect 54 1 35 1;
#X connect 55 0 52 1;
#X connect 55 0 51 1;
#X connect 56 0 8 0;
#X connect 57 0 45 0;
#X connect 58 0 46 0;
#X connect 59 0 60 0;
#X connect 60 0 61 0;
#X connect 61 0 62 0;
#X connect 62 0 63 0;
#X connect 63 0 58 1;
#X connect 63 0 57 1;
#X connect 64 0 59 0;
#X connect 65 0 66 0;
#X connect 66 0 55 0;
#X connect 67 0 1 0;
#X connect 68 0 4 0;
#X connect 69 0 70 0;
#X connect 70 0 8 0;
#X connect 71 0 73 0;
#X connect 72 0 73 0;
#X connect 74 0 7 0;
#X connect 74 0 73 1;
#X connect 75 0 3 0;
#X connect 75 0 73 0;
#X restore 921 476 pd master-ouput;
#X obj 106 588 vsl 19 101 0 100 0 1 \$0-low-rev-s \$0-low-rev-r rev 0 -9 0 12 #7f007f #fcfcfc #000000 0 1;
#X obj 81 426 nbx 3 19 0 100 0 1 \$0-low-delFbk-s \$0-low-delFbk-r fbk 0 -8 0 12 #7f007f #fcfcfc #000000 0 256;
#X obj 118 733 hsl 101 20 0 100 0 1 \$0-s-rev-size \$0-r-rev-size REV-SIZE -2 -8 0 12 #dce4fc #000000 #000000 8400 1;
#X obj 271 176 nbx 3 19 1 16 0 1 \$0-bd-div-s \$0-bd-div-r div 0 -8 0 12 #7f0000 #ffffff #000000 1 256;
#X obj 271 216 nbx 3 19 0 32 0 1 \$0-bd-offset-s \$0-bd-offset-r offset 0 -8 0 12 #7f0000 #ffffff #000000 0 256;
#X obj 271 256 nbx 3 19 0 32 0 1 \$0-bd-hits-s \$0-bd-hits-r hits 0 -8 0 12 #7f0000 #ffffff #000000 4 256;
#X obj 271 296 nbx 3 19 1 32 0 1 \$0-bd-length-s \$0-bd-length-r length 0 -8 0 12 #7f0000 #ffffff #000000 16 256;
#X obj 271 136 nbx 3 19 0 16 0 1 \$0-bd-cof-s \$0-bd-cof-r cof 0 -8 0 12 #7f0000 #ffffff #000000 0 256;
#X obj 81 346 nbx 3 19 0 100 0 1 \$0-low-delLevel-s \$0-low-delLevel-r level 0 -8 0 12 #7f007f #fcfcfc #000000 0 256;
#X obj 271 588 vsl 19 101 0 100 0 1 \$0-bd-vol-s \$0-bd-vol-r vol 0 -9 0 12 #7f0000 #ffffff #000000 9400 1;
#X obj 118 773 hsl 101 20 0 100 0 1 \$0-s-rev-vol \$0-r-rev-vol REV-VOL -2 -8 0 12 #dce4fc #000000 #000000 8900 1;
#X obj 81 136 tgl 19 1 \$0-low-phaseTgl-s \$0-low-phaseTgl-r empty 17 7 0 10 #7f007f #ffffff #000000 0 1;
#X obj 81 27 nbx 3 19 0 1e+37 0 0 empty \$0-cpu CPU 0 -8 0 14 #000000 #ffffff #000000 0 256;
#X obj 81 276 tgl 19 1 \$0-low-stuRnd-s \$0-low-stuRnd-r rnd 22 10 0 12 #7f007f #fcfcfc #000000 0 1;
#X obj 11 136 cnv 19 60 19 empty empty Phase 4 10 0 12 #000000 #ffffff 0;
#X obj 11 166 cnv 19 60 19 empty empty Stutter 4 10 0 12 #000000 #ffffff 0;
#X obj 11 306 cnv 19 60 19 empty empty Delay 4 10 0 12 #000000 #ffffff 0;
#X obj 11 456 cnv 19 60 19 empty empty Reverse 4 10 0 12 #000000 #ffffff 0;
#X obj 81 56 cnv 19 60 19 empty empty Mixxx 4 10 0 12 #000000 #ffffff 0;
#X obj 141 166 tgl 19 1 \$0-mid-stuTgl-s \$0-mid-stuTgl-r empty 17 7 0 10 #7f007f #fcfcfc #000000 0 1;
#X obj 141 306 tgl 19 1 \$0-mid-delTgl-s \$0-mid-delTgl-r empty 17 7 0 10 #7f007f #fcfcfc #000000 1 1;
#X obj 141 386 nbx 3 19 1 128 0 1 \$0-mid-delTime-s \$0-mid-delTime-r time 0 -8 0 12 #7f007f #fcfcfc #000000 4 256;
#X obj 141 206 nbx 3 19 0 100 0 1 \$0-mid-stuProb-s \$0-mid-stuProb-r prob 0 -8 0 12 #7f007f #fcfcfc #000000 100 256;
#X obj 141 588 vsl 19 101 0 100 0 1 \$0-mid-vol-s \$0-mid-vol-r vol 0 -9 0 12 #7f007f #fcfcfc #000000 6299 1;
#X obj 141 536 bng 19 250 50 0 \$0-mid-scratch-s \$0-mid-scratch-r empty 17 7 0 10 #7f007f #fcfcfc #000000;
#X obj 141 456 tgl 19 1 \$0-mid-reverseTgl-s \$0-mid-reverseTgl-r empty 17 7 0 10 #7f007f #fcfcfc #000000 0 1;
#X obj 141 246 nbx 3 19 1 64 0 1 \$0-mid-stuRate-s \$0-mid-stuRate-r rate 0 -8 0 12 #7f007f #fcfcfc #000000 4 256;
#X obj 166 588 vsl 19 101 0 100 0 1 \$0-mid-rev-s \$0-mid-rev-r rev 0 -9 0 12 #7f007f #fcfcfc #000000 0 1;
#X obj 141 426 nbx 3 19 0 100 0 1 \$0-mid-delFbk-s \$0-mid-delFbk-r fbk 0 -8 0 12 #7f007f #fcfcfc #000000 80 256;
#X obj 141 136 tgl 19 1 \$0-mid-phaseTgl-s \$0-mid-phaseTgl-r empty 17 7 0 10 #7f007f #ffffff #000000 1 1;
#X obj 141 276 tgl 19 1 \$0-mid-stuRnd-s \$0-mid-stuRnd-r rnd 22 10 0 12 #7f007f #fcfcfc #000000 0 1;
#X obj 201 166 tgl 19 1 \$0-high-stuTgl-s \$0-high-stuTgl-r empty 17 7 0 10 #7f007f #fcfcfc #000000 0 1;
#X obj 201 306 tgl 19 1 \$0-high-delTgl-s \$0-high-delTgl-r empty 17 7 0 10 #7f007f #fcfcfc #000000 0 1;
#X obj 201 386 nbx 3 19 1 128 0 1 \$0-high-delTime-s \$0-high-delTime-r time 0 -8 0 12 #7f007f #fcfcfc #000000 6 256;
#X obj 201 206 nbx 3 19 0 100 0 1 \$0-high-stuProb-s \$0-high-stuProb-r prob 0 -8 0 12 #7f007f #fcfcfc #000000 100 256;
#X obj 201 588 vsl 19 101 0 100 0 1 \$0-high-vol-s \$0-high-vol-r vol 0 -9 0 12 #7f007f #fcfcfc #000000 6142 1;
#X obj 201 536 bng 19 250 50 0 \$0-high-scratch-s \$0-high-scratch-r empty 17 7 0 10 #7f007f #fcfcfc #000000;
#X obj 201 456 tgl 19 1 \$0-high-reverseTgl-s \$0-high-reverseTgl-r empty 17 7 0 10 #7f007f #fcfcfc #000000 0 1;
#X obj 201 246 nbx 3 19 1 64 0 1 \$0-high-stuRate-s \$0-high-stuRate-r rate 0 -8 0 12 #7f007f #fcfcfc #000000 25 256;
#X obj 226 588 vsl 19 101 0 100 0 1 \$0-high-rev-s \$0-high-rev-r rev 0 -9 0 12 #7f007f #fcfcfc #000000 0 1;
#X obj 201 426 nbx 3 19 0 100 0 1 \$0-high-delFbk-s \$0-high-delFbk-r fbk 0 -8 0 12 #7f007f #fcfcfc #000000 80 256;
#X obj 201 136 tgl 19 1 \$0-high-phaseTgl-s \$0-high-phaseTgl-r empty 17 7 0 10 #7f007f #ffffff #000000 0 1;
#X obj 201 276 tgl 19 1 \$0-high-stuRnd-s \$0-high-stuRnd-r rnd 22 10 0 12 #7f007f #fcfcfc #000000 0 1;
#N canvas 467 533 667 297 scratch 0;
#X obj 245 72 r \$0-scratch-s;
#X obj 265 103 s \$0-low-scratch-r;
#X obj 265 124 s \$0-mid-scratch-r;
#X obj 265 145 s \$0-high-scratch-r;
#X connect 0 0 1 0;
#X connect 0 0 2 0;
#X connect 0 0 3 0;
#X restore 921 187 pd scratch;
#X obj 204 25 nbx 3 20 30 300 0 1 \$0-bpm-s \$0-bpm-r BPM 0 -8 0 12 #000000 #ffffff #000000 137 256;
#X obj 254 25 nbx 4 20 0 100 0 1 \$0-decimals-s \$0-decimals-r Decimals 0 -8 0 12 #000000 #ffffff #000000 0 256;
#X obj 141 346 nbx 3 19 0 100 0 1 \$0-mid-delLevel-s \$0-mid-delLevel-r level 0 -8 0 12 #7f007f #fcfcfc #000000 86 256;
#X obj 201 346 nbx 3 19 0 100 0 1 \$0-high-delLevel-s \$0-high-delLevel-r level 0 -8 0 12 #7f007f #fcfcfc #000000 98 256;
#X obj 581 256 nbx 3 19 0 100 0 1 \$0-synth-mutation-s \$0-synth-mutation-r mutation 0 -8 0 12 #000000 #ffffff #000000 93 256;
#X obj 581 456 hradio 19 1 1 2 \$0-synth-type-s \$0-synth-type-r Type: Sub 0 -8 0 12 #000000 #ffffff #000000 1;
#X obj 581 336 nbx 3 19 1 6 0 1 \$0-synth-range-s \$0-synth-range-r range 0 -8 0 12 #000000 #ffffff #000000 2 256;
#X obj 581 376 nbx 3 19 1 6 0 1 \$0-synth-octave-s \$0-synth-octave-r octave 0 -8 0 12 #000000 #ffffff #000000 4 256;
#X obj 581 296 nbx 3 19 0 100 0 1 \$0-synth-density-s \$0-synth-density-r density 0 -8 0 12 #000000 #ffffff #000000 100 256;
#X obj 581 216 nbx 3 19 0 16 0 1 \$0-synth-length-s \$0-synth-length-r length 0 -8 0 12 #000000 #ffffff #000000 8 256;
#X obj 581 176 nbx 3 19 1 16 0 1 \$0-synth-div-s \$0-synth-div-r div 0 -8 0 12 #000000 #ffffff #000000 1 256;
#X obj 581 136 nbx 3 19 0 16 0 1 \$0-synth-offset-s \$0-synth-offset-r offset 0 -8 0 12 #000000 #ffffff #000000 4 256;
#N canvas 766 22 1154 1036 synth 0;
#X obj 19 -19 r \$0-clock;
#X obj 18 189 change -1;
#X obj 45 147 r \$0-synth-div-s;
#X obj 18 168 div 1;
#X obj 18 256 % 16;
#X obj 39 235 r \$0-synth-length-s;
#X obj 18 277 t f f;
#X obj 162 293 t b f;
#X obj 60 319 random 100;
#X obj 75 360 r \$0-synth-mutation-s;
#X obj 60 444 tabwrite \$0-synthPitch;
#X obj 60 381 <;
#X obj 60 402 sel 1;
#X obj 60 423 random 7;
#X obj 215 360 r \$0-synth-range-s;
#X obj 215 381 * 7;
#X obj 215 402 + 1;
#X text 75 340 GUI: Synth Mutation;
#X text 215 340 GUI: Synth Range;
#X obj 45 483 tabread \$0-synthPitch;
#X obj 45 511 +;
#X obj 213 453 r \$0-synth-octave-s;
#X obj 213 474 * 7;
#X obj 213 495 + 1;
#X text 213 433 GUI: Synth Octave;
#X obj 122 851 makenote 127 50;
#X obj 287 679 r \$0-synth-div-s;
#X obj 287 700 t b f;
#X obj 287 743 value \$0-quarter;
#X obj 287 764 / 16;
#X obj 299 785 *;
#X text 45 127 GUI: Synth Div;
#X text 39 215 GUI: Synth Length;
#X text 287 659 GUI: Synth Div;
#X obj 462 293 t b f;
#X obj 340 319 random 100;
#X obj 355 360 r \$0-synth-mutation-s;
#X obj 340 381 <;
#X obj 340 402 sel 1;
#X text 355 340 GUI: Synth Mutation;
#X obj 340 423 random 100;
#X obj 366 444 tabwrite \$0-synthGate;
#X obj 18 457 t f f;
#X text 32 697 GUI: Synth Density;
#X obj 33 717 r \$0-synth-density-s;
#X obj 18 677 tabread \$0-synthGate;
#X obj 18 738 <;
#X obj 18 759 select 1;
#X obj 297 722 r \$0-quarter;
#X obj 45 533 t f f;
#X obj 45 554 % 7;
#X obj 45 575 tabread \$0-scale;
#X obj 45 596 +;
#X obj 45 617 +;
#X obj 157 549 div 7;
#X obj 157 580 * 12;
#X obj 200 601 r \$0-key-s;
#X text 33 67 GUI: Synth Div;
#X obj 33 87 r \$0-synth-offset-s;
#X obj 18 108 +;
#X obj 122 882 pack f f;
#X obj 122 903 s \$0-synthNote;
#X obj 492 524 r \$0-synthNote;
#X obj 642 293 t b f;
#X obj 520 319 random 100;
#X obj 535 360 r \$0-synth-mutation-s;
#X obj 520 381 <;
#X obj 520 402 sel 1;
#X text 535 340 GUI: Synth Mutation;
#X obj 263 172 array define -k \$0-synthPitch;
#A resize 100;
#A 0 8 5 3 11 0 14 8 4 6 7 5 0 3 7 7 3 0 0 0 0 0 0 0 0 0 0 0 0 0 0 0 0 0 0 0 0 0 0 0 0 0 0 0 0 0 0 0 0 0 0 0 0 0 0 0 0 0 0 0 0 0 0 0 0 0 0 0 0 0 0 0 0 0 0 0 0 0 0 0 0 0 0 0 0 0 0 0 0 0 0 0 0 0 0 0 0 0 0 0 0;
#X obj 263 192 array define -k \$0-synthGate;
#A resize 100;
#A 0 84 1 97 48 2 97 3 87 77 99 22 18 29 58 34 29 0 0 0 0 0 0 0 0 0 0 0 0 0 0 0 0 0 0 0 0 0 0 0 0 0 0 0 0 0 0 0 0 0 0 0 0 0 0 0 0 0 0 0 0 0 0 0 0 0 0 0 0 0 0 0 0 0 0 0 0 0 0 0 0 0 0 0 0 0 0 0 0 0 0 0 0 0 0 0 0 0 0 0 0;
#X obj 492 545 unpack f f;
#X obj 66 811 spigot;
#X obj 546 470 tabwrite \$0-synthVelocity;
#X obj 520 423 random 127;
#X obj 520 444 + 1;
#X obj 263 212 array define -k \$0-synthVelocity;
#A resize 100;
#A 0 6 3 101 29 114 16 60 115 68 106 46 94 76 6 126 23 0 0 0 0 0 0 0 0 0 0 0 0 0 0 0 0 0 0 0 0 0 0 0 0 0 0 0 0 0 0 0 0 0 0 0 0 0 0 0 0 0 0 0 0 0 0 0 0 0 0 0 0 0 0 0 0 0 0 0 0 0 0 0 0 0 0 0 0 0 0 0 0 0 0 0 0 0 0 0 0 0 0 0 0;
#X obj 87 651 tabread \$0-synthVelocity;
#X obj 30 785 pack f f f;
#X obj 99 773 r \$0-synth-tgl-s;
#X text 98 753 GUI: Synth Toggle;
#X msg 66 832 \$2 \$3;
#X obj 462 909 *~;
#X obj 562 909 *~;
#X obj 627 809 / 100;
#X obj 627 830 pow 2;
#X msg 627 872 \$1 100;
#X obj 627 893 line~;
#X obj 627 851 * 2;
#X obj 627 788 r \$0-synth-vol-s;
#X obj 571 582 r \$0-synth-type-s;
#X obj 492 608 list prepend;
#X obj 492 629 route 0 1;
#X obj 263 142 text define -k \$0-typeLabel;
#A set FM \; Sub \;;
#X obj 494 88 r \$0-synth-type-s;
#X obj 494 109 text get \$0-typeLabel;
#X msg 494 130 label Type: \$1;
#X obj 494 151 s \$0-synth-type-r;
#X obj 813 598 osc~;
#X obj 813 634 *~;
#X obj 862 608 line~;
#X obj 862 545 / 100;
#X msg 862 587 \$1 20;
#X obj 862 566 * 0.5;
#X obj 862 523 r \$0-synth-vibrato-s;
#X text 862 504 GUI: Synth Vibrato;
#X obj 813 493 / 100;
#X obj 813 471 r \$0-synth-rate-s;
#X text 813 452 GUI: Synth Rate;
#X obj 813 514 * 11;
#X obj 813 535 - 4;
#X msg 813 556 2 \$1;
#X obj 813 577 pow;
#X obj 452 691 *~ 0.167;
#X obj 434 749 abs/stutter-abs~ \$0 synth;
#X obj 434 775 abs/delay-abs~ \$0 synth;
#X obj 434 801 abs/reverse~ \$0 synth;
#X obj 434 827 abs/reverb-abs~ \$0 synth;
#X obj 492 566 mono;
#X obj 492 587 pack f f;
#X text 571 562 GUI: Synth Type;
#X obj 452 659 abs/fmVoice~ 1 \$0;
#X obj 642 670 abs/subVoice~ 1 \$0;
#X obj 19 52 +;
#X obj 34 26 r \$0-offset-s;
#X text 34 6 GUI: clock offset;
#X obj 434 719 abs/drive-st~ \$0 synth;
#X obj 928 582 r \$0-synth-tune-s;
#X msg 928 623 \$1 20;
#X obj 928 644 line~;
#X obj 928 603 / 100;
#X text 927 563 GUI: Synth Tune;
#X obj 461 966 throw~ \$0-mono;
#X connect 0 0 123 0;
#X connect 1 0 4 0;
#X connect 2 0 3 1;
#X connect 3 0 1 0;
#X connect 4 0 6 0;
#X connect 5 0 4 1;
#X connect 6 0 42 0;
#X connect 6 1 7 0;
#X connect 6 1 34 0;
#X connect 6 1 63 0;
#X connect 7 0 8 0;
#X connect 7 1 10 1;
#X connect 8 0 11 0;
#X connect 9 0 11 1;
#X connect 11 0 12 0;
#X connect 12 0 13 0;
#X connect 13 0 10 0;
#X connect 14 0 15 0;
#X connect 15 0 16 0;
#X connect 16 0 13 1;
#X connect 19 0 20 0;
#X connect 20 0 49 0;
#X connect 21 0 22 0;
#X connect 22 0 23 0;
#X connect 23 0 20 1;
#X connect 25 0 60 0;
#X connect 25 1 60 1;
#X connect 26 0 27 0;
#X connect 27 0 28 0;
#X connect 27 1 30 1;
#X connect 28 0 29 0;
#X connect 29 0 30 0;
#X connect 30 0 25 2;
#X connect 34 0 35 0;
#X connect 34 1 41 1;
#X connect 35 0 37 0;
#X connect 36 0 37 1;
#X connect 37 0 38 0;
#X connect 38 0 40 0;
#X connect 40 0 41 0;
#X connect 42 0 45 0;
#X connect 42 1 19 0;
#X connect 42 1 77 0;
#X connect 44 0 46 1;
#X connect 45 0 46 0;
#X connect 46 0 47 0;
#X connect 47 0 78 0;
#X connect 48 0 29 0;
#X connect 49 0 50 0;
#X connect 49 1 54 0;
#X connect 50 0 51 0;
#X connect 51 0 52 0;
#X connect 52 0 53 0;
#X connect 53 0 78 1;
#X connect 54 0 55 0;
#X connect 55 0 52 1;
#X connect 56 0 53 1;
#X connect 58 0 59 1;
#X connect 59 0 3 0;
#X connect 60 0 61 0;
#X connect 62 0 71 0;
#X connect 63 0 64 0;
#X connect 63 1 73 1;
#X connect 64 0 66 0;
#X connect 65 0 66 1;
#X connect 66 0 67 0;
#X connect 67 0 74 0;
#X connect 71 0 118 0;
#X connect 71 1 118 1;
#X connect 72 0 81 0;
#X connect 74 0 75 0;
#X connect 75 0 73 0;
#X connect 77 0 78 2;
#X connect 78 0 72 0;
#X connect 79 0 72 1;
#X connect 81 0 25 0;
#X connect 82 0 132 0;
#X connect 84 0 85 0;
#X connect 85 0 88 0;
#X connect 86 0 87 0;
#X connect 87 0 83 1;
#X connect 87 0 82 1;
#X connect 88 0 86 0;
#X connect 89 0 84 0;
#X connect 90 0 91 1;
#X connect 91 0 92 0;
#X connect 92 0 121 0;
#X connect 92 1 122 0;
#X connect 94 0 95 0;
#X connect 95 0 96 0;
#X connect 96 0 97 0;
#X connect 98 0 99 0;
#X connect 99 0 121 1;
#X connect 99 0 122 1;
#X connect 100 0 99 1;
#X connect 101 0 103 0;
#X connect 102 0 100 0;
#X connect 103 0 102 0;
#X connect 104 0 101 0;
#X connect 106 0 109 0;
#X connect 107 0 106 0;
#X connect 109 0 110 0;
#X connect 110 0 111 0;
#X connect 111 0 112 0;
#X connect 112 0 98 0;
#X connect 113 0 126 0;
#X connect 113 0 126 1;
#X connect 114 0 115 0;
#X connect 114 1 115 1;
#X connect 115 0 116 0;
#X connect 115 1 116 1;
#X connect 116 0 117 0;
#X connect 116 1 117 1;
#X connect 117 0 82 0;
#X connect 117 1 83 0;
#X connect 118 0 119 0;
#X connect 118 1 119 1;
#X connect 119 0 91 0;
#X connect 121 0 113 0;
#X connect 122 0 113 0;
#X connect 123 0 59 0;
#X connect 124 0 123 1;
#X connect 126 0 114 0;
#X connect 126 1 114 1;
#X connect 127 0 130 0;
#X connect 128 0 129 0;
#X connect 129 0 122 1;
#X connect 129 0 121 1;
#X connect 130 0 128 0;
#X restore 921 377 pd synth;
#X obj 41 588 vsl 19 101 0 100 0 1 \$0-mix-vol-s \$0-mix-vol-r vol 0 -9 0 12 #7f007f #fcfcfc #000000 5600 1;
#X obj 256 56 cnv 5 5 600 empty empty empty 4 10 0 12 #000000 #ffffff 0;
#X obj 271 56 cnv 19 60 19 empty empty BD 4 10 0 12 #000000 #ffffff 0;
#X obj 461 26 bng 19 100 50 0 empty \$0-beat Beat 0 -8 0 12 #000000 #ffffff #000000;
#N canvas 720 165 1200 670 bass-drum 0;
#X obj 887 568 throw~ \$0-mono;
#X obj 397 248 + 24;
#X obj 397 269 sig~;
#X obj 627 305 mtof~;
#X obj 627 326 osc~;
#X obj 717 343 *~;
#X obj 884 134 value \$0-quarter;
#X obj 887 542 *~;
#X obj 446 602 s~ \$0-duck;
#X obj 941 442 r \$0-bd-vol-s;
#X msg 941 505 \$1 20;
#X obj 941 526 line~;
#X obj 941 463 / 100;
#X obj 941 484 pow 2;
#X obj 447 269 *~ 36;
#X obj 552 253 -;
#X obj 22 22 r \$0-clock;
#X obj 22 163 +;
#X text 37 117 GUI: BD clock offset;
#X obj 37 137 r \$0-bd-cof-s;
#X obj 22 203 div 1;
#X obj 57 177 r \$0-bd-div-s;
#X text 57 157 GUI: BD div;
#X obj 22 224 change -1;
#X obj 22 293 +;
#X obj 22 314 * 4;
#X text 207 257 GUI: BD clock offset;
#X obj 207 298 t f f;
#X obj 72 365 % 16;
#X obj 219 386 < 4;
#X obj 207 277 r \$0-bd-hits-s;
#X obj 93 339 r \$0-bd-length-s;
#X text 93 319 GUI: BD length;
#X text 37 247 GUI: BD offset;
#X obj 37 267 r \$0-bd-offset-s;
#X obj 249 433 spigot;
#X obj 219 407 select 1;
#X obj 282 392 r \$0-bd-tgl-s;
#X text 282 372 GUI: BD toggle;
#X obj 249 459 s \$0-bd-trg;
#X obj 397 180 r \$0-bd-trg;
#X obj 447 227 r \$0-bd-trg;
#X obj 884 113 r \$0-bd-trg;
#X obj 696 289 r \$0-bd-trg;
#X obj 397 201 value \$0-bd-key-s;
#X obj 552 211 pack f f;
#X msg 552 232 \$2 \$1;
#X obj 447 248 else/decay~ 150;
#X msg 697 310 0.25;
#X obj 867 327 line~;
#X obj 884 215 t b b f;
#X obj 898 259 delay 2;
#X msg 867 248 1 1;
#X obj 908 280 f;
#X msg 908 301 0 \$1;
#X obj 597 127 r \$0-bd-bend-s;
#X obj 597 190 + 12;
#X obj 552 55 r \$0-bd-trg;
#X obj 552 76 value \$0-bd-key-s;
#X obj 627 269 *~ 36;
#X obj 732 253 -;
#X obj 627 227 r \$0-bd-trg;
#X obj 732 211 pack f f;
#X msg 732 232 \$2 \$1;
#X obj 732 116 r \$0-bd-trg;
#X obj 732 137 value \$0-bd-key-s;
#X obj 627 248 else/decay~ 10;
#X obj 777 188 r \$0-bd-click-s;
#X text 597 107 GUI: BD Bend;
#X text 777 168 GUI: BD CLick;
#X text 1016 53 GUI: BD CLick;
#X obj 1016 73 r \$0-bd-decay-s;
#X obj 597 148 / 100;
#X obj 22 93 +;
#X obj 37 67 r \$0-offset-s;
#X text 37 47 GUI: clock offset;
#X obj 887 415 else/drive~;
#X obj 970 389 line~;
#X msg 970 368 \$1 100;
#X text 970 243 GUI: Drive;
#X obj 970 284 / 100;
#X obj 970 305 * 24;
#X obj 970 326 + 100;
#X obj 970 347 dbtorms;
#X obj 970 263 r \$0-bd-drive-s;
#X obj 884 155 * 4;
#X obj 884 176 *;
#X obj 1016 94 + 1;
#X obj 1016 115 / 101;
#X obj 1016 157 * 4;
#X obj 1016 136 pow 4;
#X obj 446 358 value \$0-quarter;
#X obj 446 337 r \$0-bd-trg;
#X msg 446 475 1 \, 0 \$1;
#X obj 446 496 line~;
#X text 481 384 GUI: BD CLick;
#X obj 446 522 lop~ 250;
#X obj 481 404 r \$0-duck-decay-s;
#X obj 446 379 * 4;
#X obj 446 420 /;
#X obj 446 543 sqrt~;
#X obj 446 564 *~;
#X text 578 426 GUI: BD CLick;
#X obj 578 446 r \$0-duck-s;
#X obj 578 467 / 100;
#X obj 578 488 pow 2;
#X msg 578 509 \$1 20;
#X obj 578 530 line~;
#X obj 597 169 * 48;
#X connect 1 0 2 0;
#X connect 2 0 3 0;
#X connect 3 0 4 0;
#X connect 4 0 5 0;
#X connect 5 0 76 0;
#X connect 6 0 85 0;
#X connect 7 0 0 0;
#X connect 9 0 12 0;
#X connect 10 0 11 0;
#X connect 11 0 7 1;
#X connect 12 0 13 0;
#X connect 13 0 10 0;
#X connect 14 0 3 0;
#X connect 15 0 14 1;
#X connect 16 0 73 0;
#X connect 17 0 20 0;
#X connect 19 0 17 1;
#X connect 20 0 23 0;
#X connect 21 0 20 1;
#X connect 23 0 24 0;
#X connect 24 0 25 0;
#X connect 25 0 28 0;
#X connect 27 0 25 1;
#X connect 27 1 29 1;
#X connect 28 0 29 0;
#X connect 29 0 36 0;
#X connect 30 0 27 0;
#X connect 31 0 28 1;
#X connect 34 0 24 1;
#X connect 35 0 39 0;
#X connect 36 0 35 0;
#X connect 37 0 35 1;
#X connect 40 0 44 0;
#X connect 41 0 47 0;
#X connect 42 0 6 0;
#X connect 43 0 48 0;
#X connect 44 0 1 0;
#X connect 45 0 46 0;
#X connect 46 0 15 0;
#X connect 47 0 14 0;
#X connect 48 0 4 1;
#X connect 49 0 5 1;
#X connect 50 0 52 0;
#X connect 50 1 51 0;
#X connect 50 2 53 1;
#X connect 51 0 53 0;
#X connect 52 0 49 0;
#X connect 53 0 54 0;
#X connect 54 0 49 0;
#X connect 55 0 72 0;
#X connect 56 0 45 1;
#X connect 57 0 58 0;
#X connect 58 0 45 0;
#X connect 59 0 3 0;
#X connect 60 0 59 1;
#X connect 61 0 66 0;
#X connect 62 0 63 0;
#X connect 63 0 60 0;
#X connect 64 0 65 0;
#X connect 65 0 62 0;
#X connect 66 0 59 0;
#X connect 67 0 62 1;
#X connect 71 0 87 0;
#X connect 72 0 108 0;
#X connect 73 0 17 0;
#X connect 74 0 73 1;
#X connect 76 0 7 0;
#X connect 77 0 76 1;
#X connect 78 0 77 0;
#X connect 80 0 81 0;
#X connect 81 0 82 0;
#X connect 82 0 83 0;
#X connect 83 0 78 0;
#X connect 84 0 80 0;
#X connect 85 0 86 0;
#X connect 86 0 50 0;
#X connect 87 0 88 0;
#X connect 88 0 90 0;
#X connect 89 0 86 1;
#X connect 90 0 89 0;
#X connect 91 0 98 0;
#X connect 92 0 91 0;
#X connect 93 0 94 0;
#X connect 94 0 96 0;
#X connect 96 0 100 0;
#X connect 97 0 99 1;
#X connect 98 0 99 0;
#X connect 99 0 93 0;
#X connect 100 0 101 0;
#X connect 101 0 8 0;
#X connect 103 0 104 0;
#X connect 104 0 105 0;
#X connect 105 0 106 0;
#X connect 106 0 107 0;
#X connect 107 0 101 1;
#X connect 108 0 56 0;
#X restore 921 317 pd bass-drum;
#X obj 271 336 nbx 3 19 0 12 0 1 \$0-bd-key-s \$0-bd-key-r key 0 -8 0 12 #7f0000 #ffffff #000000 2 256;
#X obj 271 96 bng 19 100 50 0 empty \$0-bd-trg BD 0 -8 0 12 #000000 #ffffff #000000;
#X obj 271 376 nbx 3 19 0 100 0 1 \$0-bd-bend-s \$0-bd-bend-r bend 0 -8 0 12 #7f0000 #ffffff #000000 57 256;
#X obj 271 416 nbx 3 19 0 100 0 1 \$0-bd-click-s \$0-bd-click-r click 0 -8 0 12 #7f0000 #ffffff #000000 0 256;
#X obj 271 456 nbx 3 19 0 100 0 1 \$0-bd-decay-s \$0-bd-decay-r decay 0 -8 0 12 #7f0000 #ffffff #000000 46 256;
#X obj 362 543 tgl 19 1 \$0-hh-tgl-s \$0-hh-tgl-r hh 0 -8 0 12 #7f0000 #ffffff #000000 0 1;
#X obj 361 176 nbx 3 19 1 16 0 1 \$0-hh-div-s \$0-hh-div-r div 0 -8 0 12 #7f0000 #ffffff #000000 1 256;
#X obj 361 216 nbx 3 19 0 32 0 1 \$0-hh-offset-s \$0-hh-offset-r offset 0 -8 0 12 #7f0000 #ffffff #000000 2 256;
#X obj 361 256 nbx 3 19 0 32 0 1 \$0-hh-hits-s \$0-hh-hits-r hits 0 -8 0 12 #7f0000 #ffffff #000000 4 256;
#X obj 361 296 nbx 3 19 1 32 0 1 \$0-hh-length-s \$0-hh-length-r length 0 -8 0 12 #7f0000 #ffffff #000000 16 256;
#X obj 361 136 nbx 3 19 0 16 0 1 \$0-hh-cof-s \$0-hh-cof-r cof 0 -8 0 12 #7f0000 #ffffff #000000 0 256;
#X obj 361 588 vsl 19 101 0 100 0 1 \$0-hh-vol-s \$0-hh-vol-r vol 0 -9 0 12 #7f0000 #ffffff #000000 5300 1;
#X obj 361 56 cnv 19 60 19 empty empty HH 4 10 0 12 #000000 #ffffff 0;
#X obj 346 56 cnv 5 5 600 empty empty empty 4 10 0 12 #000000 #ffffff 0;
#X obj 361 96 bng 19 100 50 0 empty \$0-hh-trg HH 0 -8 0 12 #000000 #ffffff #000000;
#X obj 361 376 nbx 3 19 0 100 0 1 \$0-hh-cutoff-s \$0-hh-cutoff-r cutoff 0 -8 0 12 #7f0000 #ffffff #000000 100 256;
#X obj 361 416 nbx 3 19 0 100 0 1 \$0-hh-attack-s \$0-hh-attack-r attack 0 -8 0 12 #7f0000 #ffffff #000000 0 256;
#X obj 361 456 nbx 3 19 0 100 0 1 \$0-hh-decay-s \$0-hh-decay-r decay 0 -8 0 12 #7f0000 #ffffff #000000 54 256;
#N canvas 208 279 1297 570 hihat 0;
#X obj 717 343 *~;
#X obj 717 462 *~;
#X obj 771 362 r \$0-hh-vol-s;
#X msg 771 425 \$1 20;
#X obj 771 446 line~;
#X obj 771 383 / 100;
#X obj 771 404 pow 2;
#X obj 22 22 r \$0-clock;
#X obj 22 173 +;
#X text 37 127 GUI: hh clock offset;
#X obj 37 147 r \$0-hh-cof-s;
#X obj 22 213 div 1;
#X obj 57 187 r \$0-hh-div-s;
#X text 57 167 GUI: hh div;
#X obj 22 234 change -1;
#X obj 22 303 +;
#X obj 22 324 * 4;
#X text 207 267 GUI: hh clock offset;
#X obj 207 308 t f f;
#X obj 72 375 % 16;
#X obj 219 396 < 4;
#X obj 207 287 r \$0-hh-hits-s;
#X obj 93 349 r \$0-hh-length-s;
#X text 93 329 GUI: hh length;
#X text 37 257 GUI: hh offset;
#X obj 37 277 r \$0-hh-offset-s;
#X obj 249 443 spigot;
#X obj 219 417 select 1;
#X obj 282 402 r \$0-hh-tgl-s;
#X text 282 382 GUI: hh toggle;
#X obj 249 469 s \$0-hh-trg;
#X obj 865 229 r \$0-hh-trg;
#X obj 593 229 noise~;
#X obj 865 290 f;
#X obj 1015 142 r \$0-hh-attack-s;
#X obj 1015 163 / 100;
#X obj 1015 184 t b f;
#X obj 955 205 v \$0-quarter;
#X obj 955 256 / 16;
#X obj 965 225 r \$0-quarter;
#X obj 1027 277 *;
#X text 1015 122 GUI: hh attack;
#X obj 1172 144 / 100;
#X obj 1172 165 t b f;
#X obj 1112 186 v \$0-quarter;
#X obj 1122 206 r \$0-quarter;
#X obj 1184 258 *;
#X obj 1172 123 r \$0-hh-decay-s;
#X text 1172 103 GUI: hh decay;
#X obj 1005 311 pack f f;
#X msg 1005 332 1 \$1 \, 0 \$2 \$1;
#X obj 1005 353 vline~;
#X obj 700 152 r \$0-hh-cutoff-s;
#X obj 700 173 / 100;
#X obj 700 194 * 15;
#X obj 700 215 + 108;
#X obj 700 236 mtof;
#X msg 700 257 \$1 20;
#X obj 700 278 line~;
#X obj 1005 374 *~;
#X obj 593 315 else/highpass~ 4000 1.4;
#X obj 593 249 else/power~ 3;
#X obj 729 36 sig~ 1;
#X obj 729 57 -~;
#X obj 671 106 pow~;
#X obj 673 69 sig~ 10;
#X obj 729 78 *~ 2;
#X obj 1112 237 * 1;
#X obj 22 93 +;
#X obj 37 67 r \$0-offset-s;
#X text 37 47 GUI: clock offset;
#X obj 263 75 loadbang;
#X msg 263 96 800 813 442 518 540 334;
#X obj 263 117 unpack f f f f f f;
#X obj 263 138 phasor~;
#X obj 323 138 phasor~;
#X obj 383 138 phasor~;
#X obj 443 138 phasor~;
#X obj 503 138 phasor~;
#X obj 563 138 phasor~;
#X obj 263 201 clip~ -1 1;
#X obj 263 180 *~ 16;
#X obj 379 184 r \$0-hh-osc-s;
#X obj 379 205 / 100;
#X obj 379 247 line~;
#X msg 379 226 \$1 20;
#X obj 539 293 *~;
#X obj 478 230 loadbang;
#X msg 478 251 1;
#X obj 478 272 -~;
#X obj 263 222 *~;
#X obj 263 159 hip~ 4000;
#X obj 717 488 throw~ \$0-mono;
#X obj 717 364 *~ 2;
#X connect 0 0 93 0;
#X connect 1 0 92 0;
#X connect 2 0 5 0;
#X connect 3 0 4 0;
#X connect 4 0 1 1;
#X connect 5 0 6 0;
#X connect 6 0 3 0;
#X connect 7 0 68 0;
#X connect 8 0 11 0;
#X connect 10 0 8 1;
#X connect 11 0 14 0;
#X connect 12 0 11 1;
#X connect 14 0 15 0;
#X connect 15 0 16 0;
#X connect 16 0 19 0;
#X connect 18 0 16 1;
#X connect 18 1 20 1;
#X connect 19 0 20 0;
#X connect 20 0 27 0;
#X connect 21 0 18 0;
#X connect 22 0 19 1;
#X connect 25 0 15 1;
#X connect 26 0 30 0;
#X connect 27 0 26 0;
#X connect 28 0 26 1;
#X connect 31 0 33 0;
#X connect 32 0 61 0;
#X connect 33 0 49 0;
#X connect 34 0 35 0;
#X connect 35 0 36 0;
#X connect 36 0 37 0;
#X connect 36 1 40 1;
#X connect 37 0 38 0;
#X connect 38 0 40 0;
#X connect 39 0 38 0;
#X connect 40 0 33 1;
#X connect 42 0 43 0;
#X connect 43 0 44 0;
#X connect 43 1 46 1;
#X connect 44 0 67 0;
#X connect 45 0 67 0;
#X connect 46 0 49 1;
#X connect 47 0 42 0;
#X connect 49 0 50 0;
#X connect 50 0 51 0;
#X connect 51 0 59 0;
#X connect 51 0 59 1;
#X connect 51 0 63 1;
#X connect 52 0 53 0;
#X connect 53 0 54 0;
#X connect 54 0 55 0;
#X connect 55 0 56 0;
#X connect 56 0 57 0;
#X connect 57 0 58 0;
#X connect 58 0 60 1;
#X connect 59 0 0 1;
#X connect 60 0 0 0;
#X connect 61 0 86 1;
#X connect 62 0 63 0;
#X connect 63 0 66 0;
#X connect 64 0 61 1;
#X connect 65 0 64 0;
#X connect 66 0 64 1;
#X connect 67 0 46 0;
#X connect 68 0 8 0;
#X connect 69 0 68 1;
#X connect 71 0 72 0;
#X connect 72 0 73 0;
#X connect 73 0 74 0;
#X connect 73 1 75 0;
#X connect 73 2 76 0;
#X connect 73 3 77 0;
#X connect 73 4 78 0;
#X connect 73 5 79 0;
#X connect 74 0 91 0;
#X connect 75 0 91 0;
#X connect 76 0 91 0;
#X connect 77 0 91 0;
#X connect 78 0 91 0;
#X connect 79 0 91 0;
#X connect 80 0 90 0;
#X connect 81 0 80 0;
#X connect 82 0 83 0;
#X connect 83 0 85 0;
#X connect 84 0 89 1;
#X connect 84 0 90 1;
#X connect 85 0 84 0;
#X connect 86 0 60 0;
#X connect 87 0 88 0;
#X connect 88 0 89 0;
#X connect 89 0 86 0;
#X connect 90 0 60 0;
#X connect 91 0 81 0;
#X connect 93 0 1 0;
#X restore 921 337 pd hihat;
#X obj 432 543 tgl 19 1 \$0-sd-tgl-s \$0-sd-tgl-r sd 0 -8 0 12 #7f0000 #ffffff #000000 0 1;
#X obj 431 176 nbx 3 19 1 16 0 1 \$0-sd-div-s \$0-sd-div-r div 0 -8 0 12 #7f0000 #ffffff #000000 1 256;
#X obj 431 216 nbx 3 19 0 32 0 1 \$0-sd-offset-s \$0-sd-offset-r offset 0 -8 0 12 #7f0000 #ffffff #000000 0 256;
#X obj 431 256 nbx 3 19 0 32 0 1 \$0-sd-hits-s \$0-sd-hits-r hits 0 -8 0 12 #7f0000 #ffffff #000000 2 256;
#X obj 431 296 nbx 3 19 1 32 0 1 \$0-sd-length-s \$0-sd-length-r length 0 -8 0 12 #7f0000 #ffffff #000000 16 256;
#X obj 431 136 nbx 3 19 0 16 0 1 \$0-sd-cof-s \$0-sd-cof-r cof 0 -8 0 12 #7f0000 #ffffff #000000 0 256;
#X obj 431 588 vsl 19 101 0 100 0 1 \$0-sd-vol-s \$0-sd-vol-r vol 0 -9 0 12 #7f0000 #ffffff #000000 4800 1;
#X obj 431 56 cnv 19 60 19 empty empty sd 4 10 0 12 #000000 #ffffff 0;
#X obj 416 56 cnv 5 5 600 empty empty empty 4 10 0 12 #000000 #ffffff 0;
#X obj 431 96 bng 19 100 50 0 empty \$0-sd-trg sd 0 -8 0 12 #000000 #ffffff #000000;
#X obj 431 416 nbx 3 19 0 100 0 1 \$0-sd-cutoff-s \$0-sd-cutoff-r cutoff 0 -8 0 12 #7f0000 #ffffff #000000 0 256;
#X obj 431 456 nbx 3 19 0 100 0 1 \$0-sd-snap-s \$0-sd-snap-r snap 0 -8 0 12 #7f0000 #ffffff #000000 100 256;
#N canvas 27 253 1191 622 snare-drum 0;
#X obj 562 523 throw~ \$0-mono;
#X obj 562 310 *~;
#X obj 562 497 *~;
#X obj 616 397 r \$0-sd-vol-s;
#X msg 616 460 \$1 20;
#X obj 616 481 line~;
#X obj 616 418 / 100;
#X obj 616 439 pow 2;
#X obj 22 2 r \$0-clock;
#X obj 22 153 +;
#X text 37 107 GUI: sd clock offset;
#X obj 37 127 r \$0-sd-cof-s;
#X obj 22 193 div 1;
#X obj 57 167 r \$0-sd-div-s;
#X text 57 147 GUI: sd div;
#X obj 22 214 change -1;
#X obj 22 283 +;
#X obj 22 304 * 4;
#X text 207 247 GUI: sd clock offset;
#X obj 207 288 t f f;
#X obj 72 355 % 16;
#X obj 219 376 < 4;
#X obj 207 267 r \$0-sd-hits-s;
#X obj 93 329 r \$0-sd-length-s;
#X text 93 309 GUI: sd length;
#X text 37 237 GUI: sd offset;
#X obj 37 257 r \$0-sd-offset-s;
#X obj 249 423 spigot;
#X obj 219 397 select 1;
#X obj 282 382 r \$0-sd-tgl-s;
#X text 282 362 GUI: sd toggle;
#X obj 249 449 s \$0-sd-trg;
#X obj 406 258 noise~;
#X obj 523 132 r \$0-sd-cutoff-s;
#X obj 523 153 / 100;
#X obj 523 174 * 15;
#X obj 523 216 mtof;
#X msg 523 237 \$1 20;
#X obj 523 258 line~;
#X obj 577 237 r \$0-sd-trg;
#X obj 700 195 / 100;
#X obj 700 216 * 3;
#X msg 700 237 10 \$1;
#X obj 700 258 pow;
#X obj 523 195 + 84;
#X obj 947 284 else/decay~;
#X obj 1010 174 / 100;
#X msg 1010 216 10 \$1;
#X obj 1010 237 pow;
#X obj 817 62 / 100;
#X obj 817 83 * 10;
#X obj 817 104 + 43;
#X obj 817 176 osc~;
#X obj 817 247 *~;
#X obj 817 41 r \$0-sd-tune-s;
#X obj 700 174 r \$0-sd-snap-s;
#X obj 1010 153 r \$0-sd-decay-s;
#X obj 874 84 r \$0-sd-trg;
#X obj 817 125 sig~;
#X obj 817 155 mtof~;
#X obj 577 284 else/decay2~ 10;
#X obj 406 284 else/highpass~ 4000 1;
#X obj 874 131 *~ 24;
#X obj 1010 195 * 2;
#X obj 1010 258 * 2;
#X obj 966 83 r \$0-sd-trg;
#X obj 966 130 *~ 12;
#X obj 966 108 else/decay~ 50;
#X obj 874 108 else/decay~ 20;
#X obj 577 258 else/rand.f 0.7 1;
#X obj 22 83 +;
#X obj 37 57 r \$0-offset-s;
#X text 37 37 GUI: clock offset;
#X obj 562 371 else/drive~;
#X obj 1056 355 line~;
#X msg 1056 334 \$1 100;
#X text 1056 209 GUI: Drive;
#X obj 1056 250 / 100;
#X obj 1056 271 * 24;
#X obj 1056 292 + 100;
#X obj 1056 313 dbtorms;
#X obj 1056 229 r \$0-sd-drive-s;
#X connect 1 0 73 0;
#X connect 2 0 0 0;
#X connect 3 0 6 0;
#X connect 4 0 5 0;
#X connect 5 0 2 1;
#X connect 6 0 7 0;
#X connect 7 0 4 0;
#X connect 8 0 70 0;
#X connect 9 0 12 0;
#X connect 11 0 9 1;
#X connect 12 0 15 0;
#X connect 13 0 12 1;
#X connect 15 0 16 0;
#X connect 16 0 17 0;
#X connect 17 0 20 0;
#X connect 19 0 17 1;
#X connect 19 1 21 1;
#X connect 20 0 21 0;
#X connect 21 0 28 0;
#X connect 22 0 19 0;
#X connect 23 0 20 1;
#X connect 26 0 16 1;
#X connect 27 0 31 0;
#X connect 28 0 27 0;
#X connect 29 0 27 1;
#X connect 32 0 61 0;
#X connect 33 0 34 0;
#X connect 34 0 35 0;
#X connect 35 0 44 0;
#X connect 36 0 37 0;
#X connect 37 0 38 0;
#X connect 38 0 61 1;
#X connect 39 0 69 0;
#X connect 40 0 41 0;
#X connect 41 0 42 0;
#X connect 42 0 43 0;
#X connect 43 0 60 2;
#X connect 44 0 36 0;
#X connect 45 0 53 1;
#X connect 46 0 63 0;
#X connect 47 0 48 0;
#X connect 48 0 64 0;
#X connect 49 0 50 0;
#X connect 50 0 51 0;
#X connect 51 0 58 0;
#X connect 52 0 53 0;
#X connect 53 0 73 0;
#X connect 54 0 49 0;
#X connect 55 0 40 0;
#X connect 56 0 46 0;
#X connect 57 0 68 0;
#X connect 58 0 59 0;
#X connect 59 0 52 0;
#X connect 60 0 1 1;
#X connect 61 0 1 0;
#X connect 62 0 59 0;
#X connect 63 0 47 0;
#X connect 64 0 45 1;
#X connect 65 0 67 0;
#X connect 66 0 59 0;
#X connect 67 0 66 0;
#X connect 68 0 62 0;
#X connect 69 0 60 0;
#X connect 69 0 45 0;
#X connect 70 0 9 0;
#X connect 71 0 70 1;
#X connect 73 0 2 0;
#X connect 74 0 73 1;
#X connect 75 0 74 0;
#X connect 77 0 78 0;
#X connect 78 0 79 0;
#X connect 79 0 80 0;
#X connect 80 0 75 0;
#X connect 81 0 77 0;
#X restore 921 357 pd snare-drum;
#X obj 431 336 nbx 3 19 0 100 0 1 \$0-sd-tune-s \$0-sd-tune-r tune 0 -8 0 12 #7f0000 #ffffff #000000 100 256;
#X obj 431 376 nbx 3 19 0 100 0 1 \$0-sd-decay-s \$0-sd-decay-r decay 0 -8 0 12 #7f0000 #ffffff #000000 68 256;
#X obj 501 25 nbx 3 20 0 400 0 1 \$0-swing-s \$0-swing-r swing 0 -8 0 12 #000000 #ffffff #000000 0 256;
#X obj 581 56 cnv 19 60 19 empty empty synth 4 10 0 12 #000000 #ffffff 0;
#X obj 566 56 cnv 5 5 600 empty empty empty 4 10 0 12 #000000 #ffffff 0;
#X obj 641 136 nbx 3 19 0 100 0 1 \$0-synth-cutoff-s \$0-synth-cutoff-r cutoff 0 -8 0 12 #000000 #ffffff #000000 25.9843 256;
#X obj 641 176 nbx 3 19 0 100 0 1 \$0-synth-res-s \$0-synth-res-r res 0 -8 0 12 #000000 #ffffff #000000 0 256;
#X obj 641 216 nbx 3 19 0 100 0 1 \$0-synth-env-s \$0-synth-env-r env 0 -8 0 12 #000000 #ffffff #000000 0 256;
#X obj 641 256 nbx 3 19 0 100 0 1 \$0-synth-attack-s \$0-synth-attack-r attack 0 -8 0 12 #000000 #ffffff #000000 0 256;
#X obj 641 296 nbx 3 19 0 100 0 1 \$0-synth-decay-s \$0-synth-decay-r decay 0 -8 0 12 #000000 #ffffff #000000 100 256;
#X obj 582 543 tgl 19 1 \$0-synth-tgl-s \$0-synth-tgl-r synth 0 -8 0 12 #000000 #ffffff #000000 1 1;
#X obj 581 588 vsl 19 101 0 100 0 1 \$0-synth-vol-s \$0-synth-vol-r vol 0 -9 0 12 #000000 #ffffff #000000 4700 1;
#X obj 606 588 vsl 19 101 0 100 0 1 \$0-synth-rev-s \$0-synth-rev-r rev 0 -9 0 12 #000000 #fcfcfc #000000 1900 1;
#X obj 641 336 nbx 3 19 0 100 0 1 \$0-synth-vel-s \$0-synth-vel-r vel 0 -8 0 12 #000000 #ffffff #000000 0 256;
#X obj 641 376 nbx 3 19 0 100 0 1 \$0-synth-rate-s \$0-synth-rate-r rate 0 -8 0 12 #000000 #ffffff #000000 0 256;
#X obj 641 416 nbx 3 19 0 100 0 1 \$0-synth-vibrato-s \$0-synth-vibrato-r vibrato 0 -8 0 12 #000000 #ffffff #000000 0 256;
#X obj 701 166 tgl 19 1 \$0-synth-stuTgl-s \$0-synth-stuTgl-r empty 17 7 0 10 #000000 #ffffff #000000 0 1;
#X obj 701 306 tgl 19 1 \$0-synth-delTgl-s \$0-synth-delTgl-r empty 17 7 0 10 #000000 #ffffff #000000 0 1;
#X obj 701 386 nbx 3 19 1 128 0 1 \$0-synth-delTime-s \$0-synth-delTime-r time 0 -8 0 12 #000000 #ffffff #000000 4 256;
#X obj 701 206 nbx 3 19 0 100 0 1 \$0-synth-stuProb-s \$0-synth-stuProb-r prob 0 -8 0 12 #000000 #ffffff #000000 71 256;
#X obj 701 456 tgl 19 1 \$0-synth-reverseTgl-s \$0-synth-reverseTgl-r empty 17 7 0 10 #000000 #ffffff #000000 0 1;
#X obj 701 246 nbx 3 19 1 64 0 1 \$0-synth-stuRate-s \$0-synth-stuRate-r rate 0 -8 0 12 #000000 #ffffff #000000 4 256;
#X obj 701 426 nbx 3 19 0 100 0 1 \$0-synth-delFbk-s \$0-synth-delFbk-r fbk 0 -8 0 12 #000000 #ffffff #000000 70 256;
#X obj 701 276 tgl 19 1 \$0-synth-stuRnd-s \$0-synth-stuRnd-r rnd 22 10 0 12 #000000 #ffffff #000000 0 1;
#X obj 701 346 nbx 3 19 0 100 0 1 \$0-synth-delLevel-s \$0-synth-delLevel-r level 0 -8 0 12 #000000 #ffffff #000000 70 256;
#X obj 144 25 nbx 3 20 0 999 0 1 \$0-clockDelay-s \$0-clockDelay-r Delay 0 -8 0 12 #000000 #ffffff #000000 72 256;
#X text 921 126 Clock and misc;
#X text 921 236 Mixxx audio return;
#X text 921 276 Generative instruments;
#X text 921 456 Output and reverb;
#X obj 551 25 nbx 3 20 0 400 0 1 \$0-offset-s \$0-offset-r offset 0 -8 0 12 #000000 #ffffff #000000 6 256;
#X obj 581 96 nbx 3 19 -99 100 0 1 \$0-synth-tune-s \$0-synth-tune-r tune 0 -8 0 12 #000000 #ffffff #000000 0 256;
#X obj 11 496 cnv 19 60 19 empty empty Drive 4 10 0 12 #000000 #ffffff 0;
#X obj 81 496 nbx 3 19 0 100 0 1 \$0-low-drive-s \$0-low-drive-r drive 0 -8 0 12 #7f007f #fcfcfc #000000 50 256;
#X obj 141 496 nbx 3 19 0 100 0 1 \$0-mid-drive-s \$0-mid-drive-r drive 0 -8 0 12 #7f007f #fcfcfc #000000 25 256;
#X obj 201 496 nbx 3 19 0 100 0 1 \$0-high-drive-s \$0-high-drive-r drive 0 -8 0 12 #7f007f #fcfcfc #000000 0 256;
#X obj 271 496 nbx 3 19 0 100 0 1 \$0-bd-drive-s \$0-bd-drive-r drive 0 -8 0 12 #7f0000 #ffffff #000000 15 256;
#X obj 361 336 nbx 3 19 0 100 0 1 \$0-hh-osc-s \$0-hh-osc-r osc 0 -8 0 12 #7f0000 #ffffff #000000 100 256;
#X obj 431 496 nbx 3 19 0 100 0 1 \$0-sd-drive-s \$0-sd-drive-r drive 0 -8 0 12 #7f0000 #ffffff #000000 20 256;
#X obj 581 496 nbx 3 19 0 100 0 1 \$0-synth-drive-s \$0-synth-drive-r drive 0 -8 0 12 #000000 #ffffff #000000 100 256;
#N canvas 987 97 802 799 MIDI 0;
#X obj 182 238 ctlin 83;
#X obj 182 300 s \$0-low-vol-r;
#X obj 182 259 / 127;
#X obj 182 280 * 100;
#X obj 292 259 / 127;
#X obj 292 280 * 100;
#X obj 402 259 / 127;
#X obj 402 280 * 100;
#X obj 292 300 s \$0-mid-vol-r;
#X obj 292 238 ctlin 85;
#X obj 402 238 ctlin 17;
#X obj 402 301 s \$0-high-vol-r;
#X obj 143 493 ctlin 109;
#X obj 143 514 / 127;
#X obj 143 535 s \$0-bd-tgl-r;
#X obj 233 488 / 127;
#X obj 233 535 s \$0-duck-r;
#X obj 233 467 ctlin 111;
#X obj 313 514 / 127;
#X obj 313 493 ctlin 113;
#X obj 403 514 / 127;
#X obj 403 493 ctlin 115;
#X obj 493 514 / 127;
#X obj 493 493 ctlin 117;
#X obj 313 535 s \$0-hh-tgl-r;
#X obj 403 535 s \$0-sd-tgl-r;
#X obj 75 633 / 127;
#X obj 75 612 ctlin 93;
#X obj 75 654 * 100;
#X obj 75 675 s \$0-synth-cutoff-r;
#X obj 205 633 / 127;
#X obj 205 654 * 100;
#X obj 335 633 / 127;
#X obj 335 654 * 100;
#X obj 465 633 / 127;
#X obj 465 654 * 100;
#X obj 205 612 ctlin 18;
#X obj 206 675 s \$0-synth-res-r;
#X obj 335 675 s \$0-synth-env-r;
#X obj 465 675 s \$0-synth-decay-r;
#X obj 335 612 ctlin 19;
#X obj 465 612 ctlin 16;
#X obj 233 509 * 100;
#X obj 613 514 / 127;
#X obj 613 493 ctlin 119;
#X obj 713 514 / 127;
#X obj 713 535 s \$0-fm-tgl-r;
#X obj 713 493 ctlin 121;
#X obj 613 535 s \$0-synth-tgl-r;
#X obj 493 535 s \$0-cp-tgl-r;
#X connect 0 0 2 0;
#X connect 2 0 3 0;
#X connect 3 0 1 0;
#X connect 4 0 5 0;
#X connect 5 0 8 0;
#X connect 6 0 7 0;
#X connect 7 0 11 0;
#X connect 9 0 4 0;
#X connect 10 0 6 0;
#X connect 12 0 13 0;
#X connect 13 0 14 0;
#X connect 15 0 42 0;
#X connect 17 0 15 0;
#X connect 18 0 24 0;
#X connect 19 0 18 0;
#X connect 20 0 25 0;
#X connect 21 0 20 0;
#X connect 22 0 49 0;
#X connect 23 0 22 0;
#X connect 26 0 28 0;
#X connect 27 0 26 0;
#X connect 28 0 29 0;
#X connect 30 0 31 0;
#X connect 31 0 37 0;
#X connect 32 0 33 0;
#X connect 33 0 38 0;
#X connect 34 0 35 0;
#X connect 35 0 39 0;
#X connect 36 0 30 0;
#X connect 40 0 32 0;
#X connect 41 0 34 0;
#X connect 42 0 16 0;
#X connect 43 0 48 0;
#X connect 44 0 43 0;
#X connect 45 0 46 0;
#X connect 47 0 45 0;
#X restore 921 95 pd MIDI;
#X obj 772 543 tgl 19 1 \$0-fm-tgl-s \$0-fm-tgl-r fm 0 -8 0 12 #7f0000 #ffffff #000000 0 1;
#X obj 771 176 nbx 3 19 1 16 0 1 \$0-fm-div-s \$0-fm-div-r div 0 -8 0 12 #7f0000 #ffffff #000000 1 256;
#X obj 771 136 nbx 3 19 0 16 0 1 \$0-fm-cof-s \$0-fm-cof-r cof 0 -8 0 12 #7f0000 #ffffff #000000 4 256;
#X obj 771 588 vsl 19 101 0 100 0 1 \$0-fm-vol-s \$0-fm-vol-r vol 0 -9 0 12 #7f0000 #ffffff #000000 6800 1;
#X obj 771 56 cnv 19 60 19 empty empty fm 4 10 0 12 #000000 #ffffff 0;
#X obj 756 56 cnv 5 5 600 empty empty empty 4 10 0 12 #000000 #ffffff 0;
#X obj 771 96 bng 19 100 50 0 empty \$0-fm-trg fm 0 -8 0 12 #000000 #ffffff #000000;
#X obj 771 296 nbx 3 19 0 100 0 1 \$0-fm-mutation-s \$0-fm-mutation-r mutation 0 -8 0 12 #7f0000 #ffffff #000000 0 256;
#X obj 771 336 nbx 3 19 1 6 0 1 \$0-fm-range-s \$0-fm-range-r range 0 -8 0 12 #7f0000 #ffffff #000000 3 256;
#N canvas 573 22 1347 1036 fm 0;
#X obj 19 -19 r \$0-clock;
#X obj 18 189 change -1;
#X obj 45 147 r \$0-fm-div-s;
#X obj 18 168 div 1;
#X obj 18 256 % 16;
#X obj 39 235 r \$0-fm-length-s;
#X obj 18 277 t f f;
#X obj 144 293 t b f;
#X obj 60 319 random 100;
#X obj 75 360 r \$0-fm-mutation-s;
#X obj 60 444 tabwrite \$0-fmPitch;
#X obj 60 381 <;
#X obj 60 402 sel 1;
#X obj 60 423 random 7;
#X obj 215 360 r \$0-fm-range-s;
#X obj 215 381 * 7;
#X obj 215 402 + 1;
#X text 75 340 GUI: fm Mutation;
#X text 215 340 GUI: fm Range;
#X obj 45 483 tabread \$0-fmPitch;
#X obj 45 511 +;
#X obj 213 453 r \$0-fm-octave-s;
#X obj 213 474 * 7;
#X obj 213 495 + 1;
#X text 213 433 GUI: fm Octave;
#X obj 287 679 r \$0-fm-div-s;
#X obj 287 700 t b f;
#X obj 287 743 value \$0-quarter;
#X obj 287 764 / 16;
#X obj 299 785 *;
#X text 45 127 GUI: fm Div;
#X text 39 215 GUI: fm Length;
#X text 287 659 GUI: fm Div;
#X obj 434 293 t b f;
#X obj 330 319 random 100;
#X obj 345 360 r \$0-fm-mutation-s;
#X obj 330 381 <;
#X obj 330 402 sel 1;
#X text 345 340 GUI: fm Mutation;
#X obj 330 423 random 100;
#X obj 356 444 tabwrite \$0-fmGate;
#X obj 18 457 t f f;
#X text 32 697 GUI: fm Density;
#X obj 33 717 r \$0-fm-density-s;
#X obj 18 677 tabread \$0-fmGate;
#X obj 18 738 <;
#X obj 18 759 select 1;
#X obj 297 722 r \$0-quarter;
#X obj 45 533 t f f;
#X obj 45 554 % 7;
#X obj 45 575 tabread \$0-scale;
#X obj 45 596 +;
#X obj 45 617 +;
#X obj 157 549 div 7;
#X obj 157 580 * 12;
#X obj 200 601 r \$0-key-s;
#X text 33 67 GUI: fm Div;
#X obj 18 108 +;
#X obj 122 882 pack f f;
#X obj 122 903 s \$0-fmNote;
#X obj 492 524 r \$0-fmNote;
#X obj 263 132 array define -k \$0-fmPitch;
#A resize 100;
#A 0 2 20 11 10 18 1 15 16 19 0 4 6 16 20 14 6 0 0 0 0 0 0 0 0 0 0 0 0 0 0 0 0 0 0 0 0 0 0 0 0 0 0 0 0 0 0 0 0 0 0 0 0 0 0 0 0 0 0 0 0 0 0 0 0 0 0 0 0 0 0 0 0 0 0 0 0 0 0 0 0 0 0 0 0 0 0 0 0 0 0 0 0 0 0 0 0 0 0 0 0;
#X obj 263 152 array define -k \$0-fmGate;
#A resize 100;
#A 0 28 43 87 23 51 63 58 97 86 33 44 26 3 31 91 72 0 0 0 0 0 0 0 0 0 0 0 0 0 0 0 0 0 0 0 0 0 0 0 0 0 0 0 0 0 0 0 0 0 0 0 0 0 0 0 0 0 0 0 0 0 0 0 0 0 0 0 0 0 0 0 0 0 0 0 0 0 0 0 0 0 0 0 0 0 0 0 0 0 0 0 0 0 0 0 0 0 0 0 0;
#X obj 492 545 unpack f f;
#X obj 66 811 spigot;
#X obj 99 773 r \$0-fm-tgl-s;
#X text 98 753 GUI: fm Toggle;
#X obj 551 969 *~;
#X obj 716 869 / 100;
#X obj 716 890 pow 2;
#X msg 716 932 \$1 100;
#X obj 716 953 line~;
#X obj 716 911 * 2;
#X obj 716 848 r \$0-fm-vol-s;
#X obj 546 909 abs/stutter-abs~ \$0 fm;
#X obj 546 935 abs/delay-abs~ \$0 fm;
#X obj 492 566 mono;
#X obj 19 52 +;
#X obj 34 26 r \$0-offset-s;
#X text 34 6 GUI: clock offset;
#X obj 492 587 sig~;
#X obj 492 638 mtof~;
#X obj 912 548 > 0;
#X obj 912 569 select 1;
#X obj 546 790 *~;
#X obj 263 172 array define -k \$0-fmType;
#A resize 100;
#A 0 0 0 1 1 0 1 1 0 0 0 0 1 1 1 1 0 0 0 0 0 0 0 0 0 0 0 0 0 0 0 0 0 0 0 0 0 0 0 0 0 0 0 0 0 0 0 0 0 0 0 0 0 0 0 0 0 0 0 0 0 0 0 0 0 0 0 0 0 0 0 0 0 0 0 0 0 0 0 0 0 0 0 0 0 0 0 0 0 0 0 0 0 0 0 0 0 0 0 0 0;
#X obj 594 293 t b f;
#X obj 490 319 random 100;
#X obj 505 360 r \$0-fm-mutation-s;
#X obj 490 381 <;
#X obj 490 402 sel 1;
#X text 505 340 GUI: fm Mutation;
#X obj 516 449 tabwrite \$0-fmType;
#X obj 265 521 tabread \$0-fmType;
#X obj 250 547 f;
#X obj 250 568 s \$0-fmType;
#X obj 635 543 r \$0-fmType;
#X obj 635 564 == 0;
#X obj 635 585 *~;
#X obj 754 293 t b f;
#X obj 650 319 random 100;
#X obj 665 360 r \$0-fm-mutation-s;
#X obj 650 381 <;
#X obj 650 402 sel 1;
#X text 665 340 GUI: fm Mutation;
#X obj 263 192 array define -k \$0-fmAmount;
#A resize 100;
#A 0 748 349 192 531 438 710 453 638 900 20 455 267 254 160 442 610 0 0 0 0 0 0 0 0 0 0 0 0 0 0 0 0 0 0 0 0 0 0 0 0 0 0 0 0 0 0 0 0 0 0 0 0 0 0 0 0 0 0 0 0 0 0 0 0 0 0 0 0 0 0 0 0 0 0 0 0 0 0 0 0 0 0 0 0 0 0 0 0 0 0 0 0 0 0 0 0 0 0 0 0;
#X obj 676 449 tabwrite \$0-fmAmount;
#X obj 327 614 f;
#X obj 327 635 s \$0-fmAmount;
#X obj 578 612 *~;
#X obj 573 503 r \$0-fmAmount;
#X obj 33 87 r \$0-fm-cof-s;
#X obj 30 785 f;
#X obj 122 851 makenote 127 50;
#X obj 342 588 tabread \$0-fmAmount;
#X obj 651 423 random 1001;
#X obj 573 524 / 1001;
#X obj 573 545 * 2;
#X obj 573 566 - 1;
#X obj 573 587 * 24;
#X obj 924 293 t b f;
#X obj 820 319 random 100;
#X obj 835 360 r \$0-fm-mutation-s;
#X obj 820 381 <;
#X obj 820 402 sel 1;
#X text 835 340 GUI: fm Mutation;
#X obj 846 469 tabwrite \$0-fmNote2;
#X obj 490 423 random 2;
#X obj 821 444 - 127;
#X obj 821 423 random 256;
#X obj 400 520 f;
#X obj 400 541 s \$0-fmNote2;
#X obj 415 494 tabread \$0-fmNote2;
#X obj 788 507 r \$0-fmNote2;
#X obj 263 212 array define -k \$0-fmNote2;
#A resize 100;
#A 0 6 83 59 4 3 -58 -2 116 36 63 -59 -77 -112 -127 87 -35 0 0 0 0 0 0 0 0 0 0 0 0 0 0 0 0 0 0 0 0 0 0 0 0 0 0 0 0 0 0 0 0 0 0 0 0 0 0 0 0 0 0 0 0 0 0 0 0 0 0 0 0 0 0 0 0 0 0 0 0 0 0 0 0 0 0 0 0 0 0 0 0 0 0 0 0 0 0 0 0 0 0 0 0;
#X obj 700 578 r \$0-fmType;
#X obj 700 620 *~;
#X obj 700 599 == 1;
#X obj 788 528 sig~;
#X obj 788 549 mtof~;
#X obj 493 668 phasor~;
#X obj 788 569 phasor~;
#X obj 788 590 cos~;
#X obj 493 689 wrap~;
#X obj 493 710 -~ 0.5;
#X obj 493 731 abs~;
#X obj 493 752 *~ 4;
#X obj 493 773 -~ 1;
#X obj 1114 293 t b f;
#X obj 1010 319 random 100;
#X obj 1025 360 r \$0-fm-mutation-s;
#X obj 1010 381 <;
#X obj 1010 402 sel 1;
#X text 1025 340 GUI: fm Mutation;
#X obj 1036 469 tabwrite \$0-fmDecay;
#X obj 912 590 v \$0-quarter;
#X obj 912 661 /;
#X obj 961 634 r \$0-fmDecay;
#X obj 263 232 array define -k \$0-fmDecay;
#A resize 100;
#A 0 19 20 6 27 27 7 10 27 18 24 4 22 12 21 1 2 0 0 0 0 0 0 0 0 0 0 0 0 0 0 0 0 0 0 0 0 0 0 0 0 0 0 0 0 0 0 0 0 0 0 0 0 0 0 0 0 0 0 0 0 0 0 0 0 0 0 0 0 0 0 0 0 0 0 0 0 0 0 0 0 0 0 0 0 0 0 0 0 0 0 0 0 0 0 0 0 0 0 0 0;
#X obj 304 865 f;
#X obj 319 839 tabread \$0-fmDecay;
#X obj 401 958 r \$0-fm-tgl-s;
#X text 400 938 GUI: fm Toggle;
#X obj 401 979 switch~;
#X obj 304 886 s \$0-fmDecay;
#X obj 1011 423 random 32;
#X msg 912 682 1 \, 0 \$1;
#X obj 912 703 line~;
#X obj 912 724 *~;
#X obj 1001 535 / 100;
#X msg 1001 577 2 \$1;
#X obj 1001 598 pow;
#X obj 912 631 *;
#X obj 1001 514 r \$0-fm-decay-s;
#X obj 1001 556 * 4;
#X obj 912 611 / 4;
#X obj 547 839 else/drive~;
#X obj 1041 803 line~;
#X msg 1041 782 \$1 100;
#X text 1041 657 GUI: Drive;
#X obj 1041 698 / 100;
#X obj 1041 719 * 24;
#X obj 1041 740 + 100;
#X obj 1041 761 dbtorms;
#X obj 1041 677 r \$0-fm-drive-s;
#X obj 684 83 t b f;
#X obj 580 109 random 100;
#X obj 595 150 r \$0-fm-mutation-s;
#X obj 580 171 <;
#X obj 580 192 sel 1;
#X text 595 130 GUI: fm Mutation;
#X obj 580 213 random 100;
#X obj 263 252 array define -k \$0-fmReverb;
#A resize 100;
#A 0 92 74 4 53 72 0 65 49 99 55 92 90 91 1 20 81 0 0 0 0 0 0 0 0 0 0 0 0 0 0 0 0 0 0 0 0 0 0 0 0 0 0 0 0 0 0 0 0 0 0 0 0 0 0 0 0 0 0 0 0 0 0 0 0 0 0 0 0 0 0 0 0 0 0 0 0 0 0 0 0 0 0 0 0 0 0 0 0 0 0 0 0 0 0 0 0 0 0 0 0;
#X obj 606 244 tabwrite \$0-fmReverb;
#X obj 840 825 tabread \$0-fmReverb;
#X obj 855 860 r \$0-fm-rev-s;
#X obj 840 886 <;
#N canvas 206 38 331 586 reverb 0;
#X obj 14 196 inlet~;
#X obj 104 512 outlet~;
#N canvas 564 382 298 270 allpass 0;
#X obj 12 72 inlet~;
#X obj 12 130 +~;
#X obj 27 108 *~;
#X obj 202 92 inlet;
#X obj 202 113 * -1;
#X obj 187 146 *~;
#X obj 172 167 +~;
#X obj 172 188 outlet~;
#X text 12 52 (I1) Input;
#X text 92 1 (I2) Time;
#X text 202 72 (I3) Gain;
#X text 172 208 (O1) Output;
#X obj 12 188 delwrite~ \$0-ap-1 50;
#X obj 92 42 delread4~ \$0-ap-1;
#X obj 92 21 inlet~;
#X obj 92 63 hip~ 100;
#X obj 92 85 lop~ 6000;
#X connect 0 0 1 0;
#X connect 1 0 5 0;
#X connect 1 0 12 0;
#X connect 2 0 1 1;
#X connect 3 0 2 1;
#X connect 3 0 4 0;
#X connect 4 0 5 1;
#X connect 5 0 6 1;
#X connect 6 0 7 0;
#X connect 13 0 15 0;
#X connect 14 0 13 0;
#X connect 15 0 16 0;
#X connect 16 0 2 0;
#X connect 16 0 6 0;
#X restore 104 258 pd allpass;
#X obj 132 190 unpack f f;
#X obj 132 148 loadbang;
#X obj 132 211 sig~;
#X obj 104 94 +~;
#X obj 124 482 delwrite~ \$0-spring-2 50;
#X obj 178 57 osc~ 0.36;
#X obj 202 190 osc~ 0.47;
#X msg 132 170 26.64 0.75;
#X obj 104 115 delread4~ \$0-spring-2;
#X obj 104 73 sig~ 43.14;
#N canvas 564 382 298 213 allpass 0;
#X obj 12 52 inlet~;
#X obj 12 110 +~;
#X obj 27 88 *~;
#X obj 202 72 inlet;
#X obj 202 93 * -1;
#X obj 187 126 *~;
#X obj 172 147 +~;
#X obj 172 168 outlet~;
#X text 12 32 (I1) Input;
#X text 92 -19 (I2) Time;
#X text 202 52 (I3) Gain;
#X text 172 188 (O1) Output;
#X obj 92 1 inlet~;
#X obj 92 43 hip~ 100;
#X obj 12 168 delwrite~ \$0-ap-2 50;
#X obj 92 22 delread4~ \$0-ap-2;
#X obj 92 65 lop~ 6000;
#X connect 0 0 1 0;
#X connect 1 0 5 0;
#X connect 1 0 14 0;
#X connect 2 0 1 1;
#X connect 3 0 2 1;
#X connect 3 0 4 0;
#X connect 4 0 5 1;
#X connect 5 0 6 1;
#X connect 6 0 7 0;
#X connect 12 0 15 0;
#X connect 13 0 16 0;
#X connect 15 0 13 0;
#X connect 16 0 2 0;
#X connect 16 0 6 0;
#X restore 104 394 pd allpass;
#X obj 132 326 unpack f f;
#X obj 132 284 loadbang;
#X obj 132 347 sig~;
#X msg 132 306 10.14 0.5;
#X obj 104 436 hip~ 100;
#X obj 104 415 lop~ 6000;
#X obj 212 352 *~ 0.2;
#X obj 178 78 *~ 0.3;
#X obj 202 211 *~ 0.3;
#X obj 212 331 osc~ 1.26;
#X obj 104 456 *~ 0.95;
#X obj 132 368 +~;
#X obj 132 232 +~;
#X obj 89 232 +~;
#X connect 0 0 27 0;
#X connect 2 0 13 0;
#X connect 3 0 5 0;
#X connect 3 1 2 2;
#X connect 4 0 10 0;
#X connect 5 0 26 0;
#X connect 6 0 11 0;
#X connect 8 0 21 0;
#X connect 9 0 22 0;
#X connect 10 0 3 0;
#X connect 11 0 27 1;
#X connect 12 0 6 0;
#X connect 13 0 19 0;
#X connect 14 0 16 0;
#X connect 14 1 13 2;
#X connect 15 0 17 0;
#X connect 16 0 25 0;
#X connect 17 0 14 0;
#X connect 18 0 24 0;
#X connect 19 0 18 0;
#X connect 20 0 25 1;
#X connect 21 0 6 1;
#X connect 22 0 26 1;
#X connect 23 0 20 0;
#X connect 24 0 1 0;
#X connect 24 0 7 0;
#X connect 25 0 13 1;
#X connect 26 0 2 1;
#X connect 27 0 2 0;
#X restore 817 947 pd reverb;
#X obj 799 919 *~;
#X obj 817 968 *~;
#X obj 840 907 * 0.5;
#X obj 551 995 throw~ \$0-mono;
#X obj 546 811 lop~ 1000;
#X obj 547 860 *~;
#X obj 995 829 * -24;
#X obj 995 871 + 100;
#X obj 995 892 dbtorms;
#X msg 995 914 \$1 100;
#X obj 995 934 line~;
#X obj 995 850 clip -18 0;
#X connect 0 0 77 0;
#X connect 1 0 4 0;
#X connect 2 0 3 1;
#X connect 3 0 1 0;
#X connect 4 0 6 0;
#X connect 5 0 4 1;
#X connect 6 0 41 0;
#X connect 6 1 7 0;
#X connect 6 1 33 0;
#X connect 6 1 86 0;
#X connect 6 1 99 0;
#X connect 6 1 120 0;
#X connect 6 1 148 0;
#X connect 6 1 185 0;
#X connect 7 0 8 0;
#X connect 7 1 10 1;
#X connect 8 0 11 0;
#X connect 9 0 11 1;
#X connect 11 0 12 0;
#X connect 12 0 13 0;
#X connect 13 0 10 0;
#X connect 14 0 15 0;
#X connect 15 0 16 0;
#X connect 16 0 13 1;
#X connect 19 0 20 0;
#X connect 20 0 48 0;
#X connect 21 0 22 0;
#X connect 22 0 23 0;
#X connect 23 0 20 1;
#X connect 25 0 26 0;
#X connect 26 0 27 0;
#X connect 26 1 29 1;
#X connect 27 0 28 0;
#X connect 28 0 29 0;
#X connect 29 0 113 2;
#X connect 33 0 34 0;
#X connect 33 1 40 1;
#X connect 34 0 36 0;
#X connect 35 0 36 1;
#X connect 36 0 37 0;
#X connect 37 0 39 0;
#X connect 39 0 40 0;
#X connect 41 0 44 0;
#X connect 41 1 19 0;
#X connect 41 1 93 0;
#X connect 41 1 114 0;
#X connect 41 1 132 0;
#X connect 41 1 160 0;
#X connect 41 1 194 0;
#X connect 43 0 45 1;
#X connect 44 0 45 0;
#X connect 45 0 46 0;
#X connect 46 0 94 0;
#X connect 46 0 107 0;
#X connect 46 0 112 0;
#X connect 46 0 130 0;
#X connect 46 0 159 0;
#X connect 47 0 28 0;
#X connect 48 0 49 0;
#X connect 48 1 53 0;
#X connect 49 0 50 0;
#X connect 50 0 51 0;
#X connect 51 0 52 0;
#X connect 52 0 112 1;
#X connect 53 0 54 0;
#X connect 54 0 51 1;
#X connect 55 0 52 1;
#X connect 57 0 3 0;
#X connect 58 0 59 0;
#X connect 60 0 63 0;
#X connect 63 0 76 0;
#X connect 63 1 76 1;
#X connect 64 0 113 0;
#X connect 65 0 64 1;
#X connect 67 0 201 0;
#X connect 68 0 69 0;
#X connect 69 0 72 0;
#X connect 70 0 71 0;
#X connect 71 0 67 1;
#X connect 72 0 70 0;
#X connect 73 0 68 0;
#X connect 74 0 75 0;
#X connect 74 1 75 1;
#X connect 75 0 67 0;
#X connect 76 0 80 0;
#X connect 76 1 82 0;
#X connect 77 0 57 0;
#X connect 78 0 77 1;
#X connect 80 0 81 0;
#X connect 81 0 140 0;
#X connect 82 0 83 0;
#X connect 83 0 155 0;
#X connect 84 0 198 0;
#X connect 84 0 202 0;
#X connect 86 0 87 0;
#X connect 86 1 92 1;
#X connect 87 0 89 0;
#X connect 88 0 89 1;
#X connect 89 0 90 0;
#X connect 90 0 127 0;
#X connect 93 0 94 1;
#X connect 94 0 95 0;
#X connect 96 0 97 0;
#X connect 97 0 98 0;
#X connect 98 0 109 1;
#X connect 99 0 100 0;
#X connect 99 1 106 1;
#X connect 100 0 102 0;
#X connect 101 0 102 1;
#X connect 102 0 103 0;
#X connect 103 0 115 0;
#X connect 107 0 108 0;
#X connect 109 0 81 0;
#X connect 110 0 116 0;
#X connect 111 0 57 1;
#X connect 112 0 64 0;
#X connect 113 0 58 0;
#X connect 113 1 58 1;
#X connect 114 0 107 1;
#X connect 115 0 106 0;
#X connect 116 0 117 0;
#X connect 117 0 118 0;
#X connect 118 0 119 0;
#X connect 119 0 109 0;
#X connect 120 0 121 0;
#X connect 120 1 126 1;
#X connect 121 0 123 0;
#X connect 122 0 123 1;
#X connect 123 0 124 0;
#X connect 124 0 129 0;
#X connect 127 0 92 0;
#X connect 128 0 126 0;
#X connect 129 0 128 0;
#X connect 130 0 131 0;
#X connect 132 0 130 1;
#X connect 133 0 138 0;
#X connect 135 0 137 0;
#X connect 136 0 143 0;
#X connect 137 0 136 0;
#X connect 138 0 139 0;
#X connect 139 0 141 0;
#X connect 140 0 143 0;
#X connect 141 0 142 0;
#X connect 142 0 136 1;
#X connect 143 0 144 0;
#X connect 144 0 145 0;
#X connect 145 0 146 0;
#X connect 146 0 147 0;
#X connect 147 0 84 0;
#X connect 148 0 149 0;
#X connect 148 1 154 1;
#X connect 149 0 151 0;
#X connect 150 0 151 1;
#X connect 151 0 152 0;
#X connect 152 0 165 0;
#X connect 155 0 175 0;
#X connect 156 0 166 0;
#X connect 157 0 156 1;
#X connect 159 0 164 0;
#X connect 160 0 159 1;
#X connect 161 0 163 0;
#X connect 165 0 154 0;
#X connect 166 0 167 0;
#X connect 167 0 168 0;
#X connect 167 0 168 1;
#X connect 168 0 98 1;
#X connect 168 0 84 1;
#X connect 169 0 174 0;
#X connect 170 0 171 0;
#X connect 171 0 172 1;
#X connect 172 0 156 0;
#X connect 173 0 169 0;
#X connect 174 0 170 0;
#X connect 175 0 172 0;
#X connect 176 0 203 0;
#X connect 177 0 176 1;
#X connect 178 0 177 0;
#X connect 180 0 181 0;
#X connect 180 0 204 0;
#X connect 181 0 182 0;
#X connect 182 0 183 0;
#X connect 183 0 178 0;
#X connect 184 0 180 0;
#X connect 185 0 186 0;
#X connect 185 1 193 1;
#X connect 186 0 188 0;
#X connect 187 0 188 1;
#X connect 188 0 189 0;
#X connect 189 0 191 0;
#X connect 191 0 193 0;
#X connect 194 0 196 0;
#X connect 195 0 196 1;
#X connect 196 0 200 0;
#X connect 197 0 199 0;
#X connect 198 0 197 0;
#X connect 199 0 176 0;
#X connect 200 0 198 1;
#X connect 200 0 199 1;
#X connect 202 0 176 0;
#X connect 203 0 74 0;
#X connect 203 0 74 1;
#X connect 204 0 209 0;
#X connect 205 0 206 0;
#X connect 206 0 207 0;
#X connect 207 0 208 0;
#X connect 208 0 203 1;
#X connect 209 0 205 0;
#X restore 921 397 pd fm;
#X obj 771 256 nbx 3 19 0 100 0 1 \$0-fm-density-s \$0-fm-density-r density 0 -8 0 12 #7f0000 #ffffff #000000 100 256;
#X obj 771 216 nbx 3 19 1 16 0 1 \$0-fm-length-s \$0-fm-length-r length 0 -8 0 12 #7f0000 #ffffff #000000 16 256;
#X obj 771 376 nbx 3 19 0 6 0 1 \$0-fm-octave-s \$0-fm-octave-r octave 0 -8 0 12 #7f0000 #ffffff #000000 0 256;
#X obj 771 416 nbx 3 19 0 100 0 1 \$0-fm-decay-s \$0-fm-decay-r decay 0 -8 0 12 #7f0000 #ffffff #000000 0 256;
#X obj 841 136 tgl 19 1 \$0-fm-stuTgl-s \$0-fm-stuTgl-r empty 17 7 0 10 #000000 #ffffff #000000 0 1;
#X obj 841 276 tgl 19 1 \$0-fm-delTgl-s \$0-fm-delTgl-r empty 17 7 0 10 #000000 #ffffff #000000 1 1;
#X obj 841 356 nbx 3 19 1 128 0 1 \$0-fm-delTime-s \$0-fm-delTime-r time 0 -8 0 12 #000000 #ffffff #000000 38 256;
#X obj 841 176 nbx 3 19 0 100 0 1 \$0-fm-stuProb-s \$0-fm-stuProb-r prob 0 -8 0 12 #000000 #ffffff #000000 100 256;
#X obj 841 216 nbx 3 19 1 64 0 1 \$0-fm-stuRate-s \$0-fm-stuRate-r rate 0 -8 0 12 #000000 #ffffff #000000 4 256;
#X obj 841 396 nbx 3 19 0 100 0 1 \$0-fm-delFbk-s \$0-fm-delFbk-r fbk 0 -8 0 12 #000000 #ffffff #000000 60 256;
#X obj 841 246 tgl 19 1 \$0-fm-stuRnd-s \$0-fm-stuRnd-r rnd 22 10 0 12 #000000 #ffffff #000000 0 1;
#X obj 841 316 nbx 3 19 0 100 0 1 \$0-fm-delLevel-s \$0-fm-delLevel-r level 0 -8 0 12 #000000 #ffffff #000000 65 256;
#X obj 771 456 nbx 3 19 0 100 0 1 \$0-fm-drive-s \$0-fm-drive-r drive 0 -8 0 12 #7f0000 #ffffff #000000 100 256;
#X obj 20 206 nbx 3 19 1 32 0 1 \$0-stuDiv-s \$0-stuDiv-r div 0 -8 0 12 #7f007f #fcfcfc #000000 4 256;
#X obj 801 588 vsl 19 101 0 100 0 1 \$0-fm-rev-s \$0-fm-rev-r rev 0 -9 0 12 #7f0000 #ffffff #000000 5100 1;
#X obj 302 543 nbx 2 19 1 32 0 1 \$0-duck-decay-s \$0-duck-decay-r decay 0 -8 0 12 #7f0000 #ffffff #000000 8 256;
#X obj 301 588 vsl 19 101 0 100 0 1 \$0-duck-s \$0-duck-r duck 0 -9 0 12 #7f0000 #ffffff #000000 10000 1;
#N canvas 0 22 1920 1036 clap 0;
#X obj 555 262 *~;
#X obj 476 182 *~;
#X obj 476 230 +~;
#X obj 476 126 noise~;
#X obj 476 256 phasor~;
#X obj 476 300 *~ 1000;
#X obj 476 322 clip~ -1 1;
#N canvas 0 22 253 427 lpf~ 0;
#X obj 97 114 /~;
#X obj 97 202 *~;
#X obj 112 53 samplerate~;
#X obj 112 31 loadbang;
#X msg 112 136 1;
#X obj 112 158 atan;
#X obj 112 180 * 8;
#X obj 97 224 clip~ 0 1;
#X obj 82 246 sig~ 1;
#X obj 82 268 -~;
#X obj 11 285 rpole~;
#X obj 11 307 *~;
#X obj 11 329 rpole~;
#X obj 11 351 *~;
#X obj 178 70 / 2;
#X obj 11 9 inlet~ audio;
#X obj 97 9 inlet~ frequency;
#X obj 11 373 outlet~ output;
#X obj 97 92 clip~ 0 22050;
#X connect 0 0 1 0;
#X connect 1 0 7 0;
#X connect 2 0 0 1;
#X connect 2 0 14 0;
#X connect 3 0 2 0;
#X connect 3 0 4 0;
#X connect 4 0 5 0;
#X connect 5 0 6 0;
#X connect 6 0 1 1;
#X connect 7 0 9 1;
#X connect 7 0 11 1;
#X connect 7 0 13 1;
#X connect 8 0 9 0;
#X connect 9 0 10 1;
#X connect 9 0 12 1;
#X connect 10 0 11 0;
#X connect 11 0 12 0;
#X connect 12 0 13 0;
#X connect 13 0 17 0;
#X connect 14 0 18 2;
#X connect 15 0 10 0;
#X connect 16 0 18 0;
#X connect 18 0 0 0;
#X restore 555 430 pd lpf~;
#X obj 725 286 line~;
#X obj 710 365 *~;
#X obj 650 404 +~;
#X obj 476 278 -~ 0.5;
#X obj 476 362 *~;
#X obj 710 387 *~ 2;
#X obj 725 308 *~;
#X obj 725 193 t b b b b;
#X obj 678 167 t b b;
#X obj 22 22 r \$0-clock;
#X obj 22 163 +;
#X text 37 117 GUI: cp clock offset;
#X obj 37 137 r \$0-cp-cof-s;
#X obj 22 203 div 1;
#X obj 57 177 r \$0-cp-div-s;
#X text 57 157 GUI: cp div;
#X obj 22 224 change -1;
#X obj 22 293 +;
#X obj 22 314 * 4;
#X text 207 257 GUI: cp clock offset;
#X obj 207 298 t f f;
#X obj 72 365 % 16;
#X obj 219 386 < 4;
#X obj 207 277 r \$0-cp-hits-s;
#X obj 93 339 r \$0-cp-length-s;
#X text 93 319 GUI: cp length;
#X text 37 247 GUI: cp offset;
#X obj 37 267 r \$0-cp-offset-s;
#X obj 249 433 spigot;
#X obj 219 407 select 1;
#X obj 282 392 r \$0-cp-tgl-s;
#X text 282 372 GUI: cp toggle;
#X obj 249 459 s \$0-cp-trg;
#X obj 22 93 +;
#X obj 37 67 r \$0-offset-s;
#X text 37 47 GUI: clock offset;
#X obj 678 141 r \$0-cp-trg;
#X obj 555 284 *~ 2;
#X obj 612 261 *~ 2;
#X obj 612 281 clip~ 0 1;
#X obj 555 214 vcf~ 1.8;
#X obj 644 567 throw~ \$0-mono;
#X obj 644 541 *~;
#X msg 698 504 \$1 20;
#X obj 698 525 line~;
#X obj 698 462 / 100;
#X obj 698 483 pow 2;
#X obj 698 441 r \$0-cp-vol-s;
#X obj 612 239 else/decay~ 300;
#X obj 875 219 del 40;
#X obj 765 220 del 25;
#X obj 815 220 del 15;
#X obj 577 166 sig~ 2000;
#X obj 476 204 *~ 2;
#X obj 577 56 r \$0-cp-tune-s;
#X obj 577 77 / 127;
#X obj 577 119 + 84;
#X obj 577 140 mtof;
#X obj 1087 114 / 127;
#X obj 1087 93 r \$0-cp-decay-s;
#X obj 1087 135 * 4;
#X msg 1087 156 2 \$1;
#X obj 1087 177 pow;
#X obj 875 240 f;
#X msg 875 261 1 \, 0 \$1;
#X obj 1087 198 * 15;
#X obj 700 121 clip 150 3000;
#X msg 725 253 1 \, 0 10;
#X obj 700 100 * 75;
#X obj 919 332 / 127;
#X obj 919 374 - 1;
#X obj 919 353 * 2;
#X msg 919 395 2 \$1;
#X obj 919 416 pow;
#X obj 919 437 * 3000;
#X msg 919 458 \$1 10;
#X obj 650 344 line~;
#X obj 919 311 r \$0-cp-cutoff-s;
#X obj 829 119 / 127;
#X obj 939 180 * 3;
#X obj 829 141 sqrt;
#X obj 879 180 * 1.5;
#X obj 829 163 * 15;
#X obj 829 97 r \$0-cp-space-s;
#X obj 555 451 else/highpass~ 400 0.4;
#X obj 555 500 else/drive~ 1;
#X obj 577 98 * 30;
#X connect 0 0 45 0;
#X connect 1 0 61 0;
#X connect 2 0 4 0;
#X connect 3 0 1 0;
#X connect 3 0 48 0;
#X connect 4 0 11 0;
#X connect 5 0 6 0;
#X connect 6 0 12 0;
#X connect 7 0 92 0;
#X connect 8 0 14 0;
#X connect 8 0 14 1;
#X connect 9 0 13 0;
#X connect 10 0 7 1;
#X connect 11 0 5 0;
#X connect 12 0 7 0;
#X connect 13 0 10 1;
#X connect 14 0 9 1;
#X connect 14 0 12 1;
#X connect 15 0 75 0;
#X connect 15 1 58 0;
#X connect 15 2 59 0;
#X connect 15 3 57 0;
#X connect 16 0 56 0;
#X connect 16 1 15 0;
#X connect 17 0 41 0;
#X connect 18 0 21 0;
#X connect 20 0 18 1;
#X connect 21 0 24 0;
#X connect 22 0 21 1;
#X connect 24 0 25 0;
#X connect 25 0 26 0;
#X connect 26 0 29 0;
#X connect 28 0 26 1;
#X connect 28 1 30 1;
#X connect 29 0 30 0;
#X connect 30 0 37 0;
#X connect 31 0 28 0;
#X connect 32 0 29 1;
#X connect 35 0 25 1;
#X connect 36 0 40 0;
#X connect 37 0 36 0;
#X connect 38 0 36 1;
#X connect 41 0 18 0;
#X connect 42 0 41 1;
#X connect 44 0 16 0;
#X connect 45 0 7 0;
#X connect 46 0 47 0;
#X connect 47 0 0 1;
#X connect 48 0 0 0;
#X connect 50 0 49 0;
#X connect 51 0 52 0;
#X connect 52 0 50 1;
#X connect 53 0 54 0;
#X connect 54 0 51 0;
#X connect 55 0 53 0;
#X connect 56 0 46 0;
#X connect 57 0 71 0;
#X connect 58 0 75 0;
#X connect 59 0 75 0;
#X connect 60 0 1 1;
#X connect 60 0 2 1;
#X connect 60 0 48 1;
#X connect 61 0 2 0;
#X connect 62 0 63 0;
#X connect 63 0 94 0;
#X connect 64 0 65 0;
#X connect 65 0 60 0;
#X connect 66 0 68 0;
#X connect 67 0 66 0;
#X connect 68 0 69 0;
#X connect 69 0 70 0;
#X connect 70 0 73 0;
#X connect 70 0 76 0;
#X connect 71 0 72 0;
#X connect 72 0 8 0;
#X connect 73 0 71 1;
#X connect 74 0 56 1;
#X connect 75 0 8 0;
#X connect 76 0 74 0;
#X connect 77 0 79 0;
#X connect 78 0 80 0;
#X connect 79 0 78 0;
#X connect 80 0 81 0;
#X connect 81 0 82 0;
#X connect 82 0 83 0;
#X connect 83 0 84 0;
#X connect 84 0 9 0;
#X connect 84 0 10 0;
#X connect 85 0 77 0;
#X connect 86 0 88 0;
#X connect 87 0 57 1;
#X connect 88 0 90 0;
#X connect 89 0 59 1;
#X connect 90 0 87 0;
#X connect 90 0 89 0;
#X connect 90 0 58 1;
#X connect 91 0 86 0;
#X connect 92 0 93 0;
#X connect 93 0 50 0;
#X connect 94 0 64 0;
#X restore 921 417 pd clap;
#X obj 486 56 cnv 5 5 600 empty empty empty 4 10 0 12 #000000 #ffffff 0;
#X obj 502 543 tgl 19 1 \$0-cp-tgl-s \$0-cp-tgl-r cp 0 -8 0 12 #7f0000 #ffffff #000000 0 1;
#X obj 501 176 nbx 3 19 1 16 0 1 \$0-cp-div-s \$0-cp-div-r div 0 -8 0 12 #7f0000 #ffffff #000000 2 256;
#X obj 501 216 nbx 3 19 0 32 0 1 \$0-cp-offset-s \$0-cp-offset-r offset 0 -8 0 12 #7f0000 #ffffff #000000 0 256;
#X obj 501 256 nbx 3 19 0 32 0 1 \$0-cp-hits-s \$0-cp-hits-r hits 0 -8 0 12 #7f0000 #ffffff #000000 7 256;
#X obj 501 296 nbx 3 19 1 32 0 1 \$0-cp-length-s \$0-cp-length-r length 0 -8 0 12 #7f0000 #ffffff #000000 16 256;
#X obj 501 136 nbx 3 19 0 16 0 1 \$0-cp-cof-s \$0-cp-cof-r cof 0 -8 0 12 #7f0000 #ffffff #000000 0 256;
#X obj 501 588 vsl 19 101 0 100 0 1 \$0-cp-vol-s \$0-cp-vol-r vol 0 -9 0 12 #7f0000 #ffffff #000000 5100 1;
#X obj 501 56 cnv 19 60 19 empty empty cp 4 10 0 12 #000000 #ffffff 0;
#X obj 501 96 bng 19 100 50 0 empty \$0-cp-trg cp 0 -8 0 12 #000000 #ffffff #000000;
#X obj 501 336 nbx 3 19 0 100 0 1 \$0-cp-tune-s \$0-cp-tune-r tune 0 -8 0 12 #7f0000 #ffffff #000000 100 256;
#X obj 501 376 nbx 3 19 0 100 0 1 \$0-cp-decay-s \$0-cp-decay-r decay 0 -8 0 12 #7f0000 #ffffff #000000 96 256;
#X obj 501 416 nbx 3 19 0 100 0 1 \$0-cp-cutoff-s \$0-cp-cutoff-r cutoff 0 -8 0 12 #7f0000 #ffffff #000000 55 256;
#X obj 501 456 nbx 3 19 0 100 0 1 \$0-cp-space-s \$0-cp-space-r space 0 -8 0 12 #7f0000 #ffffff #000000 38 256;
#X text 888 552 N - no resonance;
#X text 888 571 Gamelan - delay en 4;
#X text 888 621 Bruaer - empieza con fm;
#X text 908 591 Low end distorsionado;
#X text 898 641 Bruaer - empieza con fm;
