#N canvas 106 278 1011 770 10;
#N canvas 547 316 703 742 clock 0;
#X obj 72 12 notein;
#X obj 72 36 pack f f;
#X obj 103 107 + 50;
#X msg 103 282 60000 \$1;
#X obj 103 306 /;
#X obj 122 439 / 4;
#X obj 72 60 route 50 52;
#X obj 103 327 t f f f;
#X obj 12 538 i;
#X obj 42 538 + 1;
#X obj 85 486 delay;
#X obj 12 460 t b b;
#X obj 135 486 delay;
#X obj 185 486 delay;
#X obj 173 460 t f f f;
#X obj 12 512 t b;
#X obj 12 711 s \$0-clock;
#X obj 12 105 t b b;
#X obj 42 426 s \$0-beat;
#X obj 142 369 v \$0-quarter;
#X obj 142 348 s \$0-quarter;
#X obj 33 353 / 8;
#X obj 12 84 sel 100 0;
#X obj 103 86 change -1;
#X text 239 430 https://github.com/mixxxdj/mixxx/wiki/MIDI%20clock%20output;
#X text 239 410 Documentation:;
#X text 152 60 <- 50 = beat \, BPM = BPM;
#X obj 329 90 tgl 16 0 empty empty empty 0 -8 0 10 #fcfcfc #000000 #000000 0 1;
#X obj 357 29 loadbang;
#X obj 103 128 t f f;
#X obj 130 153 s \$0-bpm-r;
#X obj 103 261 +;
#X obj 130 214 / 100;
#X obj 130 235 t b f;
#X text 130 173 GUI: Decimals;
#X obj 130 193 r \$0-decimals-s;
#X obj 12 374 pipe 72;
#X obj 12 559 % 65536;
#X obj 42 400 b;
#X obj 329 111 metro 600;
#X msg 357 50 50;
#X obj 12 580 t f f;
#X obj 88 596 % 2;
#X obj 88 617 select 0 1;
#X msg 88 638 0;
#X obj 126 643 v \$0-quarter;
#X obj 12 692 pipe;
#X obj 126 663 / 8;
#X obj 242 636 r \$0-swing-s;
#X obj 126 684 * 0;
#X obj 242 657 / 100;
#X connect 0 0 1 0;
#X connect 0 1 1 1;
#X connect 1 0 6 0;
#X connect 2 0 29 0;
#X connect 3 0 4 0;
#X connect 4 0 7 0;
#X connect 5 0 14 0;
#X connect 6 0 22 0;
#X connect 6 1 23 0;
#X connect 7 0 21 0;
#X connect 7 1 5 0;
#X connect 7 2 20 0;
#X connect 8 0 37 0;
#X connect 9 0 8 1;
#X connect 10 0 12 0;
#X connect 10 0 15 0;
#X connect 11 0 15 0;
#X connect 11 1 10 0;
#X connect 12 0 13 0;
#X connect 12 0 15 0;
#X connect 13 0 15 0;
#X connect 14 0 10 1;
#X connect 14 1 12 1;
#X connect 14 2 13 1;
#X connect 15 0 8 0;
#X connect 17 0 36 0;
#X connect 22 0 17 0;
#X connect 23 0 2 0;
#X connect 27 0 39 0;
#X connect 28 0 40 0;
#X connect 29 0 31 0;
#X connect 29 1 30 0;
#X connect 31 0 3 0;
#X connect 32 0 33 0;
#X connect 33 0 31 0;
#X connect 33 1 31 1;
#X connect 35 0 32 0;
#X connect 36 0 11 0;
#X connect 36 0 38 0;
#X connect 37 0 9 0;
#X connect 37 0 41 0;
#X connect 38 0 18 0;
#X connect 39 0 17 0;
#X connect 40 0 23 0;
#X connect 41 0 46 0;
#X connect 41 1 42 0;
#X connect 42 0 43 0;
#X connect 43 0 44 0;
#X connect 43 1 45 0;
#X connect 44 0 46 1;
#X connect 45 0 47 0;
#X connect 46 0 16 0;
#X connect 47 0 49 0;
#X connect 48 0 50 0;
#X connect 49 0 46 1;
#X connect 50 0 49 1;
#X restore 861 236 pd clock;
#X obj 81 166 tgl 19 1 \$0-low-stuTgl-s \$0-low-stuTgl-r empty 17 7 0 10 #7f007f #fcfcfc #000000 0 1;
#X obj 81 306 tgl 19 1 \$0-low-delTgl-s \$0-low-delTgl-r empty 17 7 0 10 #7f007f #fcfcfc #000000 0 1;
#N canvas 131 165 450 300 cpu 0;
#X obj 99 150 cputime;
#X obj 99 30 loadbang;
#X obj 99 94 metro 1000;
#X obj 99 122 t b b;
#X obj 99 210 * 0.1;
#X obj 99 179 int;
#X text 76 279 CPU load in percent;
#X text 122 60 <= on/off;
#X obj 99 61 tgl 15 0 empty empty empty 17 7 0 10 #fcfcfc #000000 #000000 0 1;
#X obj 99 231 s \$0-cpu;
#X connect 0 0 5 0;
#X connect 1 0 8 0;
#X connect 2 0 3 0;
#X connect 3 0 0 0;
#X connect 3 1 0 1;
#X connect 4 0 9 0;
#X connect 5 0 4 0;
#X connect 8 0 2 0;
#X restore 861 136 pd cpu;
#X obj 81 386 nbx 3 19 1 128 0 1 \$0-low-delTime-s \$0-low-delTime-r time 0 -8 0 12 #7f007f #fcfcfc #000000 12 256;
#X obj 81 206 nbx 3 19 0 100 0 1 \$0-low-stuProb-s \$0-low-stuProb-r prob 0 -8 0 12 #7f007f #fcfcfc #000000 100 256;
#X obj 412 493 tgl 19 1 \$0-bd-tgl-s \$0-bd-tgl-r bd 0 -8 0 12 #7f0000 #ffffff #000000 1 1;
#X obj 101 106 nbx 3 20 100 880 0 1 \$0-lowMid-freq-s \$0-lowMid-freq-r L/M 0 -8 0 12 #7f007f #fcfcfc #000000 250 256;
#X obj 161 106 nbx 4 20 880 8000 0 1 \$0-midHigh-freq-s \$0-midHigh-freq-r M/H 0 -8 0 12 #007f00 #fcfcfc #000000 6000 256;
#X obj 81 538 vsl 19 101 0 100 0 1 \$0-low-vol-s \$0-low-vol-r vol 0 -9 0 12 #7f007f #fcfcfc #000000 6800 1;
#X obj 81 486 bng 19 250 50 0 \$0-low-scratch-s \$0-low-scratch-r empty 17 7 0 10 #7f007f #fcfcfc #000000;
#X obj 41 486 bng 20 250 50 0 \$0-scratch-s \$0-scratch-r empty 17 7 0 10 #000000 #ff0400 #000000;
#X obj 85 683 tgl 20 1 \$0-s-freeze \$0-r-freeze empty 17 7 0 10 #dce4fc #000000 #000000 0 1;
#X text 37 685 FREEZE;
#X obj 442 493 tgl 19 1 \$0-duck-s \$0-duck-r duck 0 -8 0 12 #7f0000 #ffffff #000000 0 1;
#N canvas 354 598 469 357 scales 0;
#X obj 252 299 text define -k \$0-notes;
#A set C \; Db \; D \; Eb \; E \; F \; Gb \; G \; Ab \; A \; Bb \; B \;;
#X obj 232 52 text get \$0-notes;
#X obj 12 184 array set \$0-scale;
#X obj 32 205 array define -k \$0-scale 7;
#A 0 0 2 3 5 7 8 10;
#X msg 112 148 0 2 4 5 7 9 11;
#X msg 12 148 0 2 3 5 7 8 10;
#X obj 232 217 pack s s;
#X obj 250 119 t b f;
#X obj 277 139 select 0 1;
#X obj 12 102 sel 0 1;
#X msg 277 165 m;
#X obj 277 191 symbol;
#X msg 305 165  ;
#X text 22 128 minor;
#X text 112 128 mayor;
#X text 12 61 GUI: Scale;
#X obj 12 81 r \$0-scale-s;
#X obj 232 31 r \$0-key-s;
#X obj 250 98 r \$0-scale-s;
#X text 250 78 GUI: Scale;
#X text 232 11 GUI: Key;
#X msg 232 243 label Key: \$1\$2;
#X obj 232 269 s \$0-key-r;
#X connect 1 0 6 0;
#X connect 4 0 2 0;
#X connect 5 0 2 0;
#X connect 6 0 21 0;
#X connect 7 0 6 0;
#X connect 7 1 8 0;
#X connect 8 0 10 0;
#X connect 8 1 12 0;
#X connect 9 0 5 0;
#X connect 9 1 4 0;
#X connect 10 0 11 0;
#X connect 11 0 6 1;
#X connect 12 0 11 0;
#X connect 16 0 9 0;
#X connect 17 0 1 0;
#X connect 18 0 7 0;
#X connect 21 0 22 0;
#X restore 861 256 pd scales;
#X obj 334 25 tgl 20 1 \$0-scale-s \$0-scale-r Scale 0 -8 0 12 #000000 #ffffff #000000 0 1;
#X obj 274 25 nbx 4 20 0 12 0 1 \$0-key-s \$0-key-r Key: Em 0 -8 0 12 #000000 #ffffff #000000 4 256;
#X obj 81 456 tgl 19 1 \$0-low-reverseTgl-s \$0-low-reverseTgl-r empty 17 7 0 10 #7f007f #fcfcfc #000000 0 1;
#X obj 81 246 nbx 3 19 1 64 0 1 \$0-low-stuRate-s \$0-low-stuRate-r rate 0 -8 0 12 #7f007f #fcfcfc #000000 1 256;
#N canvas 411 357 1069 356 mixxx 0;
#X obj 12 277 *~;
#X obj 12 303 throw~ \$0-left;
#X obj 143 277 *~;
#X obj 143 303 throw~ \$0-right;
#N canvas 299 349 603 411 crossover-st~ 0;
#X obj 12 153 else/crossover~ 300;
#X obj 133 179 else/crossover~ 3000;
#X msg 183 56 \$1 100;
#X obj 183 77 line~;
#X msg 430 52 \$1 100;
#X obj 430 73 line~;
#X obj 322 153 else/crossover~ 300;
#X obj 443 179 else/crossover~ 3000;
#X obj 12 87 inlet~;
#X obj 322 87 inlet~;
#X obj 12 340 *~;
#X obj 72 340 *~;
#X obj 133 340 *~;
#X obj 193 340 *~;
#X obj 250 340 *~;
#X obj 310 341 *~;
#X obj 27 252 * 2;
#X obj 27 273 - 1;
#X obj 158 252 * 2;
#X obj 158 273 - 1;
#X obj 285 252 * 2;
#X obj 285 273 - 1;
#X obj 12 361 outlet~;
#X obj 72 361 outlet~;
#X obj 133 361 outlet~;
#X obj 193 361 outlet~;
#X obj 250 361 outlet~;
#X obj 310 362 outlet~;
#X obj 183 35 r \$0-lowMid-freq-s;
#X obj 430 31 r \$0-midHigh-freq-s;
#X text 27 211 GUI: Low Phase;
#X text 158 211 GUI: Mid Phase;
#X text 285 211 GUI: High Phase;
#X text 183 15 GUI: Low Mid Freq;
#X text 430 11 GUI: Mid High Freq;
#X text 12 67 Inlet 1: Left;
#X text 322 67 Inlet 2: Right;
#X obj 27 231 r \$0-low-phaseTgl-s;
#X obj 158 231 r \$0-mid-phaseTgl-s;
#X obj 285 231 r \$0-high-phaseTgl-s;
#X msg 27 294 \$1 20;
#X obj 27 315 line~;
#X msg 158 294 \$1 20;
#X obj 158 315 line~;
#X msg 285 294 \$1 20;
#X obj 285 315 line~;
#X connect 0 0 10 0;
#X connect 0 1 1 0;
#X connect 1 0 12 0;
#X connect 1 1 14 0;
#X connect 2 0 3 0;
#X connect 3 0 0 1;
#X connect 3 0 6 1;
#X connect 4 0 5 0;
#X connect 5 0 1 1;
#X connect 5 0 7 1;
#X connect 6 0 11 1;
#X connect 6 1 7 0;
#X connect 7 0 13 1;
#X connect 7 1 15 1;
#X connect 8 0 0 0;
#X connect 9 0 6 0;
#X connect 10 0 22 0;
#X connect 11 0 23 0;
#X connect 12 0 24 0;
#X connect 13 0 25 0;
#X connect 14 0 26 0;
#X connect 15 0 27 0;
#X connect 16 0 17 0;
#X connect 17 0 40 0;
#X connect 18 0 19 0;
#X connect 19 0 42 0;
#X connect 20 0 21 0;
#X connect 21 0 44 0;
#X connect 28 0 2 0;
#X connect 29 0 4 0;
#X connect 37 0 16 0;
#X connect 38 0 18 0;
#X connect 39 0 20 0;
#X connect 40 0 41 0;
#X connect 41 0 10 1;
#X connect 41 0 11 0;
#X connect 42 0 43 0;
#X connect 43 0 12 1;
#X connect 43 0 13 0;
#X connect 44 0 45 0;
#X connect 45 0 14 1;
#X connect 45 0 15 0;
#X restore 332 50 pd crossover-st~;
#X obj 352 24 adc~ 1 2;
#X obj 322 277 *~;
#X obj 322 303 throw~ \$0-left;
#X obj 453 277 *~;
#X obj 453 303 throw~ \$0-right;
#X obj 632 277 *~;
#X obj 808 138 / 100;
#X obj 808 159 pow 2;
#X msg 808 240 \$1 100;
#X obj 808 261 line~;
#X obj 632 303 throw~ \$0-left;
#X obj 763 277 *~;
#X obj 763 303 throw~ \$0-right;
#X obj 12 188 abs/delay-abs~ \$0 low;
#X obj 12 214 abs/reverse~ \$0 low;
#X obj 12 162 abs/stutter-abs~ \$0 low;
#X obj 12 136 abs/scratch~ \$0 low;
#X obj 808 117 r \$0-high-vol-s;
#X obj 322 136 abs/scratch~ \$0 mid;
#X obj 322 162 abs/stutter-abs~ \$0 mid;
#X obj 322 188 abs/delay-abs~ \$0 mid;
#X obj 322 214 abs/reverse~ \$0 mid;
#X obj 632 136 abs/scratch~ \$0 high;
#X obj 632 162 abs/stutter-abs~ \$0 high;
#X obj 632 188 abs/delay-abs~ \$0 high;
#X obj 632 214 abs/reverse~ \$0 high;
#X obj 808 180 * 2;
#X obj 848 169 / 100;
#X obj 848 190 t b f;
#X obj 848 148 r \$0-mix-vol-s;
#X obj 808 216 *;
#X obj 488 138 / 100;
#X obj 488 159 pow 2;
#X msg 488 240 \$1 100;
#X obj 488 261 line~;
#X obj 488 180 * 2;
#X obj 528 169 / 100;
#X obj 528 190 t b f;
#X obj 528 148 r \$0-mix-vol-s;
#X obj 488 216 *;
#X obj 178 138 / 100;
#X obj 178 159 pow 2;
#X msg 178 240 \$1 100;
#X obj 178 261 line~;
#X obj 178 180 * 2;
#X obj 218 169 / 100;
#X obj 218 190 t b f;
#X obj 218 148 r \$0-mix-vol-s;
#X obj 178 216 *;
#X obj 178 117 r \$0-low-vol-s;
#X obj 488 117 r \$0-mid-vol-s;
#X obj 12 240 abs/reverb-abs~ \$0 low;
#X obj 322 240 abs/reverb-abs~ \$0 mid;
#X obj 632 240 abs/reverb-abs~ \$0 high;
#X connect 0 0 1 0;
#X connect 2 0 3 0;
#X connect 4 0 21 0;
#X connect 4 1 21 1;
#X connect 4 2 23 0;
#X connect 4 3 23 1;
#X connect 4 4 27 0;
#X connect 4 5 27 1;
#X connect 5 0 4 0;
#X connect 5 1 4 1;
#X connect 6 0 7 0;
#X connect 8 0 9 0;
#X connect 10 0 15 0;
#X connect 11 0 12 0;
#X connect 12 0 31 0;
#X connect 13 0 14 0;
#X connect 14 0 16 1;
#X connect 14 0 10 1;
#X connect 16 0 17 0;
#X connect 18 0 19 0;
#X connect 18 1 19 1;
#X connect 19 0 56 0;
#X connect 19 1 56 1;
#X connect 20 0 18 0;
#X connect 20 1 18 1;
#X connect 21 0 20 0;
#X connect 21 1 20 1;
#X connect 22 0 11 0;
#X connect 23 0 24 0;
#X connect 23 1 24 1;
#X connect 24 0 25 0;
#X connect 24 1 25 1;
#X connect 25 0 26 0;
#X connect 25 1 26 1;
#X connect 26 0 57 0;
#X connect 26 1 57 1;
#X connect 27 0 28 0;
#X connect 27 1 28 1;
#X connect 28 0 29 0;
#X connect 28 1 29 1;
#X connect 29 0 30 0;
#X connect 29 1 30 1;
#X connect 30 0 58 0;
#X connect 30 1 58 1;
#X connect 31 0 35 0;
#X connect 32 0 33 0;
#X connect 33 0 35 0;
#X connect 33 1 35 1;
#X connect 34 0 32 0;
#X connect 35 0 13 0;
#X connect 36 0 37 0;
#X connect 37 0 40 0;
#X connect 38 0 39 0;
#X connect 39 0 8 1;
#X connect 39 0 6 1;
#X connect 40 0 44 0;
#X connect 41 0 42 0;
#X connect 42 0 44 0;
#X connect 42 1 44 1;
#X connect 43 0 41 0;
#X connect 44 0 38 0;
#X connect 45 0 46 0;
#X connect 46 0 49 0;
#X connect 47 0 48 0;
#X connect 48 0 2 1;
#X connect 48 0 0 1;
#X connect 49 0 53 0;
#X connect 50 0 51 0;
#X connect 51 0 53 0;
#X connect 51 1 53 1;
#X connect 52 0 50 0;
#X connect 53 0 47 0;
#X connect 54 0 45 0;
#X connect 55 0 36 0;
#X connect 56 0 0 0;
#X connect 56 1 2 0;
#X connect 57 0 6 0;
#X connect 57 1 8 0;
#X connect 58 0 10 0;
#X connect 58 1 16 0;
#X restore 861 286 pd mixxx;
#N canvas 386 22 1534 936 master-ouput 0;
#X obj 151 363 catch~ \$0-left;
#X obj 222 788 else/drive~;
#X obj 222 809 hip~ 3;
#X obj 222 830 *~ 0.9;
#X obj 222 851 dac~ 1;
#X obj 322 788 else/drive~;
#X obj 322 809 hip~ 3;
#X obj 322 830 *~ 0.9;
#X obj 251 363 catch~ \$0-right;
#X obj 322 851 dac~ 2;
#X obj 578 519 else/plate.rev~;
#X msg 900 455 size \$1;
#X obj 851 532 s \$0-set;
#X obj 667 468 r \$0-set;
#X obj 1117 308 sel 0;
#X obj 1166 361 v \$0-quarter;
#X obj 1164 447 vline~;
#X msg 1088 425 0;
#X obj 1163 468 *~;
#X obj 1165 558 +~ 1;
#X msg 1164 426 0 \, 1 \$1 \, 0 1 \$1;
#X obj 1117 329 t b b;
#X obj 1088 404 delay;
#X obj 1163 489 *~;
#X obj 839 367 loadbang;
#X obj 1089 258 r \$0-s-freeze;
#X obj 1088 446 t f f;
#X obj 1109 473 * 0.9;
#X obj 1109 494 + 0.1;
#X obj 1166 382 * 2;
#X obj 965 265 r \$0-s-rev-size;
#X obj 970 469 loadbang;
#X msg 966 497 wet 1;
#X msg 835 421 damp 0.1;
#X obj 587 411 catch~ \$0-reverb;
#X msg 926 360 1 \$1;
#X obj 926 381 -;
#X obj 926 402 *;
#X obj 963 334 t f f;
#X obj 926 423 +;
#X obj 201 564 *~;
#X obj 301 564 *~;
#X obj 285 402 loadbang;
#X msg 285 423 1;
#X obj 285 444 -~;
#X msg 1109 515 \$1 1;
#X obj 1109 536 line~;
#X obj 646 666 *~;
#X obj 748 666 *~;
#X obj 201 585 +~;
#X obj 301 585 +~;
#X obj 965 286 / 100;
#X obj 443 722 catch~ \$0-mono;
#X obj 204 627 *~;
#X obj 306 632 *~;
#X obj 427 489 r~ \$0-duck;
#X obj 985 414 t b f;
#X obj 392 562 -~;
#X obj 587 432 /~ 1;
#X obj 578 540 *~;
#X obj 668 540 *~;
#X obj 744 403 / 100;
#X obj 744 424 pow 2;
#X msg 744 445 \$1 100;
#X obj 744 466 line~;
#X obj 744 487 lop~ 10;
#X obj 744 382 r \$0-s-rev-vol;
#X obj 392 459 loadbang;
#X msg 392 480 1;
#X obj 222 766 *~ 0.5;
#X obj 322 766 *~ 0.5;
#X obj 442 510 r \$0-duck-s;
#X obj 427 536 *~;
#X obj 515 431 loadbang;
#X msg 515 452 predelay 0;
#X connect 0 0 40 0;
#X connect 1 0 2 0;
#X connect 2 0 3 0;
#X connect 3 0 4 0;
#X connect 5 0 6 0;
#X connect 6 0 7 0;
#X connect 7 0 9 0;
#X connect 8 0 41 0;
#X connect 10 0 59 0;
#X connect 10 1 60 0;
#X connect 11 0 12 0;
#X connect 13 0 10 0;
#X connect 14 0 21 0;
#X connect 14 1 26 0;
#X connect 14 1 63 0;
#X connect 15 0 29 0;
#X connect 16 0 18 0;
#X connect 16 0 18 1;
#X connect 17 0 26 0;
#X connect 18 0 23 0;
#X connect 18 0 23 1;
#X connect 19 0 48 1;
#X connect 19 0 47 1;
#X connect 20 0 16 0;
#X connect 21 0 22 0;
#X connect 21 1 15 0;
#X connect 22 0 17 0;
#X connect 22 0 61 0;
#X connect 23 0 19 0;
#X connect 24 0 33 0;
#X connect 25 0 14 0;
#X connect 26 0 56 0;
#X connect 26 1 27 0;
#X connect 27 0 28 0;
#X connect 28 0 45 0;
#X connect 29 0 20 0;
#X connect 29 0 22 1;
#X connect 30 0 51 0;
#X connect 31 0 32 0;
#X connect 32 0 12 0;
#X connect 33 0 12 0;
#X connect 34 0 58 0;
#X connect 35 0 36 0;
#X connect 36 0 37 0;
#X connect 37 0 39 0;
#X connect 38 0 35 0;
#X connect 38 1 39 1;
#X connect 39 0 11 0;
#X connect 40 0 49 0;
#X connect 41 0 50 0;
#X connect 42 0 43 0;
#X connect 43 0 44 0;
#X connect 44 0 41 1;
#X connect 44 0 40 1;
#X connect 45 0 46 0;
#X connect 46 0 48 1;
#X connect 46 0 47 1;
#X connect 46 0 44 1;
#X connect 47 0 49 1;
#X connect 48 0 50 1;
#X connect 49 0 53 0;
#X connect 50 0 54 0;
#X connect 51 0 38 0;
#X connect 52 0 70 0;
#X connect 52 0 69 0;
#X connect 53 0 69 0;
#X connect 54 0 70 0;
#X connect 55 0 72 0;
#X connect 56 0 37 0;
#X connect 56 1 37 1;
#X connect 57 0 54 1;
#X connect 57 0 53 1;
#X connect 58 0 10 0;
#X connect 59 0 47 0;
#X connect 60 0 48 0;
#X connect 61 0 62 0;
#X connect 62 0 63 0;
#X connect 63 0 64 0;
#X connect 64 0 65 0;
#X connect 65 0 60 1;
#X connect 65 0 59 1;
#X connect 66 0 61 0;
#X connect 67 0 68 0;
#X connect 68 0 57 0;
#X connect 69 0 1 0;
#X connect 70 0 5 0;
#X connect 71 0 72 1;
#X connect 72 0 57 1;
#X connect 73 0 74 0;
#X connect 74 0 10 0;
#X restore 861 466 pd master-ouput;
#X obj 106 538 vsl 19 101 0 100 0 1 \$0-low-rev-s \$0-low-rev-r rev 0 -9 0 12 #7f007f #fcfcfc #000000 0 1;
#X obj 81 426 nbx 3 19 0 100 0 1 \$0-low-delFbk-s \$0-low-delFbk-r fbk 0 -8 0 12 #7f007f #fcfcfc #000000 0 256;
#X obj 118 683 hsl 101 20 0 100 0 1 \$0-s-rev-size \$0-r-rev-size REV-SIZE -2 -8 0 12 #dce4fc #000000 #000000 3600 1;
#X obj 411 176 nbx 3 19 1 16 0 1 \$0-bd-div-s \$0-bd-div-r div 0 -8 0 12 #7f0000 #ffffff #000000 1 256;
#X obj 411 216 nbx 3 19 0 32 0 1 \$0-bd-offset-s \$0-bd-offset-r offset 0 -8 0 12 #7f0000 #ffffff #000000 0 256;
#X obj 411 256 nbx 3 19 0 32 0 1 \$0-bd-hits-s \$0-bd-hits-r hits 0 -8 0 12 #7f0000 #ffffff #000000 4 256;
#X obj 411 296 nbx 3 19 1 32 0 1 \$0-bd-length-s \$0-bd-length-r length 0 -8 0 12 #7f0000 #ffffff #000000 16 256;
#X obj 411 136 nbx 3 19 0 16 0 1 \$0-bd-cof-s \$0-bd-cof-r cof 0 -8 0 12 #7f0000 #ffffff #000000 2 256;
#X obj 81 346 nbx 3 19 0 100 0 1 \$0-low-delLevel-s \$0-low-delLevel-r level 0 -8 0 12 #7f007f #fcfcfc #000000 0 256;
#X obj 411 538 vsl 19 101 0 100 0 1 \$0-bd-vol-s \$0-bd-vol-r vol 0 -9 0 12 #7f0000 #ffffff #000000 9300 1;
#X obj 118 723 hsl 101 20 0 100 0 1 \$0-s-rev-vol \$0-r-rev-vol REV-VOL -2 -8 0 12 #dce4fc #000000 #000000 10000 1;
#X obj 81 136 tgl 19 1 \$0-low-phaseTgl-s \$0-low-phaseTgl-r empty 17 7 0 10 #7f007f #ffffff #000000 0 1;
#X obj 81 27 nbx 3 19 0 1e+37 0 0 empty \$0-cpu CPU 0 -8 0 14 #000000 #ffffff #000000 0 256;
#X obj 81 276 tgl 19 1 \$0-low-stuRnd-s \$0-low-stuRnd-r rnd 22 10 0 12 #7f007f #fcfcfc #000000 0 1;
#X obj 11 136 cnv 19 60 19 empty empty Phase 4 10 0 12 #000000 #ffffff 0;
#X obj 11 166 cnv 19 60 19 empty empty Stutter 4 10 0 12 #000000 #ffffff 0;
#X obj 11 306 cnv 19 60 19 empty empty Delay 4 10 0 12 #000000 #ffffff 0;
#X obj 11 456 cnv 19 60 19 empty empty Reverse 4 10 0 12 #000000 #ffffff 0;
#X obj 81 56 cnv 19 60 19 empty empty Mixxx 4 10 0 12 #000000 #ffffff 0;
#X obj 141 166 tgl 19 1 \$0-mid-stuTgl-s \$0-mid-stuTgl-r empty 17 7 0 10 #7f007f #fcfcfc #000000 0 1;
#X obj 141 306 tgl 19 1 \$0-mid-delTgl-s \$0-mid-delTgl-r empty 17 7 0 10 #7f007f #fcfcfc #000000 0 1;
#X obj 141 386 nbx 3 19 1 128 0 1 \$0-mid-delTime-s \$0-mid-delTime-r time 0 -8 0 12 #7f007f #fcfcfc #000000 6 256;
#X obj 141 206 nbx 3 19 0 100 0 1 \$0-mid-stuProb-s \$0-mid-stuProb-r prob 0 -8 0 12 #7f007f #fcfcfc #000000 100 256;
#X obj 141 538 vsl 19 101 0 100 0 1 \$0-mid-vol-s \$0-mid-vol-r vol 0 -9 0 12 #7f007f #fcfcfc #000000 8700 1;
#X obj 141 486 bng 19 250 50 0 \$0-mid-scratch-s \$0-mid-scratch-r empty 17 7 0 10 #7f007f #fcfcfc #000000;
#X obj 141 456 tgl 19 1 \$0-mid-reverseTgl-s \$0-mid-reverseTgl-r empty 17 7 0 10 #7f007f #fcfcfc #000000 0 1;
#X obj 141 246 nbx 3 19 1 64 0 1 \$0-mid-stuRate-s \$0-mid-stuRate-r rate 0 -8 0 12 #7f007f #fcfcfc #000000 4 256;
#X obj 166 538 vsl 19 101 0 100 0 1 \$0-mid-rev-s \$0-mid-rev-r rev 0 -9 0 12 #7f007f #fcfcfc #000000 0 1;
#X obj 141 426 nbx 3 19 0 100 0 1 \$0-mid-delFbk-s \$0-mid-delFbk-r fbk 0 -8 0 12 #7f007f #fcfcfc #000000 90 256;
#X obj 141 136 tgl 19 1 \$0-mid-phaseTgl-s \$0-mid-phaseTgl-r empty 17 7 0 10 #7f007f #ffffff #000000 1 1;
#X obj 141 276 tgl 19 1 \$0-mid-stuRnd-s \$0-mid-stuRnd-r rnd 22 10 0 12 #7f007f #fcfcfc #000000 0 1;
#X obj 201 166 tgl 19 1 \$0-high-stuTgl-s \$0-high-stuTgl-r empty 17 7 0 10 #7f007f #fcfcfc #000000 0 1;
#X obj 201 306 tgl 19 1 \$0-high-delTgl-s \$0-high-delTgl-r empty 17 7 0 10 #7f007f #fcfcfc #000000 0 1;
#X obj 201 386 nbx 3 19 1 128 0 1 \$0-high-delTime-s \$0-high-delTime-r time 0 -8 0 12 #7f007f #fcfcfc #000000 3 256;
#X obj 201 206 nbx 3 19 0 100 0 1 \$0-high-stuProb-s \$0-high-stuProb-r prob 0 -8 0 12 #7f007f #fcfcfc #000000 50 256;
#X obj 201 538 vsl 19 101 0 100 0 1 \$0-high-vol-s \$0-high-vol-r vol 0 -9 0 12 #7f007f #fcfcfc #000000 9400 1;
#X obj 201 486 bng 19 250 50 0 \$0-high-scratch-s \$0-high-scratch-r empty 17 7 0 10 #7f007f #fcfcfc #000000;
#X obj 201 456 tgl 19 1 \$0-high-reverseTgl-s \$0-high-reverseTgl-r empty 17 7 0 10 #7f007f #fcfcfc #000000 0 1;
#X obj 201 246 nbx 3 19 1 64 0 1 \$0-high-stuRate-s \$0-high-stuRate-r rate 0 -8 0 12 #7f007f #fcfcfc #000000 4 256;
#X obj 226 538 vsl 19 101 0 100 0 1 \$0-high-rev-s \$0-high-rev-r rev 0 -9 0 12 #7f007f #fcfcfc #000000 0 1;
#X obj 201 426 nbx 3 19 0 100 0 1 \$0-high-delFbk-s \$0-high-delFbk-r fbk 0 -8 0 12 #7f007f #fcfcfc #000000 90 256;
#X obj 201 136 tgl 19 1 \$0-high-phaseTgl-s \$0-high-phaseTgl-r empty 17 7 0 10 #7f007f #ffffff #000000 0 1;
#X obj 201 276 tgl 19 1 \$0-high-stuRnd-s \$0-high-stuRnd-r rnd 22 10 0 12 #7f007f #fcfcfc #000000 0 1;
#N canvas 467 533 667 297 scratch 0;
#X obj 245 72 r \$0-scratch-s;
#X obj 265 103 s \$0-low-scratch-r;
#X obj 265 124 s \$0-mid-scratch-r;
#X obj 265 145 s \$0-high-scratch-r;
#X connect 0 0 1 0;
#X connect 0 0 2 0;
#X connect 0 0 3 0;
#X restore 861 177 pd scratch;
#X obj 154 25 nbx 3 20 30 300 0 1 \$0-bpm-s \$0-bpm-r BPM 0 -8 0 12 #000000 #ffffff #000000 91 256;
#X obj 204 25 nbx 4 20 0 100 0 1 \$0-decimals-s \$0-decimals-r Decimals 0 -8 0 12 #000000 #ffffff #000000 0 256;
#X obj 141 346 nbx 3 19 0 100 0 1 \$0-mid-delLevel-s \$0-mid-delLevel-r level 0 -8 0 12 #7f007f #fcfcfc #000000 87 256;
#X obj 201 346 nbx 3 19 0 100 0 1 \$0-high-delLevel-s \$0-high-delLevel-r level 0 -8 0 12 #7f007f #fcfcfc #000000 100 256;
#X obj 671 256 nbx 3 19 0 100 0 1 \$0-synth-mutation-s \$0-synth-mutation-r mutation 0 -8 0 12 #000000 #ffffff #000000 52 256;
#X obj 671 456 hradio 19 1 1 4 \$0-synth-type-s \$0-synth-type-r Type: FM 0 -8 0 12 #000000 #ffffff #000000 0;
#X obj 671 336 nbx 3 19 1 6 0 1 \$0-synth-range-s \$0-synth-range-r range 0 -8 0 12 #000000 #ffffff #000000 2 256;
#X obj 671 376 nbx 3 19 1 6 0 1 \$0-synth-octave-s \$0-synth-octave-r octave 0 -8 0 12 #000000 #ffffff #000000 4 256;
#X obj 671 296 nbx 3 19 0 100 0 1 \$0-synth-density-s \$0-synth-density-r density 0 -8 0 12 #000000 #ffffff #000000 60 256;
#X obj 671 216 nbx 3 19 0 16 0 1 \$0-synth-length-s \$0-synth-length-r length 0 -8 0 12 #000000 #ffffff #000000 16 256;
#X obj 671 176 nbx 3 19 1 16 0 1 \$0-synth-div-s \$0-synth-div-r div 0 -8 0 12 #000000 #ffffff #000000 1 256;
#X obj 671 136 nbx 3 19 0 16 0 1 \$0-synth-offset-s \$0-synth-offset-r offset 0 -8 0 12 #000000 #ffffff #000000 2 256;
#N canvas 766 22 1154 1036 synth 0;
#X obj 18 21 r \$0-clock;
#X obj 18 189 change -1;
#X obj 45 147 r \$0-synth-div-s;
#X obj 18 168 div 1;
#X obj 18 256 % 16;
#X obj 39 235 r \$0-synth-length-s;
#X obj 18 277 t f f;
#X obj 162 293 t b f;
#X obj 60 319 random 100;
#X obj 75 360 r \$0-synth-mutation-s;
#X obj 60 444 tabwrite \$0-synthPitch;
#X obj 60 381 <;
#X obj 60 402 sel 1;
#X obj 60 423 random 7;
#X obj 215 360 r \$0-synth-range-s;
#X obj 215 381 * 7;
#X obj 215 402 + 1;
#X text 75 340 GUI: Synth Mutation;
#X text 215 340 GUI: Synth Range;
#X obj 45 483 tabread \$0-synthPitch;
#X obj 45 511 +;
#X obj 213 453 r \$0-synth-octave-s;
#X obj 213 474 * 7;
#X obj 213 495 + 1;
#X text 213 433 GUI: Synth Octave;
#X obj 122 851 makenote 127 50;
#X obj 287 679 r \$0-synth-div-s;
#X obj 287 700 t b f;
#X obj 287 743 value \$0-quarter;
#X obj 287 764 / 16;
#X obj 299 785 *;
#X text 45 127 GUI: Synth Div;
#X text 39 215 GUI: Synth Length;
#X text 287 659 GUI: Synth Div;
#X obj 462 293 t b f;
#X obj 340 319 random 100;
#X obj 355 360 r \$0-synth-mutation-s;
#X obj 340 381 <;
#X obj 340 402 sel 1;
#X text 355 340 GUI: Synth Mutation;
#X obj 340 423 random 100;
#X obj 366 444 tabwrite \$0-synthGate;
#X obj 18 457 t f f;
#X text 32 697 GUI: Synth Density;
#X obj 33 717 r \$0-synth-density-s;
#X obj 18 677 tabread \$0-synthGate;
#X obj 18 738 <;
#X obj 18 759 select 1;
#X obj 297 722 r \$0-quarter;
#X obj 45 533 t f f;
#X obj 45 554 % 7;
#X obj 45 575 tabread \$0-scale;
#X obj 45 596 +;
#X obj 45 617 +;
#X obj 157 549 div 7;
#X obj 157 580 * 12;
#X obj 200 601 r \$0-key-s;
#X text 33 67 GUI: Synth Div;
#X obj 33 87 r \$0-synth-offset-s;
#X obj 18 108 +;
#X obj 122 882 pack f f;
#X obj 122 903 s \$0-synthNote;
#X obj 492 524 r \$0-synthNote;
#X obj 642 293 t b f;
#X obj 520 319 random 100;
#X obj 535 360 r \$0-synth-mutation-s;
#X obj 520 381 <;
#X obj 520 402 sel 1;
#X text 535 340 GUI: Synth Mutation;
#X obj 263 172 array define -k \$0-synthPitch;
#A resize 100;
#A 0 7 4 12 10 4 4 12 6 3 5 1 9 14 4 8 2 0 0 0 0 0 0 0 0 0 0 0 0 0 0 0 0 0 0 0 0 0 0 0 0 0 0 0 0 0 0 0 0 0 0 0 0 0 0 0 0 0 0 0 0 0 0 0 0 0 0 0 0 0 0 0 0 0 0 0 0 0 0 0 0 0 0 0 0 0 0 0 0 0 0 0 0 0 0 0 0 0 0 0 0;
#X obj 263 192 array define -k \$0-synthGate;
#A resize 100;
#A 0 73 88 40 47 79 23 16 73 8 72 51 40 95 17 94 42 0 0 0 0 0 0 0 0 0 0 0 0 0 0 0 0 0 0 0 0 0 0 0 0 0 0 0 0 0 0 0 0 0 0 0 0 0 0 0 0 0 0 0 0 0 0 0 0 0 0 0 0 0 0 0 0 0 0 0 0 0 0 0 0 0 0 0 0 0 0 0 0 0 0 0 0 0 0 0 0 0 0 0 0;
#X obj 492 545 unpack f f;
#X obj 492 566 poly 6 1;
#X obj 492 587 pack f f f;
#X obj 66 811 spigot;
#X obj 546 470 tabwrite \$0-synthVelocity;
#X obj 520 423 random 127;
#X obj 520 444 + 1;
#X obj 263 212 array define -k \$0-synthVelocity;
#A resize 100;
#A 0 78 3 114 109 67 16 51 102 48 53 44 110 111 86 38 62 0 0 0 0 0 0 0 0 0 0 0 0 0 0 0 0 0 0 0 0 0 0 0 0 0 0 0 0 0 0 0 0 0 0 0 0 0 0 0 0 0 0 0 0 0 0 0 0 0 0 0 0 0 0 0 0 0 0 0 0 0 0 0 0 0 0 0 0 0 0 0 0 0 0 0 0 0 0 0 0 0 0 0 0;
#X obj 87 651 tabread \$0-synthVelocity;
#X obj 30 785 pack f f f;
#X obj 99 773 r \$0-synth-tgl-s;
#X text 98 753 GUI: Synth Toggle;
#X msg 66 832 \$2 \$3;
#X obj 642 670 clone -s 1 abs/subVoice~ 6 \$0;
#X obj 462 909 *~;
#X obj 462 935 throw~ \$0-left;
#X obj 562 909 *~;
#X obj 562 935 throw~ \$0-right;
#X obj 627 809 / 100;
#X obj 627 830 pow 2;
#X msg 627 872 \$1 100;
#X obj 627 893 line~;
#X obj 627 851 * 2;
#X obj 627 788 r \$0-synth-vol-s;
#X text 571 562 GUI: Synth Mutation;
#X obj 571 582 r \$0-synth-type-s;
#X obj 492 608 list prepend;
#X obj 492 629 route 0 1;
#X obj 452 670 clone -s 1 abs/fmVoice~ 6 \$0;
#X obj 263 142 text define -k \$0-typeLabel;
#A set FM \; Sub \;;
#X obj 494 88 r \$0-synth-type-s;
#X obj 494 109 text get \$0-typeLabel;
#X msg 494 130 label Type: \$1;
#X obj 494 151 s \$0-synth-type-r;
#X obj 813 598 osc~;
#X obj 813 634 *~;
#X obj 862 608 line~;
#X obj 862 545 / 100;
#X msg 862 587 \$1 20;
#X obj 862 566 * 0.5;
#X obj 862 523 r \$0-synth-vibrato-s;
#X text 862 504 GUI: Synth Vibrato;
#X obj 813 493 / 100;
#X obj 813 471 r \$0-synth-rate-s;
#X text 813 452 GUI: Synth Rate;
#X obj 813 514 * 11;
#X obj 813 535 - 4;
#X msg 813 556 2 \$1;
#X obj 813 577 pow;
#X obj 452 691 *~ 0.167;
#X obj 434 749 abs/stutter-abs~ \$0 synth;
#X obj 434 775 abs/delay-abs~ \$0 synth;
#X obj 434 801 abs/reverse~ \$0 synth;
#X obj 434 827 abs/reverb-abs~ \$0 synth;
#X connect 0 0 59 0;
#X connect 1 0 4 0;
#X connect 2 0 3 1;
#X connect 3 0 1 0;
#X connect 4 0 6 0;
#X connect 5 0 4 1;
#X connect 6 0 42 0;
#X connect 6 1 7 0;
#X connect 6 1 34 0;
#X connect 6 1 63 0;
#X connect 7 0 8 0;
#X connect 7 1 10 1;
#X connect 8 0 11 0;
#X connect 9 0 11 1;
#X connect 11 0 12 0;
#X connect 12 0 13 0;
#X connect 13 0 10 0;
#X connect 14 0 15 0;
#X connect 15 0 16 0;
#X connect 16 0 13 1;
#X connect 19 0 20 0;
#X connect 20 0 49 0;
#X connect 21 0 22 0;
#X connect 22 0 23 0;
#X connect 23 0 20 1;
#X connect 25 0 60 0;
#X connect 25 1 60 1;
#X connect 26 0 27 0;
#X connect 27 0 28 0;
#X connect 27 1 30 1;
#X connect 28 0 29 0;
#X connect 29 0 30 0;
#X connect 30 0 25 2;
#X connect 34 0 35 0;
#X connect 34 1 41 1;
#X connect 35 0 37 0;
#X connect 36 0 37 1;
#X connect 37 0 38 0;
#X connect 38 0 40 0;
#X connect 40 0 41 0;
#X connect 42 0 45 0;
#X connect 42 1 19 0;
#X connect 42 1 79 0;
#X connect 44 0 46 1;
#X connect 45 0 46 0;
#X connect 46 0 47 0;
#X connect 47 0 80 0;
#X connect 48 0 29 0;
#X connect 49 0 50 0;
#X connect 49 1 54 0;
#X connect 50 0 51 0;
#X connect 51 0 52 0;
#X connect 52 0 53 0;
#X connect 53 0 80 1;
#X connect 54 0 55 0;
#X connect 55 0 52 1;
#X connect 56 0 53 1;
#X connect 58 0 59 1;
#X connect 59 0 3 0;
#X connect 60 0 61 0;
#X connect 62 0 71 0;
#X connect 63 0 64 0;
#X connect 63 1 75 1;
#X connect 64 0 66 0;
#X connect 65 0 66 1;
#X connect 66 0 67 0;
#X connect 67 0 76 0;
#X connect 71 0 72 0;
#X connect 71 1 72 1;
#X connect 72 0 73 0;
#X connect 72 1 73 1;
#X connect 72 2 73 2;
#X connect 73 0 97 0;
#X connect 74 0 83 0;
#X connect 76 0 77 0;
#X connect 77 0 75 0;
#X connect 79 0 80 2;
#X connect 80 0 74 0;
#X connect 81 0 74 1;
#X connect 83 0 25 0;
#X connect 84 0 120 0;
#X connect 85 0 86 0;
#X connect 87 0 88 0;
#X connect 89 0 90 0;
#X connect 90 0 93 0;
#X connect 91 0 92 0;
#X connect 92 0 87 1;
#X connect 92 0 85 1;
#X connect 93 0 91 0;
#X connect 94 0 89 0;
#X connect 96 0 97 1;
#X connect 97 0 98 0;
#X connect 98 0 99 0;
#X connect 98 1 84 0;
#X connect 99 0 120 0;
#X connect 101 0 102 0;
#X connect 102 0 103 0;
#X connect 103 0 104 0;
#X connect 105 0 106 0;
#X connect 106 0 84 1;
#X connect 106 0 99 1;
#X connect 107 0 106 1;
#X connect 108 0 110 0;
#X connect 109 0 107 0;
#X connect 110 0 109 0;
#X connect 111 0 108 0;
#X connect 113 0 116 0;
#X connect 114 0 113 0;
#X connect 116 0 117 0;
#X connect 117 0 118 0;
#X connect 118 0 119 0;
#X connect 119 0 105 0;
#X connect 120 0 121 0;
#X connect 120 0 121 1;
#X connect 121 0 122 0;
#X connect 121 1 122 1;
#X connect 122 0 123 0;
#X connect 122 1 123 1;
#X connect 123 0 124 0;
#X connect 123 1 124 1;
#X connect 124 0 85 0;
#X connect 124 1 87 0;
#X restore 861 407 pd synth;
#X obj 41 538 vsl 19 101 0 100 0 1 \$0-mix-vol-s \$0-mix-vol-r vol 0 -9 0 12 #7f007f #fcfcfc #000000 6100 1;
#N canvas 1028 22 795 1036 ms20 0;
#X obj 18 21 r \$0-clock;
#X obj 18 189 change -1;
#X obj 45 147 r \$0-ms20-div-s;
#X obj 18 168 div 1;
#X obj 18 256 % 16;
#X obj 39 235 r \$0-ms20-length-s;
#X obj 18 277 t f f;
#X obj 162 293 t b f;
#X obj 60 319 random 100;
#X obj 75 360 r \$0-ms20-mutation-s;
#X obj 60 444 tabwrite \$0-ms20Pitch;
#X obj 60 381 <;
#X obj 60 402 sel 1;
#X obj 60 423 random 7;
#X obj 215 360 r \$0-ms20-range-s;
#X obj 215 381 * 7;
#X obj 215 402 + 1;
#X text 75 340 GUI: ms20 Mutation;
#X text 215 340 GUI: ms20 Range;
#X obj 45 483 tabread \$0-ms20Pitch;
#X obj 45 511 +;
#X obj 213 453 r \$0-ms20-octave-s;
#X obj 213 474 * 7;
#X obj 213 495 + 1;
#X text 213 433 GUI: ms20 Octave;
#X obj 122 862 makenote 127 50;
#X obj 227 659 r \$0-ms20-div-s;
#X obj 227 680 t b f;
#X obj 227 723 value \$0-quarter;
#X obj 227 744 / 16;
#X obj 239 765 *;
#X text 45 127 GUI: ms20 Div;
#X text 39 215 GUI: ms20 Length;
#X text 227 639 GUI: ms20 Div;
#X obj 462 293 t b f;
#X obj 340 319 random 100;
#X obj 355 360 r \$0-ms20-mutation-s;
#X obj 340 381 <;
#X obj 340 402 sel 1;
#X text 355 340 GUI: ms20 Mutation;
#X obj 340 423 random 100;
#X obj 366 444 tabwrite \$0-ms20Gate;
#X obj 18 457 t f f;
#X text 32 697 GUI: ms20 Density;
#X obj 33 717 r \$0-ms20-density-s;
#X obj 18 677 tabread \$0-ms20Gate;
#X obj 18 738 <;
#X obj 18 759 select 1;
#X obj 30 785 i;
#X obj 237 702 r \$0-quarter;
#X obj 45 533 t f f;
#X obj 45 554 % 7;
#X obj 45 575 tabread \$0-scale;
#X obj 45 596 +;
#X obj 45 617 +;
#X obj 157 549 div 7;
#X obj 157 580 * 12;
#X obj 200 601 r \$0-key-s;
#X text 33 67 GUI: ms20 Div;
#X obj 33 87 r \$0-ms20-offset-s;
#X obj 18 108 +;
#X obj 642 293 t b f;
#X obj 520 319 random 100;
#X obj 535 360 r \$0-ms20-mutation-s;
#X obj 520 381 <;
#X obj 520 402 sel 1;
#X text 535 340 GUI: ms20 Mutation;
#X obj 520 423 random 100;
#X obj 546 444 tabwrite \$0-ms20Param;
#X obj 122 893 noteout;
#X obj 432 721 adc~ 3;
#X obj 239 786 * 0.7;
#X obj 273 172 array define -k \$0-ms20Pitch;
#A resize 100;
#A 0 10 2 17 20 3 10 0 7 21 16 14 17 2 21 7 9 0 0 0 0 0 0 0 0 0 0 0 0 0 0 0 0 0 0 0 0 0 0 0 0 0 0 0 0 0 0 0 0 0 0 0 0 0 0 0 0 0 0 0 0 0 0 0 0 0 0 0 0 0 0 0 0 0 0 0 0 0 0 0 0 0 0 0 0 0 0 0 0 0 0 0 0 0 0 0 0 0 0 0 0;
#X obj 273 192 array define -k \$0-ms20Gate;
#A resize 100;
#A 0 87 47 25 85 10 67 32 49 43 11 5 38 66 21 17 11 0 0 0 0 0 0 0 0 0 0 0 0 0 0 0 0 0 0 0 0 0 0 0 0 0 0 0 0 0 0 0 0 0 0 0 0 0 0 0 0 0 0 0 0 0 0 0 0 0 0 0 0 0 0 0 0 0 0 0 0 0 0 0 0 0 0 0 0 0 0 0 0 0 0 0 0 0 0 0 0 0 0 0 0;
#X obj 273 212 array define -k \$0-ms20Param;
#A resize 100;
#A 0 84 94 3 57 84 4 5 48 13 60 21 99 68 54 37 71 0 0 0 0 0 0 0 0 0 0 0 0 0 0 0 0 0 0 0 0 0 0 0 0 0 0 0 0 0 0 0 0 0 0 0 0 0 0 0 0 0 0 0 0 0 0 0 0 0 0 0 0 0 0 0 0 0 0 0 0 0 0 0 0 0 0 0 0 0 0 0 0 0 0 0 0 0 0 0 0 0 0 0 0;
#X obj 432 868 *~;
#X obj 432 894 throw~ \$0-left;
#X obj 563 868 *~;
#X obj 563 894 throw~ \$0-right;
#X obj 432 779 abs/delay-abs~ \$0 ms20;
#X obj 432 805 abs/reverse~ \$0 ms20;
#X obj 432 753 abs/stutter-abs~ \$0 ms20;
#X obj 598 768 / 100;
#X obj 598 789 pow 2;
#X msg 598 831 \$1 100;
#X obj 598 852 line~;
#X obj 598 747 r \$0-ms20-vol-s;
#X obj 432 831 abs/reverb-abs~ \$0 ms20;
#X obj 598 810 * 2;
#X obj 66 832 spigot;
#X obj 99 803 r \$0-ms20-tgl-s;
#X obj 30 811 pipe 520;
#X text 98 783 GUI: ms20 Toggle;
#X connect 0 0 60 0;
#X connect 1 0 4 0;
#X connect 2 0 3 1;
#X connect 3 0 1 0;
#X connect 4 0 6 0;
#X connect 5 0 4 1;
#X connect 6 0 42 0;
#X connect 6 1 7 0;
#X connect 6 1 34 0;
#X connect 6 1 61 0;
#X connect 7 0 8 0;
#X connect 7 1 10 1;
#X connect 8 0 11 0;
#X connect 9 0 11 1;
#X connect 11 0 12 0;
#X connect 12 0 13 0;
#X connect 13 0 10 0;
#X connect 14 0 15 0;
#X connect 15 0 16 0;
#X connect 16 0 13 1;
#X connect 19 0 20 0;
#X connect 20 0 50 0;
#X connect 21 0 22 0;
#X connect 22 0 23 0;
#X connect 23 0 20 1;
#X connect 25 0 69 0;
#X connect 25 1 69 1;
#X connect 26 0 27 0;
#X connect 27 0 28 0;
#X connect 27 1 30 1;
#X connect 28 0 29 0;
#X connect 29 0 30 0;
#X connect 30 0 71 0;
#X connect 34 0 35 0;
#X connect 34 1 41 1;
#X connect 35 0 37 0;
#X connect 36 0 37 1;
#X connect 37 0 38 0;
#X connect 38 0 40 0;
#X connect 40 0 41 0;
#X connect 42 0 45 0;
#X connect 42 1 19 0;
#X connect 44 0 46 1;
#X connect 45 0 46 0;
#X connect 46 0 47 0;
#X connect 47 0 48 0;
#X connect 48 0 91 0;
#X connect 49 0 29 0;
#X connect 50 0 51 0;
#X connect 50 1 55 0;
#X connect 51 0 52 0;
#X connect 52 0 53 0;
#X connect 53 0 54 0;
#X connect 54 0 48 1;
#X connect 55 0 56 0;
#X connect 56 0 53 1;
#X connect 57 0 54 1;
#X connect 59 0 60 1;
#X connect 60 0 3 0;
#X connect 61 0 62 0;
#X connect 61 1 68 1;
#X connect 62 0 64 0;
#X connect 63 0 64 1;
#X connect 64 0 65 0;
#X connect 65 0 67 0;
#X connect 67 0 68 0;
#X connect 70 0 81 0;
#X connect 70 0 81 1;
#X connect 71 0 25 2;
#X connect 75 0 76 0;
#X connect 77 0 78 0;
#X connect 79 0 80 0;
#X connect 79 1 80 1;
#X connect 80 0 87 0;
#X connect 80 1 87 1;
#X connect 81 0 79 0;
#X connect 81 1 79 1;
#X connect 82 0 83 0;
#X connect 83 0 88 0;
#X connect 84 0 85 0;
#X connect 85 0 77 1;
#X connect 85 0 75 1;
#X connect 86 0 82 0;
#X connect 87 0 75 0;
#X connect 87 1 77 0;
#X connect 88 0 84 0;
#X connect 89 0 25 0;
#X connect 90 0 89 1;
#X connect 91 0 89 0;
#X restore 861 327 pd ms20;
#X obj 331 256 nbx 3 19 0 100 0 1 \$0-ms20-mutation-s \$0-ms20-mutation-r mutation 0 -8 0 12 #000000 #ffffff #000000 22 256;
#X obj 331 336 nbx 3 19 1 6 0 1 \$0-ms20-range-s \$0-ms20-range-r range 0 -8 0 12 #000000 #ffffff #000000 3 256;
#X obj 331 376 nbx 3 19 1 6 0 1 \$0-ms20-octave-s \$0-ms20-octave-r octave 0 -8 0 12 #000000 #ffffff #000000 4 256;
#X obj 331 296 nbx 3 19 0 100 0 1 \$0-ms20-density-s \$0-ms20-density-r density 0 -8 0 12 #000000 #ffffff #000000 57 256;
#X obj 331 216 nbx 3 19 0 16 0 1 \$0-ms20-length-s \$0-ms20-length-r length 0 -8 0 12 #000000 #ffffff #000000 16 256;
#X obj 331 176 nbx 3 19 1 16 0 1 \$0-ms20-div-s \$0-ms20-div-r div 0 -8 0 12 #000000 #ffffff #000000 2 256;
#X obj 331 136 nbx 3 19 0 16 0 1 \$0-ms20-offset-s \$0-ms20-offset-r offset 0 -8 0 12 #000000 #ffffff #000000 0 256;
#X obj 271 166 tgl 19 1 \$0-ms20-stuTgl-s \$0-ms20-stuTgl-r empty 17 7 0 10 #000000 #ffffff #000000 0 1;
#X obj 271 306 tgl 19 1 \$0-ms20-delTgl-s \$0-ms20-delTgl-r empty 17 7 0 10 #000000 #ffffff #000000 1 1;
#X obj 271 386 nbx 3 19 1 128 0 1 \$0-ms20-delTime-s \$0-ms20-delTime-r time 0 -8 0 12 #000000 #ffffff #000000 16 256;
#X obj 271 206 nbx 3 19 0 100 0 1 \$0-ms20-stuProb-s \$0-ms20-stuProb-r prob 0 -8 0 12 #000000 #ffffff #000000 100 256;
#X obj 271 456 tgl 19 1 \$0-ms20-reverseTgl-s \$0-ms20-reverseTgl-r empty 17 7 0 10 #000000 #ffffff #000000 0 1;
#X obj 271 246 nbx 3 19 1 64 0 1 \$0-ms20-stuRate-s \$0-ms20-stuRate-r rate 0 -8 0 12 #000000 #ffffff #000000 16 256;
#X obj 271 426 nbx 3 19 0 100 0 1 \$0-ms20-delFbk-s \$0-ms20-delFbk-r fbk 0 -8 0 12 #000000 #ffffff #000000 93 256;
#X obj 271 276 tgl 19 1 \$0-ms20-stuRnd-s \$0-ms20-stuRnd-r rnd 22 10 0 12 #000000 #ffffff #000000 0 1;
#X obj 271 346 nbx 3 19 0 100 0 1 \$0-ms20-delLevel-s \$0-ms20-delLevel-r level 0 -8 0 12 #000000 #ffffff #000000 42 256;
#X obj 331 538 vsl 19 101 0 100 0 1 \$0-ms20-vol-s \$0-ms20-vol-r vol 0 -9 0 12 #000000 #ffffff #000000 0 1;
#X obj 356 538 vsl 19 101 0 100 0 1 \$0-ms20-rev-s \$0-ms20-rev-r rev 0 -9 0 12 #000000 #fcfcfc #000000 8200 1;
#X obj 271 56 cnv 19 60 19 empty empty MS20 4 10 0 12 #000000 #ffffff 0;
#X obj 256 56 cnv 5 5 600 empty empty empty 4 10 0 12 #000000 #ffffff 0;
#X obj 411 56 cnv 19 60 19 empty empty BD 4 10 0 12 #000000 #ffffff 0;
#X obj 396 56 cnv 5 5 600 empty empty empty 4 10 0 12 #000000 #ffffff 0;
#X obj 411 26 bng 19 100 50 0 empty \$0-beat Beat 0 -8 0 12 #000000 #ffffff #000000;
#N canvas 0 279 1300 766 bass-drum 0;
#X obj 717 488 throw~ \$0-mono;
#X obj 397 248 + 24;
#X obj 397 269 sig~;
#X obj 627 305 mtof~;
#X obj 627 326 osc~;
#X obj 717 343 *~;
#X obj 884 174 value \$0-quarter;
#X obj 717 462 *~;
#X obj 867 374 s~ \$0-duck;
#X obj 867 353 lop~ 50;
#X obj 771 362 r \$0-bd-vol-s;
#X msg 771 425 \$1 20;
#X obj 771 446 line~;
#X obj 771 383 / 100;
#X obj 771 404 pow 2;
#X obj 447 269 *~ 36;
#X obj 552 253 -;
#X obj 22 22 r \$0-clock;
#X obj 22 93 +;
#X text 37 47 GUI: BD clock offset;
#X obj 37 67 r \$0-bd-cof-s;
#X obj 22 133 div 1;
#X obj 57 107 r \$0-bd-div-s;
#X text 57 87 GUI: BD div;
#X obj 22 154 change -1;
#X obj 22 223 +;
#X obj 22 244 * 4;
#X text 207 187 GUI: BD clock offset;
#X obj 207 228 t f f;
#X obj 72 295 % 16;
#X obj 219 316 < 4;
#X obj 207 207 r \$0-bd-hits-s;
#X obj 93 269 r \$0-bd-length-s;
#X text 93 249 GUI: BD length;
#X text 37 177 GUI: BD offset;
#X obj 37 197 r \$0-bd-offset-s;
#X obj 249 363 spigot;
#X obj 219 337 select 1;
#X obj 282 322 r \$0-bd-tgl-s;
#X text 282 302 GUI: BD toggle;
#X obj 249 389 s \$0-bd-trg;
#X obj 397 180 r \$0-bd-trg;
#X obj 447 227 r \$0-bd-trg;
#X obj 884 153 r \$0-bd-trg;
#X obj 696 289 r \$0-bd-trg;
#X obj 397 201 value \$0-bd-key-s;
#X obj 552 211 pack f f;
#X msg 552 232 \$2 \$1;
#X obj 447 248 else/decay~ 150;
#X msg 697 310 0.25;
#X obj 867 327 line~;
#X obj 884 215 t b b f;
#X obj 898 259 delay 2;
#X msg 867 248 1 1;
#X obj 908 280 f;
#X msg 908 301 0 \$1;
#X obj 884 194 / 2;
#X obj 597 127 r \$0-bd-bend-s;
#X obj 597 169 * 35;
#X obj 597 190 + 12;
#X obj 552 55 r \$0-bd-trg;
#X obj 552 76 value \$0-bd-key-s;
#X obj 627 269 *~ 36;
#X obj 732 253 -;
#X obj 627 227 r \$0-bd-trg;
#X obj 732 211 pack f f;
#X msg 732 232 \$2 \$1;
#X obj 732 116 r \$0-bd-trg;
#X obj 732 137 value \$0-bd-key-s;
#X obj 627 248 else/decay~ 10;
#X obj 777 188 r \$0-bd-click-s;
#X text 597 107 GUI: BD Bend;
#X text 777 168 GUI: BD CLick;
#X text 1016 88 GUI: BD CLick;
#X obj 1016 108 r \$0-bd-decay-s;
#X obj 597 148 / 100;
#X obj 1016 129 / 100;
#X msg 1016 150 1 \$1;
#X obj 1016 171 -;
#X obj 1016 213 + 2;
#X obj 1016 192 * 14;
#X connect 1 0 2 0;
#X connect 2 0 3 0;
#X connect 3 0 4 0;
#X connect 4 0 5 0;
#X connect 5 0 7 0;
#X connect 6 0 56 0;
#X connect 7 0 0 0;
#X connect 9 0 8 0;
#X connect 10 0 13 0;
#X connect 11 0 12 0;
#X connect 12 0 7 1;
#X connect 13 0 14 0;
#X connect 14 0 11 0;
#X connect 15 0 3 0;
#X connect 16 0 15 1;
#X connect 17 0 18 0;
#X connect 18 0 21 0;
#X connect 20 0 18 1;
#X connect 21 0 24 0;
#X connect 22 0 21 1;
#X connect 24 0 25 0;
#X connect 25 0 26 0;
#X connect 26 0 29 0;
#X connect 28 0 26 1;
#X connect 28 1 30 1;
#X connect 29 0 30 0;
#X connect 30 0 37 0;
#X connect 31 0 28 0;
#X connect 32 0 29 1;
#X connect 35 0 25 1;
#X connect 36 0 40 0;
#X connect 37 0 36 0;
#X connect 38 0 36 1;
#X connect 41 0 45 0;
#X connect 42 0 48 0;
#X connect 43 0 6 0;
#X connect 44 0 49 0;
#X connect 45 0 1 0;
#X connect 46 0 47 0;
#X connect 47 0 16 0;
#X connect 48 0 15 0;
#X connect 49 0 4 1;
#X connect 50 0 5 1;
#X connect 50 0 9 0;
#X connect 51 0 53 0;
#X connect 51 1 52 0;
#X connect 51 2 54 1;
#X connect 52 0 54 0;
#X connect 53 0 50 0;
#X connect 54 0 55 0;
#X connect 55 0 50 0;
#X connect 56 0 51 0;
#X connect 57 0 75 0;
#X connect 58 0 59 0;
#X connect 59 0 46 1;
#X connect 60 0 61 0;
#X connect 61 0 46 0;
#X connect 62 0 3 0;
#X connect 63 0 62 1;
#X connect 64 0 69 0;
#X connect 65 0 66 0;
#X connect 66 0 63 0;
#X connect 67 0 68 0;
#X connect 68 0 65 0;
#X connect 69 0 62 0;
#X connect 70 0 65 1;
#X connect 74 0 76 0;
#X connect 75 0 58 0;
#X connect 76 0 77 0;
#X connect 77 0 78 0;
#X connect 78 0 80 0;
#X connect 79 0 56 1;
#X connect 80 0 79 0;
#X restore 861 347 pd bass-drum;
#X obj 411 336 nbx 3 19 0 12 0 1 \$0-bd-key-s \$0-bd-key-r key 0 -8 0 12 #7f0000 #ffffff #000000 4 256;
#X obj 411 96 bng 19 100 50 0 empty \$0-bd-trg BD 0 -8 0 12 #000000 #ffffff #000000;
#X obj 411 376 nbx 3 19 0 100 0 1 \$0-bd-bend-s \$0-bd-bend-r bend 0 -8 0 12 #7f0000 #ffffff #000000 30 256;
#X obj 411 416 nbx 3 19 0 100 0 1 \$0-bd-click-s \$0-bd-click-r click 0 -8 0 12 #7f0000 #ffffff #000000 67 256;
#X obj 411 456 nbx 3 19 0 100 0 1 \$0-bd-decay-s \$0-bd-decay-r decay 0 -8 0 12 #7f0000 #ffffff #000000 100 256;
#X obj 502 493 tgl 19 1 \$0-hh-tgl-s \$0-hh-tgl-r hh 0 -8 0 12 #7f0000 #ffffff #000000 1 1;
#X obj 501 176 nbx 3 19 1 16 0 1 \$0-hh-div-s \$0-hh-div-r div 0 -8 0 12 #7f0000 #ffffff #000000 1 256;
#X obj 501 216 nbx 3 19 0 32 0 1 \$0-hh-offset-s \$0-hh-offset-r offset 0 -8 0 12 #7f0000 #ffffff #000000 2 256;
#X obj 501 256 nbx 3 19 0 32 0 1 \$0-hh-hits-s \$0-hh-hits-r hits 0 -8 0 12 #7f0000 #ffffff #000000 12 256;
#X obj 501 296 nbx 3 19 1 32 0 1 \$0-hh-length-s \$0-hh-length-r length 0 -8 0 12 #7f0000 #ffffff #000000 16 256;
#X obj 501 136 nbx 3 19 0 16 0 1 \$0-hh-cof-s \$0-hh-cof-r cof 0 -8 0 12 #7f0000 #ffffff #000000 0 256;
#X obj 501 538 vsl 19 101 0 100 0 1 \$0-hh-vol-s \$0-hh-vol-r vol 0 -9 0 12 #7f0000 #ffffff #000000 8400 1;
#X obj 501 56 cnv 19 60 19 empty empty HH 4 10 0 12 #000000 #ffffff 0;
#X obj 486 56 cnv 5 5 600 empty empty empty 4 10 0 12 #000000 #ffffff 0;
#X obj 501 96 bng 19 100 50 0 empty \$0-hh-trg HH 0 -8 0 12 #000000 #ffffff #000000;
#X obj 501 376 nbx 3 19 0 100 0 1 \$0-hh-cutoff-s \$0-hh-cutoff-r cutoff 0 -8 0 12 #7f0000 #ffffff #000000 67 256;
#X obj 501 416 nbx 3 19 0 100 0 1 \$0-hh-attack-s \$0-hh-attack-r attack 0 -8 0 12 #7f0000 #ffffff #000000 52 256;
#X obj 501 456 nbx 3 19 0 100 0 1 \$0-hh-decay-s \$0-hh-decay-r decay 0 -8 0 12 #7f0000 #ffffff #000000 6 256;
#N canvas 208 279 1297 570 hihat 0;
#X obj 717 488 throw~ \$0-mono;
#X obj 717 343 *~;
#X obj 717 462 *~;
#X obj 771 362 r \$0-hh-vol-s;
#X msg 771 425 \$1 20;
#X obj 771 446 line~;
#X obj 771 383 / 100;
#X obj 771 404 pow 2;
#X obj 22 22 r \$0-clock;
#X obj 22 93 +;
#X text 37 47 GUI: hh clock offset;
#X obj 37 67 r \$0-hh-cof-s;
#X obj 22 133 div 1;
#X obj 57 107 r \$0-hh-div-s;
#X text 57 87 GUI: hh div;
#X obj 22 154 change -1;
#X obj 22 223 +;
#X obj 22 244 * 4;
#X text 207 187 GUI: hh clock offset;
#X obj 207 228 t f f;
#X obj 72 295 % 16;
#X obj 219 316 < 4;
#X obj 207 207 r \$0-hh-hits-s;
#X obj 93 269 r \$0-hh-length-s;
#X text 93 249 GUI: hh length;
#X text 37 177 GUI: hh offset;
#X obj 37 197 r \$0-hh-offset-s;
#X obj 249 363 spigot;
#X obj 219 337 select 1;
#X obj 282 322 r \$0-hh-tgl-s;
#X text 282 302 GUI: hh toggle;
#X obj 249 389 s \$0-hh-trg;
#X obj 865 229 r \$0-hh-trg;
#X obj 593 269 noise~;
#X obj 865 290 f;
#X obj 1015 142 r \$0-hh-attack-s;
#X obj 1015 163 / 100;
#X obj 1015 184 t b f;
#X obj 955 205 v \$0-quarter;
#X obj 955 256 / 16;
#X obj 965 225 r \$0-quarter;
#X obj 1027 277 *;
#X text 1015 122 GUI: hh attack;
#X obj 1172 144 / 100;
#X obj 1172 165 t b f;
#X obj 1112 186 v \$0-quarter;
#X obj 1122 206 r \$0-quarter;
#X obj 1184 258 *;
#X obj 1172 123 r \$0-hh-decay-s;
#X text 1172 103 GUI: hh decay;
#X obj 1005 311 pack f f;
#X msg 1005 332 1 \$1 \, 0 \$2 \$1;
#X obj 1005 353 vline~;
#X obj 700 152 r \$0-hh-cutoff-s;
#X obj 700 173 / 100;
#X obj 700 194 * 15;
#X obj 700 215 + 108;
#X obj 700 236 mtof;
#X msg 700 257 \$1 20;
#X obj 700 278 line~;
#X obj 1005 374 *~;
#X obj 593 315 else/highpass~ 4000 1.4;
#X obj 593 289 else/power~ 3;
#X obj 729 36 sig~ 1;
#X obj 729 57 -~;
#X obj 671 106 pow~;
#X obj 673 69 sig~ 10;
#X obj 729 78 *~ 2;
#X obj 1112 237 * 1;
#X obj 417 188 r \$0-hh-tgl-s;
#X text 417 168 GUI: hh toggle;
#X obj 417 209 switch~;
#X connect 1 0 2 0;
#X connect 2 0 0 0;
#X connect 3 0 6 0;
#X connect 4 0 5 0;
#X connect 5 0 2 1;
#X connect 6 0 7 0;
#X connect 7 0 4 0;
#X connect 8 0 9 0;
#X connect 9 0 12 0;
#X connect 11 0 9 1;
#X connect 12 0 15 0;
#X connect 13 0 12 1;
#X connect 15 0 16 0;
#X connect 16 0 17 0;
#X connect 17 0 20 0;
#X connect 19 0 17 1;
#X connect 19 1 21 1;
#X connect 20 0 21 0;
#X connect 21 0 28 0;
#X connect 22 0 19 0;
#X connect 23 0 20 1;
#X connect 26 0 16 1;
#X connect 27 0 31 0;
#X connect 28 0 27 0;
#X connect 29 0 27 1;
#X connect 32 0 34 0;
#X connect 33 0 62 0;
#X connect 34 0 50 0;
#X connect 35 0 36 0;
#X connect 36 0 37 0;
#X connect 37 0 38 0;
#X connect 37 1 41 1;
#X connect 38 0 39 0;
#X connect 39 0 41 0;
#X connect 40 0 39 0;
#X connect 41 0 34 1;
#X connect 43 0 44 0;
#X connect 44 0 45 0;
#X connect 44 1 47 1;
#X connect 45 0 68 0;
#X connect 46 0 68 0;
#X connect 47 0 50 1;
#X connect 48 0 43 0;
#X connect 50 0 51 0;
#X connect 51 0 52 0;
#X connect 52 0 60 0;
#X connect 52 0 60 1;
#X connect 52 0 64 1;
#X connect 53 0 54 0;
#X connect 54 0 55 0;
#X connect 55 0 56 0;
#X connect 56 0 57 0;
#X connect 57 0 58 0;
#X connect 58 0 59 0;
#X connect 59 0 61 1;
#X connect 60 0 1 1;
#X connect 61 0 1 0;
#X connect 62 0 61 0;
#X connect 63 0 64 0;
#X connect 64 0 67 0;
#X connect 65 0 62 1;
#X connect 66 0 65 0;
#X connect 67 0 65 1;
#X connect 68 0 47 0;
#X connect 69 0 71 0;
#X restore 861 367 pd hihat;
#X obj 592 493 tgl 19 1 \$0-sd-tgl-s \$0-sd-tgl-r sd 0 -8 0 12 #7f0000 #ffffff #000000 1 1;
#X obj 591 176 nbx 3 19 1 16 0 1 \$0-sd-div-s \$0-sd-div-r div 0 -8 0 12 #7f0000 #ffffff #000000 1 256;
#X obj 591 216 nbx 3 19 0 32 0 1 \$0-sd-offset-s \$0-sd-offset-r offset 0 -8 0 12 #7f0000 #ffffff #000000 2 256;
#X obj 591 256 nbx 3 19 0 32 0 1 \$0-sd-hits-s \$0-sd-hits-r hits 0 -8 0 12 #7f0000 #ffffff #000000 2 256;
#X obj 591 296 nbx 3 19 1 32 0 1 \$0-sd-length-s \$0-sd-length-r length 0 -8 0 12 #7f0000 #ffffff #000000 16 256;
#X obj 591 136 nbx 3 19 0 16 0 1 \$0-sd-cof-s \$0-sd-cof-r cof 0 -8 0 12 #7f0000 #ffffff #000000 0 256;
#X obj 591 538 vsl 19 101 0 100 0 1 \$0-sd-vol-s \$0-sd-vol-r vol 0 -9 0 12 #7f0000 #ffffff #000000 7400 1;
#X obj 591 56 cnv 19 60 19 empty empty sd 4 10 0 12 #000000 #ffffff 0;
#X obj 576 56 cnv 5 5 600 empty empty empty 4 10 0 12 #000000 #ffffff 0;
#X obj 591 96 bng 19 100 50 0 empty \$0-sd-trg sd 0 -8 0 12 #000000 #ffffff #000000;
#X obj 591 416 nbx 3 19 0 100 0 1 \$0-sd-cutoff-s \$0-sd-cutoff-r cutoff 0 -8 0 12 #7f0000 #ffffff #000000 11 256;
#X obj 591 456 nbx 3 19 0 100 0 1 \$0-sd-snap-s \$0-sd-snap-r snap 0 -8 0 12 #7f0000 #ffffff #000000 73 256;
#N canvas 27 253 1135 622 snare-drum 0;
#X obj 562 523 throw~ \$0-mono;
#X obj 562 310 *~;
#X obj 562 497 *~;
#X obj 616 397 r \$0-sd-vol-s;
#X msg 616 460 \$1 20;
#X obj 616 481 line~;
#X obj 616 418 / 100;
#X obj 616 439 pow 2;
#X obj 22 22 r \$0-clock;
#X obj 22 93 +;
#X text 37 47 GUI: sd clock offset;
#X obj 37 67 r \$0-sd-cof-s;
#X obj 22 133 div 1;
#X obj 57 107 r \$0-sd-div-s;
#X text 57 87 GUI: sd div;
#X obj 22 154 change -1;
#X obj 22 223 +;
#X obj 22 244 * 4;
#X text 207 187 GUI: sd clock offset;
#X obj 207 228 t f f;
#X obj 72 295 % 16;
#X obj 219 316 < 4;
#X obj 207 207 r \$0-sd-hits-s;
#X obj 93 269 r \$0-sd-length-s;
#X text 93 249 GUI: sd length;
#X text 37 177 GUI: sd offset;
#X obj 37 197 r \$0-sd-offset-s;
#X obj 249 363 spigot;
#X obj 219 337 select 1;
#X obj 282 322 r \$0-sd-tgl-s;
#X text 282 302 GUI: sd toggle;
#X obj 249 389 s \$0-sd-trg;
#X obj 406 258 noise~;
#X obj 523 132 r \$0-sd-cutoff-s;
#X obj 523 153 / 100;
#X obj 523 174 * 15;
#X obj 523 216 mtof;
#X msg 523 237 \$1 20;
#X obj 523 258 line~;
#X obj 577 237 r \$0-sd-trg;
#X obj 700 195 / 100;
#X obj 700 216 * 3;
#X msg 700 237 10 \$1;
#X obj 700 258 pow;
#X obj 523 195 + 84;
#X obj 947 284 else/decay~;
#X obj 1010 174 / 100;
#X msg 1010 216 10 \$1;
#X obj 1010 237 pow;
#X obj 817 62 / 100;
#X obj 817 83 * 10;
#X obj 817 104 + 43;
#X obj 817 176 osc~;
#X obj 817 247 *~;
#X obj 817 41 r \$0-sd-tune-s;
#X obj 700 174 r \$0-sd-snap-s;
#X obj 1010 153 r \$0-sd-decay-s;
#X obj 874 84 r \$0-sd-trg;
#X obj 817 125 sig~;
#X obj 817 155 mtof~;
#X obj 577 284 else/decay2~ 10;
#X obj 406 284 else/highpass~ 4000 1;
#X obj 874 131 *~ 24;
#X obj 1010 195 * 2;
#X obj 1010 258 * 2;
#X obj 966 83 r \$0-sd-trg;
#X obj 966 130 *~ 12;
#X obj 966 108 else/decay~ 50;
#X obj 874 108 else/decay~ 20;
#X obj 577 258 else/rand.f 0.7 1;
#X obj 562 371 clip~ -1 1;
#X obj 355 126 r \$0-sd-tgl-s;
#X text 355 106 GUI: sd toggle;
#X obj 355 147 switch~;
#X connect 1 0 70 0;
#X connect 2 0 0 0;
#X connect 3 0 6 0;
#X connect 4 0 5 0;
#X connect 5 0 2 1;
#X connect 6 0 7 0;
#X connect 7 0 4 0;
#X connect 8 0 9 0;
#X connect 9 0 12 0;
#X connect 11 0 9 1;
#X connect 12 0 15 0;
#X connect 13 0 12 1;
#X connect 15 0 16 0;
#X connect 16 0 17 0;
#X connect 17 0 20 0;
#X connect 19 0 17 1;
#X connect 19 1 21 1;
#X connect 20 0 21 0;
#X connect 21 0 28 0;
#X connect 22 0 19 0;
#X connect 23 0 20 1;
#X connect 26 0 16 1;
#X connect 27 0 31 0;
#X connect 28 0 27 0;
#X connect 29 0 27 1;
#X connect 32 0 61 0;
#X connect 33 0 34 0;
#X connect 34 0 35 0;
#X connect 35 0 44 0;
#X connect 36 0 37 0;
#X connect 37 0 38 0;
#X connect 38 0 61 1;
#X connect 39 0 69 0;
#X connect 40 0 41 0;
#X connect 41 0 42 0;
#X connect 42 0 43 0;
#X connect 43 0 60 2;
#X connect 44 0 36 0;
#X connect 45 0 53 1;
#X connect 46 0 63 0;
#X connect 47 0 48 0;
#X connect 48 0 64 0;
#X connect 49 0 50 0;
#X connect 50 0 51 0;
#X connect 51 0 58 0;
#X connect 52 0 53 0;
#X connect 53 0 70 0;
#X connect 54 0 49 0;
#X connect 55 0 40 0;
#X connect 56 0 46 0;
#X connect 57 0 68 0;
#X connect 58 0 59 0;
#X connect 59 0 52 0;
#X connect 60 0 1 1;
#X connect 61 0 1 0;
#X connect 62 0 59 0;
#X connect 63 0 47 0;
#X connect 64 0 45 1;
#X connect 65 0 67 0;
#X connect 66 0 59 0;
#X connect 67 0 66 0;
#X connect 68 0 62 0;
#X connect 69 0 60 0;
#X connect 69 0 45 0;
#X connect 70 0 2 0;
#X connect 71 0 73 0;
#X restore 861 387 pd snare-drum;
#X obj 591 336 nbx 3 19 0 100 0 1 \$0-sd-tune-s \$0-sd-tune-r tune 0 -8 0 12 #7f0000 #ffffff #000000 41 256;
#X obj 591 376 nbx 3 19 0 100 0 1 \$0-sd-decay-s \$0-sd-decay-r decay 0 -8 0 12 #7f0000 #ffffff #000000 100 256;
#X obj 451 25 nbx 3 20 0 400 0 1 \$0-swing-s \$0-swing-r swing 0 -8 0 12 #000000 #ffffff #000000 0 256;
#X obj 332 493 tgl 19 1 \$0-ms20-tgl-s \$0-ms20-tgl-r ms20 0 -8 0 12 #000000 #ffffff #000000 0 1;
#X obj 671 56 cnv 19 60 19 empty empty synth 4 10 0 12 #000000 #ffffff 0;
#X obj 656 56 cnv 5 5 600 empty empty empty 4 10 0 12 #000000 #ffffff 0;
#X obj 731 136 nbx 3 19 0 100 0 1 \$0-synth-cutoff-s \$0-synth-cutoff-r cutoff 0 -8 0 12 #000000 #ffffff #000000 16 256;
#X obj 731 176 nbx 3 19 0 100 0 1 \$0-synth-res-s \$0-synth-res-r res 0 -8 0 12 #000000 #ffffff #000000 41 256;
#X obj 731 216 nbx 3 19 0 100 0 1 \$0-synth-env-s \$0-synth-env-r env 0 -8 0 12 #000000 #ffffff #000000 78 256;
#X obj 731 256 nbx 3 19 0 100 0 1 \$0-synth-attack-s \$0-synth-attack-r attack 0 -8 0 12 #000000 #ffffff #000000 0 256;
#X obj 731 296 nbx 3 19 0 100 0 1 \$0-synth-decay-s \$0-synth-decay-r decay 0 -8 0 12 #000000 #ffffff #000000 100 256;
#X obj 672 493 tgl 19 1 \$0-synth-tgl-s \$0-synth-tgl-r synth 0 -8 0 12 #000000 #ffffff #000000 1 1;
#X obj 671 538 vsl 19 101 0 100 0 1 \$0-synth-vol-s \$0-synth-vol-r vol 0 -9 0 12 #000000 #ffffff #000000 8800 1;
#X obj 696 538 vsl 19 101 0 100 0 1 \$0-synth-rev-s \$0-synth-rev-r rev 0 -9 0 12 #000000 #fcfcfc #000000 7500 1;
#X obj 731 336 nbx 3 19 0 100 0 1 \$0-synth-vel-s \$0-synth-vel-r vel 0 -8 0 12 #000000 #ffffff #000000 34 256;
#X obj 731 376 nbx 3 19 0 100 0 1 \$0-synth-rate-s \$0-synth-rate-r rate 0 -8 0 12 #000000 #ffffff #000000 55 256;
#X obj 731 416 nbx 3 19 0 100 0 1 \$0-synth-vibrato-s \$0-synth-vibrato-r vibrato 0 -8 0 12 #000000 #ffffff #000000 100 256;
#X obj 791 166 tgl 19 1 \$0-synth-stuTgl-s \$0-synth-stuTgl-r empty 17 7 0 10 #000000 #ffffff #000000 0 1;
#X obj 791 306 tgl 19 1 \$0-synth-delTgl-s \$0-synth-delTgl-r empty 17 7 0 10 #000000 #ffffff #000000 1 1;
#X obj 791 386 nbx 3 19 1 128 0 1 \$0-synth-delTime-s \$0-synth-delTime-r time 0 -8 0 12 #000000 #ffffff #000000 26 256;
#X obj 791 206 nbx 3 19 0 100 0 1 \$0-synth-stuProb-s \$0-synth-stuProb-r prob 0 -8 0 12 #000000 #ffffff #000000 100 256;
#X obj 791 456 tgl 19 1 \$0-synth-reverseTgl-s \$0-synth-reverseTgl-r empty 17 7 0 10 #000000 #ffffff #000000 0 1;
#X obj 791 246 nbx 3 19 1 64 0 1 \$0-synth-stuRate-s \$0-synth-stuRate-r rate 0 -8 0 12 #000000 #ffffff #000000 6 256;
#X obj 791 426 nbx 3 19 0 100 0 1 \$0-synth-delFbk-s \$0-synth-delFbk-r fbk 0 -8 0 12 #000000 #ffffff #000000 94 256;
#X obj 791 276 tgl 19 1 \$0-synth-stuRnd-s \$0-synth-stuRnd-r rnd 22 10 0 12 #000000 #ffffff #000000 0 1;
#X obj 791 346 nbx 3 19 0 100 0 1 \$0-synth-delLevel-s \$0-synth-delLevel-r level 0 -8 0 12 #000000 #ffffff #000000 43 256;
